<?xml version="1.0" encoding="utf-8"?>
<!-- Generator: Adobe Illustrator 17.1.0, SVG Export Plug-In . SVG Version: 6.00 Build 0)  -->
<!DOCTYPE svg PUBLIC "-//W3C//DTD SVG 1.1//EN" "http://www.w3.org/Graphics/SVG/1.1/DTD/svg11.dtd">
<svg version="1.1" id="Layer_1" xmlns="http://www.w3.org/2000/svg" xmlns:xlink="http://www.w3.org/1999/xlink" x="0px" y="0px"
	 viewBox="0 0 200 200" enable-background="new 0 0 200 200" xml:space="preserve">
<rect fill="#7AC143" width="200" height="200"/>
<g>
	<path fill="#FFFFFF" d="M58.778,67.162c0,0,0,0,0.007,0h10.228c0.586,0,1.057-0.477,1.059-1.059c0-0.004-0.124-8.77-0.124-11.208
		v-0.029c0-2.002,0.42-3.748,1.152-5.211l0.35-0.657c-0.039,0.007-0.078,0.026-0.117,0.065L51.459,68.771
		c-0.039,0.032-0.063,0.073-0.074,0.116c0.411-0.203,0.973-0.481,1.053-0.516C54.168,67.59,56.266,67.162,58.778,67.162z
		 M138.367,65.016c-0.812-4.349-3.398-6.493-5.736-7.335c-2.522-0.912-7.637-1.856-14.063-2.613
		c-5.17-0.609-11.247-0.56-14.917-0.447c-0.441-3.017-2.557-5.774-4.925-6.728c-6.31-2.54-16.058-1.926-18.561-1.225
		c-1.989,0.556-4.19,1.695-5.416,3.451c-0.822,1.173-1.353,2.675-1.357,4.774c0,1.188,0.033,3.986,0.063,6.472
		c0.03,2.494,0.063,4.724,0.063,4.739c-0.001,2.22-1.801,4.027-4.031,4.03h-10.23c-2.182,0-3.849,0.367-5.123,0.945
		c-1.276,0.579-2.179,1.36-2.865,2.284c-1.366,1.834-1.604,4.098-1.598,6.408c0,0,0.02,1.888,0.475,5.541
		c0.378,2.827,3.444,22.575,6.356,28.581c1.129,2.337,1.881,3.31,4.099,4.34c4.942,2.116,16.23,4.47,21.521,5.144
		c5.281,0.676,8.596,2.096,10.571-2.046c0.007-0.01,0.396-1.03,0.931-2.527c1.715-5.197,1.954-9.808,1.954-13.144
		c0-0.339,0.498-0.355,0.498,0c0,2.356-0.45,10.692,5.847,12.928c2.486,0.882,7.643,1.668,12.883,2.282
		c4.738,0.544,8.176,2.409,8.176,14.564c0,7.395-1.553,8.409-9.674,8.409c-6.582,0-9.091,0.17-9.091-5.059
		c0-4.227,4.18-3.784,7.278-3.784c1.384,0,0.379-1.029,0.379-3.637c0-2.594,1.622-4.093,0.088-4.131
		c-10.713-0.295-17.017-0.012-17.017,13.386c0,12.163,4.655,14.422,19.859,14.422c11.921,0,16.124-0.39,21.046-15.664
		c0.974-3.015,3.33-12.216,4.756-27.666C141.507,101.941,139.756,72.458,138.367,65.016z M117.586,97.605
		c-1.473-0.051-2.889,0.042-4.21,0.254c0.372-3.003,1.611-6.687,6.001-6.533c4.86,0.167,5.541,4.76,5.558,7.872
		C122.886,98.284,120.349,97.702,117.586,97.605z"/>
</g>
</svg>
