<?xml version="1.0" encoding="utf-8"?>
<!-- Generator: Adobe Illustrator 17.1.0, SVG Export Plug-In . SVG Version: 6.00 Build 0)  -->
<!DOCTYPE svg PUBLIC "-//W3C//DTD SVG 1.1//EN" "http://www.w3.org/Graphics/SVG/1.1/DTD/svg11.dtd">
<svg version="1.1" id="Layer_1" xmlns="http://www.w3.org/2000/svg" xmlns:xlink="http://www.w3.org/1999/xlink" x="0px" y="0px"
	 viewBox="0 0 200 200" enable-background="new 0 0 200 200" xml:space="preserve">
<rect fill="#EF4136" width="200" height="200"/>
<g>
	<path fill-rule="evenodd" clip-rule="evenodd" fill="#FFFFFF" d="M98.489,124.403c7.82,5.938,22.134,2.345,28.32-2.954
		c8.905-7.645,13.022-23.147,11.709-35.417c-1.472-13.729-14.217-25.849-29.292-27.548C86.04,55.87,64.962,70.169,64.804,92.921
		c-0.073,10.701,3.353,17.444,12.697,21.146c6.373-6.373-1.195-10.518-1.955-17.704C73.53,77.277,96.062,58.89,116.063,70.782
		c13.936,8.283,11.571,43.805-5.369,47.223c-3.373,0.683-7.6-0.378-9.275-1.971c-8.047-7.6,6.666-20.94,1.951-31.97
		c-4.089-9.559-15.814-1.906-17.086,6.393c-0.687,4.503,1.455,8.844,1.463,12.79c0.037,9.389-5.824,22.155-7.324,31.482
		c-0.577,3.633-1.093,11.071-0.24,14.883c-0.049,0.041-0.094,0.082-0.142,0.122h6.121c4.284-7.324,7.218-18.346,9.397-27.796
		C96.912,120.936,97.407,123.578,98.489,124.403z"/>
</g>
</svg>
