<?xml version="1.0" encoding="utf-8"?>
<!-- Generator: Adobe Illustrator 17.1.0, SVG Export Plug-In . SVG Version: 6.00 Build 0)  -->
<!DOCTYPE svg PUBLIC "-//W3C//DTD SVG 1.1//EN" "http://www.w3.org/Graphics/SVG/1.1/DTD/svg11.dtd">
<svg version="1.1" id="Layer_1" xmlns="http://www.w3.org/2000/svg" xmlns:xlink="http://www.w3.org/1999/xlink" x="0px" y="0px"
	 viewBox="0 0 200 200" enable-background="new 0 0 200 200" xml:space="preserve">
<linearGradient id="SVGID_1_" gradientUnits="userSpaceOnUse" x1="100" y1="1" x2="100" y2="199.6454">
	<stop  offset="0" style="stop-color:#30668C"/>
	<stop  offset="0.4788" style="stop-color:#2E5E82"/>
	<stop  offset="1" style="stop-color:#2B4963"/>
</linearGradient>
<rect fill="url(#SVGID_1_)" width="200" height="200"/>
<g>
	<path fill="#FFFFFF" d="M103.885,56.869V78.57h20.37v13.477h-20.37v22.018c0,4.981,0.262,8.177,0.786,9.583
		c0.53,1.416,1.51,2.544,2.945,3.39c1.898,1.14,4.068,1.705,6.519,1.705c4.343,0,8.665-1.414,12.969-4.239v13.546
		c-3.67,1.723-6.991,2.938-9.963,3.633c-2.977,0.701-6.192,1.049-9.652,1.049c-3.92,0-7.393-0.498-10.406-1.488
		c-3.016-1-5.588-2.406-7.718-4.243c-2.128-1.833-3.607-3.79-4.428-5.855c-0.825-2.065-1.236-5.058-1.236-8.986V92.047h-9.492
		V79.901c3.375-1.099,6.265-2.672,8.669-4.712c2.404-2.046,4.336-4.499,5.789-7.377c1.457-2.863,2.459-6.513,3.007-10.943H103.885z"
		/>
</g>
</svg>
