<?xml version="1.0" encoding="utf-8"?>
<!-- Generator: Adobe Illustrator 17.1.0, SVG Export Plug-In . SVG Version: 6.00 Build 0)  -->
<!DOCTYPE svg PUBLIC "-//W3C//DTD SVG 1.1//EN" "http://www.w3.org/Graphics/SVG/1.1/DTD/svg11.dtd">
<svg version="1.1" id="Layer_1" xmlns="http://www.w3.org/2000/svg" xmlns:xlink="http://www.w3.org/1999/xlink" x="0px" y="0px"
	 viewBox="0 0 200 200" enable-background="new 0 0 200 200" xml:space="preserve">
<rect fill="#00759B" width="200" height="200"/>
<g>
	<g>
		<path fill="#FFFFFF" d="M57.717,99.999c0,16.736,9.726,31.2,23.83,38.054L61.378,82.791
			C59.032,88.049,57.717,93.869,57.717,99.999z"/>
		<path fill="#FFFFFF" d="M128.543,97.866c0-5.226-1.877-8.845-3.487-11.661c-2.143-3.483-4.153-6.433-4.153-9.916
			c0-3.886,2.948-7.505,7.1-7.505c0.187,0,0.365,0.024,0.548,0.034c-7.523-6.892-17.544-11.1-28.552-11.1
			c-14.772,0-27.767,7.579-35.328,19.058c0.993,0.03,1.928,0.051,2.722,0.051c4.422,0,11.268-0.537,11.268-0.537
			c2.279-0.134,2.548,3.214,0.271,3.483c0,0-2.291,0.27-4.839,0.404l15.397,45.8l9.254-27.752l-6.588-18.048
			c-2.276-0.134-4.434-0.404-4.434-0.404c-2.278-0.133-2.011-3.617,0.268-3.483c0,0,6.982,0.537,11.137,0.537
			c4.422,0,11.268-0.537,11.268-0.537c2.281-0.134,2.549,3.214,0.271,3.483c0,0-2.295,0.27-4.839,0.404l15.28,45.452l4.218-14.092
			C127.151,105.685,128.543,101.485,128.543,97.866z"/>
		<path fill="#FFFFFF" d="M100.741,103.698l-12.687,36.864c3.788,1.113,7.794,1.722,11.944,1.722c4.923,0,9.646-0.851,14.041-2.397
			c-0.114-0.181-0.216-0.373-0.301-0.582L100.741,103.698z"/>
		<path fill="#FFFFFF" d="M137.1,79.714c0.182,1.346,0.284,2.792,0.284,4.348c0,4.289-0.801,9.113-3.215,15.144l-12.915,37.341
			c12.57-7.331,21.025-20.95,21.025-36.548C142.28,92.648,140.403,85.736,137.1,79.714z"/>
		<path fill="#FFFFFF" d="M99.999,50.712c-27.177,0-49.288,22.111-49.288,49.287c0,27.18,22.111,49.289,49.288,49.289
			c27.176,0,49.29-22.109,49.29-49.289C149.289,72.823,127.174,50.712,99.999,50.712z M99.999,147.028
			c-25.93,0-47.028-21.097-47.028-47.03c0-25.93,21.098-47.027,47.028-47.027c25.93,0,47.026,21.097,47.026,47.027
			C147.025,125.931,125.929,147.028,99.999,147.028z"/>
	</g>
</g>
</svg>
