<?xml version="1.0" encoding="utf-8"?>
<!-- Generator: Adobe Illustrator 17.1.0, SVG Export Plug-In . SVG Version: 6.00 Build 0)  -->
<!DOCTYPE svg PUBLIC "-//W3C//DTD SVG 1.1//EN" "http://www.w3.org/Graphics/SVG/1.1/DTD/svg11.dtd">
<svg version="1.1" id="Layer_1" xmlns="http://www.w3.org/2000/svg" xmlns:xlink="http://www.w3.org/1999/xlink" x="0px" y="0px"
	 viewBox="0 0 200 200" enable-background="new 0 0 200 200" xml:space="preserve">
<rect fill="#00B1D4" width="200" height="200"/>
<g>
	<path fill="#FFFFFF" d="M50.475,99.725l16.212-16.252c0.538-0.548,0.838-1.273,0.838-2.042c0-1.603-1.303-2.905-2.906-2.905
		c-0.781,0-1.513,0.306-2.065,0.865c-0.002,0.003-16.198,16.19-16.198,16.19L30.085,79.366c-0.55-0.542-1.278-0.841-2.051-0.841
		c-1.601,0-2.905,1.301-2.905,2.903c0,0.781,0.312,1.514,0.872,2.067l16.21,16.208L26.01,115.935c-0.57,0.561-0.88,1.295-0.88,2.08
		c0,1.603,1.304,2.903,2.905,2.903c0.774,0,1.503-0.3,2.051-0.848l16.245-16.223l16.183,16.164c0.574,0.593,1.315,0.91,2.105,0.91
		c1.602,0,2.905-1.302,2.905-2.905c0-0.773-0.299-1.5-0.845-2.048L50.475,99.725L50.475,99.725z"/>
	<path fill="#FFFFFF" d="M146.856,99.721c0,2.911,2.367,5.279,5.281,5.279c2.908,0,5.275-2.368,5.275-5.279
		c0-2.912-2.368-5.279-5.275-5.279C149.223,94.442,146.856,96.809,146.856,99.721L146.856,99.721z"/>
	<path fill="#FFFFFF" d="M130.831,99.723c0,11.743,9.555,21.297,21.3,21.297c11.745,0,21.306-9.554,21.306-21.297
		c0-11.745-9.56-21.302-21.306-21.302C140.386,78.421,130.831,87.978,130.831,99.723L130.831,99.723z M136.844,99.723
		c0-8.429,6.857-15.287,15.287-15.287c8.426,0,15.285,6.858,15.285,15.287c0,8.427-6.859,15.283-15.285,15.283
		C143.702,115.006,136.844,108.15,136.844,99.723L136.844,99.723z"/>
	<path fill="#FFFFFF" d="M129.319,78.786l-0.894-0.003c-2.683,0-5.27,0.846-7.432,2.512c-0.285-1.303-1.449-2.284-2.837-2.284
		c-1.597,0-2.877,1.28-2.88,2.88c0,0.006,0.009,35.876,0.009,35.876c0.004,1.597,1.307,2.896,2.905,2.896
		c1.598,0,2.9-1.299,2.904-2.899c0-0.007,0.001-22.059,0.001-22.059c0-7.352,0.672-10.322,6.97-11.109
		c0.582-0.072,1.215-0.061,1.218-0.061c1.723-0.059,2.948-1.243,2.948-2.844C132.232,80.089,130.925,78.786,129.319,78.786
		L129.319,78.786z"/>
	<path fill="#FFFFFF" d="M109.386,95.668c-1.252-5.926-4.496-10.795-9.437-13.921c-7.222-4.585-16.759-4.332-23.735,0.629
		c-5.69,4.048-8.975,10.67-8.975,17.492c0,1.71,0.206,3.437,0.636,5.136c2.149,8.453,9.415,14.851,18.078,15.911
		c2.571,0.311,5.073,0.162,7.664-0.509c2.227-0.542,4.381-1.445,6.366-2.717c2.06-1.324,3.782-3.071,5.449-5.162
		c0.033-0.038,0.068-0.073,0.101-0.113c1.157-1.435,0.942-3.476-0.329-4.45c-1.073-0.822-2.873-1.155-4.289,0.659
		c-0.304,0.434-0.644,0.88-1.018,1.326c-1.126,1.245-2.524,2.451-4.198,3.386c-2.131,1.138-4.559,1.789-7.14,1.803
		c-8.449-0.094-12.97-5.992-14.579-10.202c-0.281-0.786-0.497-1.602-0.648-2.441c-0.02-0.157-0.034-0.309-0.04-0.448
		c1.747,0,30.32-0.005,30.32-0.005C107.767,101.957,110.004,99.023,109.386,95.668L109.386,95.668z M73.542,96.216
		c0-0.079,0.006-0.162,0.01-0.244c1.687-6.667,7.724-11.6,14.915-11.6c7.278,0,13.371,5.055,14.971,11.844H73.542L73.542,96.216z"/>
</g>
</svg>
