<?xml version="1.0" encoding="utf-8"?>
<!-- Generator: Adobe Illustrator 17.1.0, SVG Export Plug-In . SVG Version: 6.00 Build 0)  -->
<!DOCTYPE svg PUBLIC "-//W3C//DTD SVG 1.1//EN" "http://www.w3.org/Graphics/SVG/1.1/DTD/svg11.dtd">
<svg version="1.1" id="Layer_1" xmlns="http://www.w3.org/2000/svg" xmlns:xlink="http://www.w3.org/1999/xlink" x="0px" y="0px"
	 viewBox="0 0 200 200" enable-background="new 0 0 200 200" xml:space="preserve">
<rect fill="#194FC8" width="200" height="200"/>
<g>
	<g>
		<path fill="#FFFFFF" d="M100.403,60.207c-27.248,0-49.338,17.816-49.338,39.793c0,7.506,2.578,14.526,7.057,20.517l-7.864,14.064
			l18.152-4.291c8.614,5.924,19.784,9.502,31.992,9.502c27.248,0,49.338-17.816,49.338-39.793S127.652,60.207,100.403,60.207z"/>
		<path id="path5744_3_" fill="#194FC8" d="M88.517,74.869l7.985,9.506
			c0.453,1.267,1.458,2.535,0,3.802l-5.894,4.563c0.02,0.653-0.573,1.075-0.45,3.049c0.416,6.652,2.841,12.509,11.25,15.671
			c1.132,0.441,2.735,1.466,3.51,0.475l5.766-5.774c0.826-1.381,3.428-0.413,4.755,0.707l8.06,7.925
			c0.925,1.521,1.239,2.571,0.167,4.092l-7.461,5.446c-1.714,0.808-3.183,0.961-5.312,0.033
			c-22.524-8.78-32.806-24.302-33.023-40.18c-0.926-2.659,0.52-3.539,1.521-4.753l6.084-5.133
			C86.489,74.071,87.503,73.635,88.517,74.869L88.517,74.869L88.517,74.869z"/>
	</g>
</g>
</svg>
