<?xml version="1.0" encoding="utf-8"?>
<!-- Generator: Adobe Illustrator 17.1.0, SVG Export Plug-In . SVG Version: 6.00 Build 0)  -->
<!DOCTYPE svg PUBLIC "-//W3C//DTD SVG 1.1//EN" "http://www.w3.org/Graphics/SVG/1.1/DTD/svg11.dtd">
<svg version="1.1" id="Layer_1" xmlns="http://www.w3.org/2000/svg" xmlns:xlink="http://www.w3.org/1999/xlink" x="0px" y="0px"
	 viewBox="0 0 200 200" enable-background="new 0 0 200 200" xml:space="preserve">
<linearGradient id="SVGID_1_" gradientUnits="userSpaceOnUse" x1="100" y1="1" x2="100" y2="199.6454">
	<stop  offset="0" style="stop-color:#DB6E07"/>
	<stop  offset="1" style="stop-color:#C64600"/>
</linearGradient>
<rect fill="url(#SVGID_1_)" width="200" height="200"/>
<g>
	<g>
		<path fill="#FFFFFF" d="M42.14,79.916c-0.029-0.656,0.219-1.189,1.095-1.189c0.876,0,9.765,0.281,15.742,0.281
			c12.393,0,15.366-1.001,17.495-1.001c1.189,0.031,1.44,0.939,1.44,1.471c0,0.532-0.563,1.659-0.563,3.129
			c0,1.471,0.344,3.036,0.344,4.319c0,1.283-1.095,1.721-1.69,1.721c-0.595,0-0.969-0.219-1.002-1.314
			c-0.062-2.097,1.471-5.132-13.582-5.132c-7.667,0-7.855,0.876-7.855,3.317c0,2.441,0.063,10.516,0.063,11.767
			c0,1.252,0.376,1.627,1.377,1.627c1.001,0,8.857,0,10.985,0c2.128,0,4.288-1.158,4.538-4.162c0.094-1.596,0.532-1.659,1.314-1.659
			c0.782,0,1.502,0.626,1.377,2.128c-0.125,1.502-0.438,3.099-0.438,5.258c0,2.16,0.438,4.288,0.438,5.852
			c0,1.565-2.066,1.94-2.472,0.251c-0.407-1.69-1.002-4.538-5.821-4.538c-4.82,0-8.7,0-9.764,0c-1.064,0-1.596,0.595-1.596,2.347
			c0,1.753,0,10.328,0,12.488c0,2.159,0.657,4.475,5.039,4.475c4.381,0,12.331,0.469,15.961-2.379
			c1.565-1.283,2.034-3.067,2.566-5.977c0.25-1.346,3.161-1.314,3.036,1.784c-0.094,1.44-1.474,4.531-1.474,6.515
			c0,1.659,0.379,3.879-1.155,3.879c-1.297,0-0.751-0.661-6.447-0.661c-5.696,0-25.35,0.125-28.636,0.125
			c-1.221,0-1.471-0.344-1.471-1.095c0-0.751,0.438-1.314,1.471-1.314c1.033,0,5.414,0.062,5.414-5.508c0-5.571,0-25.945,0-28.949
			s-0.657-6.009-4.35-6.384C42.078,81.262,42.172,80.636,42.14,79.916z"/>
		<path fill="#FFFFFF" d="M82.325,97.431c0-0.939,0.501-1.335,1.627-1.711c2.128-0.813,4.569-3.192,6.635-8.826
			c0.657-1.784,2.911-1.314,2.629,0.501c-0.281,1.815-0.688,5.164-0.688,7.073c0.97,0,8.168,0,9.076,0
			c0.908,0,1.064,1.095,1.064,1.972c0,0.876-0.25,1.596-1.033,1.596c-0.845,0-9.107,0-9.107,0s0,10.046,0,15.71
			c0,5.665,1.94,6.979,4.538,6.979c1.502,0,2.723-0.595,3.849-1.377c0.751-0.564,2.441,0.782,1.596,1.877
			c-0.845,1.095-3.818,4.319-8.075,4.319c-4.256,0-7.323-3.161-7.261-8.45c0.062-5.289,0.281-14.115,0.281-15.335
			s-1.596-2.942-3.38-2.942C82.606,98.788,82.325,98.016,82.325,97.431z"/>
		<path fill="#FFFFFF" d="M119.16,93.561c2.942,0,5.227,1.033,6.197,1.033c0.97,0,1.346-1.221,2.41-1.221
			c1.064,0,1.314,1.221,1.033,2.253c-0.282,1.033-0.469,3.474-0.345,6.197c0.032,0.939-0.72,1.502-1.471,1.502
			s-1.033-0.313-1.346-1.753c-0.312-1.44-1.596-4.913-6.666-4.913c-3.662,0-5.07,2.441-5.07,4.037c0,1.596,0.856,3.122,4.757,4.82
			c4.1,1.784,11.674,3.693,11.674,10.954c-0.25,6.823-7.01,8.982-10.985,8.982c-3.349,0-6.478-1.002-7.855-1.002
			s-1.909,1.158-2.785,1.158c-0.876,0-1.502-1.001-1.158-2.034c0.344-1.033,0.782-1.815,0.782-2.848c0-1.033-0.594-3.443-0.25-5.446
			c0.345-2.003,3.036-2.284,3.005-0.344c-0.031,1.94,0.845,7.48,7.855,7.48c5.664,0,6.322-3.943,6.322-5.07
			c0-1.377-0.282-3.349-7.073-6.04c-6.791-2.692-9.42-5.195-9.42-9.483C108.77,97.536,112.588,93.561,119.16,93.561z"/>
		<path fill="#FFFFFF" d="M132.305,95.376c0-0.657,0.031-0.97,0.782-0.97c0.751,0,4.726,0.125,6.822,0.125
			c2.097,0,5.947-0.125,6.729-0.125c0.564,0,0.407,0.689,0.407,1.158c0,0.469,0.062,1.252-0.939,1.252
			c-1.002,0-2.879,0.344-2.879,2.003c0,1.659,0.442,2.121,1.095,3.912c0.72,1.972,5.915,13.895,5.915,13.895
			s4.068-8.356,5.289-10.703c1.221-2.347,1.972-5.289,1.972-6.604s-1.346-2.191-2.473-2.41c-1.127-0.219-1.69-0.157-1.69-1.502
			c0-0.689,0.125-1.064,0.688-1.064c0.563,0,3.943,0.219,6.447,0.219c2.504,0,5.414-0.156,6.228-0.156
			c0.751,0,0.532,0.626,0.532,1.158c0,0.532-0.063,1.064-0.72,1.158c-0.657,0.094-3.567-0.031-6.603,6.416
			c-3.036,6.447-9.045,19.435-13.395,27.885c-2.254,4.444-6.51,9.295-10.954,9.295c-2.316,0.031-3.224-1.972-3.224-2.973
			s0.563-2.629,3.192-2.629c1.752,0,2.222,0.845,3.067,0.845c1.753,0,6.197-4.257,7.449-11.892c0.188-1.753-1.614-6.045-2.316-7.981
			c-1.043-2.879-4.215-11.225-6.51-16.18c-0.784-1.693-2.848-2.567-4.162-2.723C132.43,96.66,132.305,96.44,132.305,95.376z"/>
	</g>
</g>
</svg>
