<?xml version="1.0" encoding="utf-8"?>
<!-- Generator: Adobe Illustrator 17.1.0, SVG Export Plug-In . SVG Version: 6.00 Build 0)  -->
<!DOCTYPE svg PUBLIC "-//W3C//DTD SVG 1.1//EN" "http://www.w3.org/Graphics/SVG/1.1/DTD/svg11.dtd">
<svg version="1.1" id="Layer_1" xmlns="http://www.w3.org/2000/svg" xmlns:xlink="http://www.w3.org/1999/xlink" x="0px" y="0px"
	 viewBox="0 0 200 200" enable-background="new 0 0 200 200" xml:space="preserve">
<rect fill="#F1F1F2" width="200" height="200"/>
<g>
	<g id="layer1_3_" transform="translate(-428.71429,-460.51587)">
		<g id="g2993_3_" transform="matrix(1.3703704,0,0,-1.3703704,430.71429,538.48235)">
			<g id="g2999_3_">
				<g>
					<g id="g3001_3_">
						<g id="g3011_3_" transform="translate(39.137,49.474)">
							<path id="path3013_3_" fill="#1C3664" d="M57.835-50.881c-0.895,1.747-2.238,3.166-3.951,4.237
								c-1.777,1.096-3.844,1.852-6.254,2.308c-2.424,0.435-5.256,0.648-8.504,0.677l-15.04-0.011
								c-1.563-0.018-3.094-1.244-3.455-2.747l-10.142-44.09c-0.349-1.508,0.628-2.755,2.184-2.755h7.205
								c1.558,0,3.102,1.214,3.452,2.755l2.482,10.699c0.332,1.496,1.872,2.734,3.434,2.734h2.06
								c8.812,0.008,15.646,1.811,20.558,5.419c4.904,3.601,7.358,8.374,7.346,14.277C59.221-54.783,58.772-52.613,57.835-50.881
								 M42.277-65.286c-2.172-1.588-5.183-2.384-9.092-2.384h-1.766c-1.557,0-2.539,1.235-2.197,2.751l2.169,9.346
								c0.331,1.506,1.884,2.755,3.441,2.741l2.358,0.015c2.754,0,4.847-0.471,6.26-1.409c1.392-0.912,2.1-2.353,2.075-4.29
								C45.567-61.435,44.461-63.693,42.277-65.286"/>
						</g>
					</g>
				</g>
			</g>
		</g>
	</g>
</g>
</svg>
