<?xml version="1.0" encoding="utf-8"?>
<!-- Generator: Adobe Illustrator 17.1.0, SVG Export Plug-In . SVG Version: 6.00 Build 0)  -->
<!DOCTYPE svg PUBLIC "-//W3C//DTD SVG 1.1//EN" "http://www.w3.org/Graphics/SVG/1.1/DTD/svg11.dtd">
<svg version="1.1" id="Layer_1" xmlns="http://www.w3.org/2000/svg" xmlns:xlink="http://www.w3.org/1999/xlink" x="0px" y="0px"
	 viewBox="0 0 200 200" enable-background="new 0 0 200 200" xml:space="preserve">
<rect fill="#27AAE1" width="200" height="200"/>
<g>
	<path fill="#FFFFFF" d="M148.127,74.825c-3.35,1.496-6.95,2.498-10.734,2.946c3.858-2.31,6.819-5.967,8.217-10.334
		c-3.611,2.131-7.604,3.694-11.866,4.539c-3.41-3.642-8.266-5.907-13.639-5.907c-10.322,0-18.682,8.367-18.682,18.686
		c0,1.465,0.161,2.893,0.479,4.254c-15.526-0.778-29.296-8.218-38.508-19.523c-1.611,2.759-2.531,5.975-2.531,9.399
		c0,6.483,3.294,12.203,8.311,15.553c-3.062-0.097-5.944-0.942-8.464-2.333c0,0.067,0,0.142,0,0.232
		c0,9.047,6.445,16.607,14.988,18.319c-1.57,0.434-3.219,0.658-4.924,0.658c-1.204,0-2.374-0.12-3.514-0.344
		c2.378,7.425,9.279,12.831,17.452,12.981c-6.389,5.01-14.454,8.001-23.21,8.001c-1.503,0-2.983-0.09-4.449-0.269
		c8.262,5.309,18.088,8.404,28.645,8.404c34.37,0,53.16-28.481,53.16-53.171c0-0.807-0.019-1.615-0.056-2.415
		C142.459,81.861,145.622,78.578,148.127,74.825z"/>
</g>
</svg>
