<?xml version="1.0" encoding="utf-8"?>
<!-- Generator: Adobe Illustrator 17.1.0, SVG Export Plug-In . SVG Version: 6.00 Build 0)  -->
<!DOCTYPE svg PUBLIC "-//W3C//DTD SVG 1.1//EN" "http://www.w3.org/Graphics/SVG/1.1/DTD/svg11.dtd">
<svg version="1.1" id="Layer_1" xmlns="http://www.w3.org/2000/svg" xmlns:xlink="http://www.w3.org/1999/xlink" x="0px" y="0px"
	 viewBox="0 0 200 200" enable-background="new 0 0 200 200" xml:space="preserve">
<linearGradient id="SVGID_1_" gradientUnits="userSpaceOnUse" x1="100" y1="1" x2="100" y2="199.6454">
	<stop  offset="0" style="stop-color:#A17FB8"/>
	<stop  offset="1" style="stop-color:#6E3593"/>
</linearGradient>
<rect fill="url(#SVGID_1_)" width="200" height="200"/>
<g>
	<g>
		<path fill="#FFFFFF" d="M131.344,91.142c0.568-0.117,1.411-0.301,2.371-0.509h7.398l1.152-1.703
			c0.025-0.009,0.067-0.017,0.092-0.017l2.864-4.133c-0.041,0-0.109-0.009-0.142-0.009l0.301-0.451h-40.103l1.545,6.312h10.947
			l-18.419,16.624c-3.757-5.194-12.566-16.006-18.712-24.957h13.785v-4.801l0.159-1.06c-0.041-0.009-0.117-0.017-0.159-0.017v-0.434
			H48.7V82.3h13.56c5.26,4.116,25.391,29.249,26.226,31.753c0.334,2.347,0.643,16.207-0.342,17.25
			c-1.979,2.096-11.005,1.536-13.184,1.695l-0.752,4.292c3.974,0.117,16.916-0.326,20.941-0.326c7.924,0,21.809-0.033,23.772,0.117
			l0.242-4.508c-2.004-0.334-12.934-0.042-14.445-0.376c-0.334-2.188-0.701-16.775-0.367-18.277
			C105.861,109.562,128.831,91.819,131.344,91.142z"/>
		<path fill="#FFFFFF" d="M137.999,125.618l6.145,0.492l7.156-27.646c-1.194-0.041-12.057-1.069-13.468-1.344L137.999,125.618z"/>
		<polygon fill="#FFFFFF" points="136.939,130.052 136.972,136.798 140.087,137.065 143.443,137.316 144.428,130.711 
			140.888,130.536 		"/>
	</g>
</g>
</svg>
