<?xml version="1.0" encoding="utf-8"?>
<!-- Generator: Adobe Illustrator 17.1.0, SVG Export Plug-In . SVG Version: 6.00 Build 0)  -->
<!DOCTYPE svg PUBLIC "-//W3C//DTD SVG 1.1//EN" "http://www.w3.org/Graphics/SVG/1.1/DTD/svg11.dtd">
<svg version="1.1" id="Layer_1" xmlns="http://www.w3.org/2000/svg" xmlns:xlink="http://www.w3.org/1999/xlink" x="0px" y="0px"
	 viewBox="0 0 200 200" enable-background="new 0 0 200 200" xml:space="preserve">
<rect fill="#58595B" width="200" height="200"/>
<g>
	<g>
		<path fill="#FFFFFF" d="M128.18,64.012H71.82c-9.097,0-16.495,7.406-16.495,16.491v38.988c0,9.098,7.398,16.495,16.495,16.495
			h56.361c9.097,0,16.495-7.398,16.495-16.495V80.504C144.675,71.418,137.278,64.012,128.18,64.012z M128.18,73.006
			c1.749,0,3.337,0.63,4.614,1.638l-27.269,27.277c-2.815,2.815-7.782,2.815-10.597,0L67.452,74.436
			c1.234-0.892,2.734-1.43,4.368-1.43H128.18z M128.18,126.998H71.82c-4.137,0-7.494-3.368-7.494-7.506V84.034l24.239,24.25
			c3.107,3.103,7.248,4.818,11.662,4.818c4.414,0,8.559-1.715,11.662-4.818l23.789-23.797v35.005
			C135.678,123.63,132.314,126.998,128.18,126.998z"/>
	</g>
</g>
</svg>
