<?xml version="1.0" encoding="utf-8"?>
<!-- Generator: Adobe Illustrator 17.1.0, SVG Export Plug-In . SVG Version: 6.00 Build 0)  -->
<!DOCTYPE svg PUBLIC "-//W3C//DTD SVG 1.1//EN" "http://www.w3.org/Graphics/SVG/1.1/DTD/svg11.dtd">
<svg version="1.1" id="Layer_1" xmlns="http://www.w3.org/2000/svg" xmlns:xlink="http://www.w3.org/1999/xlink" x="0px" y="0px"
	 viewBox="0 0 200 200" enable-background="new 0 0 200 200" xml:space="preserve">
<rect fill="#F1F1F2" width="200" height="200"/>
<g>
	<g>
		<g>
			<path fill="#C3B030" d="M158.129,107.195c-0.278,0.192-0.613,0.305-0.975,0.305h-1.751c-0.518,0-1.007-0.233-1.335-0.634
				l-8.432-10.349v1.191c0,2.592,0.129,4.095,0.249,5.113c0.174,0.046,0.52,0.107,1.164,0.133c0.922,0.039,1.65,0.798,1.65,1.72
				v0.897c0,0.95-0.771,1.721-1.721,1.721h-7.138c-0.428,0-0.815-0.162-1.115-0.42c-0.646,0.467-1.442,0.746-2.333,0.746
				c-0.085,0-0.166-0.011-0.249-0.017c-3.459,17.157-18.615,30.078-36.791,30.078c-18.284,0-33.508-13.078-36.847-30.387h-0.872
				c-0.477,0-0.909-0.195-1.22-0.508l-0.69,0.348c-0.65,0.312-1.334,0.486-1.862,0.486c-1.752,0-3.077-0.525-3.955-1.498
				c-0.249,0.23-0.551,0.405-0.907,0.455c-1.458,0.21-3.198,0.567-5.034,1.033c-0.14,0.035-0.282,0.053-0.424,0.053
				c-0.41,0-0.811-0.147-1.127-0.42l-0.227-0.197c-0.071-0.062-0.136-0.128-0.194-0.198c-0.801,0.431-1.712,0.773-2.857,0.773
				c-0.969,0-1.827-0.219-2.575-0.585c0.023,0.199,0.039,0.399,0.064,0.598l-3.717,0.654l0.97,5.507l3.707-0.652
				c0.355,1.586,0.761,3.155,1.242,4.693l-3.522,1.282l1.913,5.255l3.53-1.285c0.63,1.497,1.33,2.956,2.077,4.387l-3.278,1.893
				l2.796,4.842l3.299-1.905c0.88,1.358,1.812,2.678,2.797,3.956l-2.935,2.463l3.594,4.284l2.96-2.483
				c1.099,1.179,2.239,2.322,3.431,3.408l-2.495,2.972l4.284,3.595l2.518-3.001c1.283,0.966,2.614,1.87,3.976,2.731l-1.98,3.43
				l4.842,2.796l2.001-3.467c1.427,0.723,2.885,1.392,4.375,1.999l-1.382,3.797l5.255,1.913l1.4-3.844
				c1.523,0.458,3.071,0.856,4.642,1.192l-0.718,4.077l5.507,0.972l0.732-4.146c1.568,0.183,3.154,0.303,4.757,0.361v4.266h5.593
				v-4.32c1.595-0.091,3.17-0.252,4.729-0.468l0.76,4.307l5.508-0.971l-0.77-4.365c1.544-0.365,3.066-0.786,4.56-1.27l1.532,4.208
				l5.256-1.913l-1.552-4.264c1.448-0.626,2.865-1.308,4.248-2.043l2.298,3.979l4.843-2.796l-2.331-4.037
				c1.309-0.862,2.579-1.777,3.811-2.738l3.032,3.614l4.284-3.595l-3.07-3.658c1.136-1.069,2.238-2.172,3.286-3.327l3.68,3.088
				l3.595-4.283l-3.716-3.119c0.93-1.242,1.8-2.53,2.632-3.846l4.244,2.451l2.796-4.844l-4.276-2.469
				c0.699-1.378,1.35-2.784,1.943-4.221l4.662,1.697l1.913-5.255l-4.691-1.708c0.448-1.471,0.833-2.97,1.167-4.488l4.95,0.873
				l0.971-5.507l-4.983-0.878C158.116,107.336,158.12,107.265,158.129,107.195z M57.291,135.855l-0.967-1.371l8.989-6.342
				l-11.19,3.222l-0.904-1.282l6.95-9.557l-9.142,6.45l-0.966-1.369L60.8,118.03l1.508,2.138l-5.809,7.907
				c-0.543,0.734-0.952,1.279-1.228,1.634c0.476-0.153,1.185-0.368,2.125-0.643l9.286-2.7l1.349,1.913L57.291,135.855z
				 M71.877,140.383l-5.703-4.509l-2.775,3.509l6.329,5.005l-0.963,1.216l-7.693-6.083l8.153-10.309l7.453,5.894l-0.962,1.217
				l-6.089-4.815l-2.497,3.157l5.703,4.511L71.877,140.383z M86.199,143.304c-0.363,0.859-0.948,1.465-1.754,1.818
				c-0.806,0.353-1.822,0.363-3.05,0.03c0.337,0.383,0.574,0.721,0.709,1.012c0.286,0.628,0.502,1.353,0.647,2.173l0.709,4.185
				l-2.014-0.853l-0.535-3.197c-0.16-0.924-0.309-1.643-0.448-2.157c-0.14-0.513-0.297-0.898-0.471-1.153
				c-0.174-0.256-0.372-0.466-0.594-0.631c-0.166-0.115-0.454-0.261-0.867-0.436l-1.857-0.788l-2.277,5.373l-1.601-0.678
				l5.129-12.101l5.365,2.273c1.079,0.457,1.852,0.914,2.322,1.369c0.47,0.456,0.755,1.03,0.857,1.723
				C86.571,141.959,86.481,142.638,86.199,143.304z M89.626,149.89c0.224,0.866,0.652,1.546,1.285,2.037
				c0.632,0.492,1.347,0.787,2.142,0.882c0.967,0.117,1.82-0.062,2.557-0.54c0.738-0.477,1.292-1.25,1.662-2.319l1.674,0.645
				c-0.533,1.375-1.315,2.378-2.346,3.009c-1.03,0.631-2.224,0.864-3.584,0.701c-1.406-0.169-2.515-0.594-3.327-1.273
				c-0.812-0.679-1.383-1.589-1.711-2.731c-0.328-1.141-0.418-2.334-0.268-3.58c0.165-1.359,0.567-2.512,1.208-3.462
				c0.641-0.949,1.474-1.628,2.495-2.038c1.022-0.409,2.108-0.545,3.26-0.406c1.304,0.158,2.362,0.623,3.172,1.395
				c0.81,0.772,1.317,1.781,1.522,3.028l-1.748,0.195c-0.188-0.986-0.545-1.73-1.067-2.232c-0.523-0.503-1.221-0.807-2.093-0.912
				c-1.003-0.121-1.87,0.018-2.602,0.417c-0.732,0.4-1.282,0.988-1.653,1.765c-0.371,0.777-0.608,1.596-0.712,2.456
				C89.358,148.035,89.403,149.023,89.626,149.89z M111.418,153.231l-0.957-6.12l-6.75,1.056l0.958,6.12l-1.719,0.269l-2.032-12.985
				l1.719-0.269l0.834,5.332l6.75-1.056l-0.834-5.332l1.718-0.269l2.032,12.985L111.418,153.231z M126.167,147.76l-3.039-2.993
				l-5.005,2.268l0.327,4.221l-1.682,0.762l-0.826-14.055l1.706-0.773l10.323,9.752L126.167,147.76z M137.571,139.438l-11.908-3.535
				l6.597,7.945l-1.283,1.066l-8.396-10.111l1.373-1.14l11.903,3.529l-6.593-7.939l1.283-1.066l8.396,10.111L137.571,139.438z
				 M144.252,131.806l-9.415-6.76l-2.526,3.518l-1.26-0.905l6.075-8.462l1.26,0.904l-2.534,3.532l9.415,6.76L144.252,131.806z"/>
			<path fill="#C3B030" d="M82.789,139.541l-3.829-1.623l-1.697,4.003l3.441,1.459c0.732,0.311,1.336,0.477,1.813,0.501
				c0.476,0.024,0.893-0.086,1.248-0.328c0.356-0.241,0.616-0.558,0.782-0.948c0.243-0.573,0.234-1.131-0.025-1.676
				C84.265,140.383,83.686,139.921,82.789,139.541z"/>
			<path fill="#C3B030" d="M163.479,100.274c0.025,0.059,0.064,0.101,0.091,0.156v-0.161
				C163.54,100.271,163.509,100.272,163.479,100.274z"/>
			<path fill="#C3B030" d="M129.413,69.32c0.611,0.615,1.147,1.04,1.609,1.276c0.463,0.236,0.901,0.355,1.314,0.356
				c0.584,0.002,1.204-0.161,1.859-0.488c0.655-0.328,1.336-0.842,2.04-1.541c0.975-0.969,1.564-1.874,1.771-2.714
				c0.205-0.84,0.169-1.578-0.108-2.213c-0.202-0.457-0.667-1.052-1.396-1.786l-1.947-1.959l-7.121,7.079L129.413,69.32z"/>
			<path fill="#C3B030" d="M161.432,86.898v0.903c0,0.926-0.732,1.685-1.657,1.72c-0.322,0.012-0.523,0.044-0.64,0.069
				c-0.084,0.675-0.168,1.577-0.216,2.858l1.496-0.264c0.781-0.511,1.642-0.892,2.562-1.105l-0.857-4.873l-0.787,0.139
				C161.392,86.52,161.432,86.704,161.432,86.898z"/>
			<path fill="#C3B030" d="M44.651,95.551v5.826c0,0.4,0.072,0.576,0.099,0.627c0.002-0.001,0.004-0.001,0.007-0.001
				c0.017,0,0.056,0.006,0.113,0.006c0.21,0,0.452-0.081,0.723-0.241v-5.943l-0.325-0.052C45.044,95.74,44.836,95.661,44.651,95.551
				z"/>
			<polygon fill="#C3B030" points="52.551,102.262 52.683,102.263 52.683,96.113 52.563,96.113 52.551,96.112 			"/>
			<path fill="#C3B030" d="M37.691,100.993v-3.789h-1.264v0.392C36.835,98.702,37.253,99.827,37.691,100.993z"/>
			<path fill="#C3B030" d="M117.72,141.431l0.276,4.107l4.059-1.839l-2.752-2.75c-0.837-0.834-1.495-1.533-1.973-2.098
				C117.524,139.689,117.654,140.548,117.72,141.431z"/>
			<path fill="#C3B030" d="M61.271,95.959c-0.223,0.101-0.464,0.153-0.709,0.153H59.64v5.221c0,0.448,0.06,0.712,0.11,0.854
				c0.104-0.034,0.243-0.092,0.421-0.194c0.42-0.24,0.921-0.294,1.379-0.143c0.114,0.036,0.213,0.099,0.314,0.159
				c-0.03-0.617-0.047-1.239-0.047-1.864c0-1.156,0.06-2.297,0.162-3.426v-1.285C61.774,95.648,61.544,95.836,61.271,95.959z"/>
			<path fill="#C3B030" d="M88.764,52.15c0.391-0.275,0.652-0.616,0.784-1.026c0.132-0.409,0.144-0.819,0.035-1.229
				c-0.16-0.601-0.51-1.037-1.049-1.307c-0.539-0.271-1.28-0.281-2.221-0.03l-4.018,1.071l1.12,4.201l3.612-0.962
				C87.793,52.664,88.374,52.425,88.764,52.15z"/>
			<path fill="#C3B030" d="M37.653,91.522c1.244-0.069,3.489-0.333,5.069-0.526c0.492-0.055,0.981,0.094,1.349,0.42
				c0.158,0.14,0.286,0.305,0.382,0.486c0.274-0.222,0.618-0.362,0.996-0.381c1.413-0.073,3.909-0.354,5.15-0.522
				c0.491-0.064,0.989,0.082,1.363,0.409c0.077,0.067,0.142,0.145,0.205,0.223c0.156-0.135,0.325-0.25,0.515-0.32V91.17
				c0-0.54,0.254-1.05,0.686-1.375l3.016-2.27c0.517-0.389,1.209-0.455,1.79-0.172l0.499,0.243c0.592,0.289,0.967,0.89,0.967,1.548
				v2.061h1.122c0.409,0,0.804,0.146,1.116,0.411c0.039,0.034,0.066,0.08,0.102,0.115v-2.856c0-0.034,0-0.074,0-0.118
				c-0.093-0.007-0.183-0.012-0.258-0.017c-0.909-0.055-1.618-0.808-1.618-1.718v-0.827c0-0.848,0.617-1.57,1.455-1.701
				c1.01-0.157,2.558-0.442,4.017-0.733c6.085-12.519,18.921-21.149,33.775-21.149c20.587,0,37.292,16.574,37.523,37.106
				c1.724,0.207,3.07,1.489,3.374,3.194c0.058-0.009,0.122-0.018,0.16-0.027c0.186-1.358,0.272-3.036,0.272-5.176v-5.709
				c0-1.477-0.014-1.972-0.169-2.175c-0.075-0.096-0.175-0.223-1.214-0.307c-0.894-0.073-1.583-0.819-1.583-1.716v-0.903
				c0-0.95,0.771-1.721,1.721-1.721h5.001c0.502,0,0.979,0.219,1.306,0.599l8.164,9.494v-0.5c0-2.725-0.136-4.215-0.248-5.111
				c-0.179-0.046-0.525-0.107-1.177-0.139c-0.915-0.046-1.635-0.801-1.635-1.719v-0.903c0-0.95,0.771-1.721,1.721-1.721h4.07
				c-0.22-0.86-0.453-1.715-0.714-2.558l4.765-1.734l-1.911-5.255l-4.762,1.734c-0.596-1.429-1.257-2.824-1.959-4.193l4.391-2.535
				l-2.794-4.843l-4.381,2.529c-0.833-1.303-1.706-2.579-2.635-3.809l3.853-3.233l-3.593-4.285l-3.832,3.216
				c-1.045-1.142-2.141-2.236-3.27-3.293l3.204-3.818l-4.282-3.596l-3.18,3.79c-1.225-0.948-2.488-1.85-3.788-2.701l2.453-4.249
				l-4.842-2.797l-2.427,4.204c-1.372-0.724-2.776-1.401-4.21-2.018l1.643-4.513l-5.255-1.915l-1.626,4.468
				c-1.48-0.476-2.987-0.888-4.516-1.248l0.82-4.644l-5.507-0.973l-0.81,4.593c-1.542-0.212-3.101-0.371-4.679-0.462v-4.61h-5.593
				v4.558c-1.586,0.057-3.156,0.174-4.708,0.354l-0.781-4.431l-5.508,0.971l0.769,4.358c-1.556,0.331-3.088,0.726-4.596,1.176
				l-1.495-4.108l-5.255,1.913l1.474,4.051c-1.476,0.599-2.923,1.257-4.337,1.969l-2.131-3.691l-4.843,2.796l2.103,3.643
				c-1.352,0.849-2.675,1.741-3.951,2.694l-2.665-3.176l-4.284,3.595l2.632,3.138c-1.187,1.074-2.32,2.204-3.416,3.37l-3.113-2.612
				l-3.595,4.284l3.074,2.578c-0.984,1.266-1.919,2.573-2.799,3.918l-3.435-1.983l-2.796,4.843l3.392,1.959
				c-0.748,1.421-1.45,2.872-2.083,4.359l-3.638-1.324l-1.913,5.255l3.61,1.314c-0.486,1.531-0.902,3.092-1.265,4.674l-3.771-0.665
				l-0.97,5.507l0.042,0.007C37.162,91.61,37.399,91.536,37.653,91.522z M134.43,57.924l3.191,3.211
				c0.721,0.724,1.226,1.322,1.516,1.792c0.408,0.656,0.637,1.333,0.691,2.031c0.073,0.905-0.093,1.8-0.496,2.687
				c-0.405,0.886-1.022,1.742-1.853,2.568c-0.708,0.704-1.417,1.245-2.128,1.623c-0.712,0.379-1.375,0.616-1.99,0.714
				c-0.615,0.098-1.178,0.095-1.689-0.008c-0.511-0.102-1.036-0.319-1.574-0.648c-0.538-0.33-1.087-0.776-1.647-1.339l-3.344-3.364
				L134.43,57.924z M121.605,50.007l8.323,4.587l-0.749,1.358l-6.8-3.747l-1.943,3.525l6.367,3.509l-0.744,1.351l-6.367-3.509
				l-2.16,3.918l7.067,3.894l-0.749,1.359l-8.59-4.734L121.605,50.007z M115.196,47.83l1.658,0.53l-4.001,12.519l-1.657-0.53
				L115.196,47.83z M102.18,45.419l8.797,1.111l-0.195,1.539l-7.071-0.893l-0.51,4.038l6.12,0.773l-0.195,1.539l-6.119-0.773
				l-0.748,5.924l-1.726-0.218L102.18,45.419z M97.229,45.534l0.717,13.123l-1.737,0.095l-0.716-13.123L97.229,45.534z
				 M85.87,47.174c1.132-0.301,2.023-0.417,2.673-0.346c0.65,0.071,1.228,0.348,1.734,0.832c0.507,0.484,0.853,1.075,1.039,1.774
				c0.24,0.901,0.151,1.738-0.268,2.511c-0.419,0.773-1.215,1.406-2.389,1.898c0.502,0.095,0.895,0.216,1.182,0.363
				c0.611,0.319,1.226,0.759,1.845,1.317l3.13,2.868l-2.113,0.564l-2.385-2.195c-0.694-0.631-1.254-1.107-1.679-1.427
				c-0.426-0.319-0.786-0.527-1.079-0.621c-0.295-0.095-0.58-0.14-0.857-0.134c-0.201,0.011-0.519,0.073-0.951,0.189l-1.949,0.519
				l1.503,5.64l-1.681,0.448l-3.384-12.7L85.87,47.174z M75.095,50.928l0.807,1.325L69.27,56.29l2.092,3.439l6.211-3.78l0.802,1.317
				l-6.211,3.78l2.325,3.821l6.892-4.195l0.807,1.325l-8.378,5.099l-6.834-11.226L75.095,50.928z M56.561,65.898l9.31,4.019
				c0.746,0.322,1.428,0.643,2.044,0.964c-0.387-0.638-0.749-1.3-1.089-1.986l-4.557-9.111l1.211-1.298l6.095,12.731l-1.218,1.304
				l-13.081-5.247L56.561,65.898z"/>
		</g>
		<g>
			<path fill="#075580" d="M28.682,91.964h0.082l2.078,5.926h-4.215L28.682,91.964 M31.209,105.571h7.871v-0.897
				c-1.523-0.191-1.987-0.307-2.981-3.022c-1.092-2.907-2.36-6.341-3.565-9.733l-1.894-5.344l-1.412,0.387l-5.808,14.779
				c-1.004,2.59-1.379,2.725-3.099,2.933v0.897h6.478v-0.897l-0.71-0.079c-1.33-0.149-1.381-0.456-0.959-1.904
				c0.374-1.245,0.75-2.506,1.103-3.345h5.092c0.435,1.054,0.983,2.558,1.355,3.513c0.486,1.237,0.338,1.553-0.72,1.708
				l-0.752,0.107V105.571z"/>
			<path fill="#075580" d="M47.314,95.578c0-1.052-0.14-1.235-0.884-1.361l-0.893-0.141v-0.834c1.441-0.073,3.941-0.352,5.293-0.535
				v9.766c0,1.193,0.115,1.513,1.031,1.513h0.894v0.888c-1.724,0.248-3.567,0.65-5.213,1.068l-0.227-0.197v-1.841
				c-0.542,0.399-1.027,0.766-1.662,1.154c-0.889,0.54-1.613,0.842-2.517,0.842c-2.4,0-3.723-1.597-3.723-3.802v-6.517
				c0-1.052-0.14-1.235-0.883-1.361l-0.78-0.141v-0.834c1.322-0.073,3.68-0.352,5.181-0.535v8.673c0,1.692,0.86,2.353,1.94,2.353
				c0.808,0,1.609-0.376,2.444-1.1V95.578"/>
			<path fill="#075580" d="M57.918,101.334c0,2.206,1.088,2.618,1.609,2.618c0.455,0,0.948-0.15,1.496-0.463l0.396,0.86
				l-2.471,1.246c-0.456,0.218-0.888,0.302-1.087,0.302c-2.221,0-3.457-0.964-3.457-3.52v-7.985h-1.841l-0.203-0.367l0.922-1.101
				h1.122V91.17l3.016-2.27l0.499,0.243v3.782h2.843c0.371,0.316,0.318,1.233-0.2,1.468h-2.644V101.334"/>
			<path fill="#075580" d="M67.219,94.428c0.971-0.959,2.424-1.838,3.927-1.838c2.615,0,4.058,1.638,4.058,4.346v5.826
				c0,1.613,0.143,1.722,1.734,1.913v0.897h-6.752v-0.897c1.389-0.191,1.503-0.3,1.503-1.913v-5.511
				c0-1.777-0.995-2.533-2.194-2.533c-0.792,0-1.627,0.29-2.275,0.946v7.098c0,1.613,0.138,1.722,1.337,1.913v0.897h-6.922v-0.897
				c1.921-0.191,2.068-0.3,2.068-1.913V88.874c0-1.701-0.055-1.742-1.876-1.852v-0.827c1.274-0.199,3.488-0.611,5.394-1.014V94.428"
				/>
			<path fill="#075580" d="M81.378,98.412c0-3.114,1.218-4.638,2.392-4.638c1.839,0,2.942,2.217,2.942,6.055
				c0,4.161-1.291,4.874-2.332,4.874C82.532,104.704,81.378,102.025,81.378,98.412 M84.205,92.589c-3.23,0-6.795,2.419-6.795,6.978
				c0,3.074,2.217,6.33,6.646,6.33c3.312,0,6.624-2.249,6.624-6.939C90.68,95.615,88.205,92.589,84.205,92.589z"/>
			<path fill="#075580" d="M96.835,102.762c0,1.606,0.14,1.722,2.353,1.913v0.897h-7.829v-0.897
				c1.807-0.191,1.955-0.307,1.955-1.913v-6.376c0-1.754-0.055-1.776-1.903-1.986v-0.776c1.681-0.237,3.521-0.62,5.423-1.035v2.856
				h0.057c0.367-0.582,0.804-1.269,1.344-1.84c0.548-0.582,1.181-1.016,1.902-1.016c1.093,0,1.929,0.798,1.929,1.757
				c0,0.953-0.636,1.787-1.361,2.04c-0.374,0.158-0.653,0.051-0.887-0.116c-0.484-0.388-0.979-0.605-1.436-0.605
				c-0.486,0-1.065,0.218-1.548,1.417V102.762"/>
			<path fill="#075580" d="M104.332,96.386c0-1.754-0.055-1.776-1.895-1.986v-0.776c1.691-0.237,3.596-0.62,5.413-1.035v10.137
				c0,1.642,0.144,1.758,1.974,1.949v0.897h-7.472v-0.897c1.841-0.191,1.98-0.307,1.98-1.949V96.386 M107.936,88.05
				c0,1.167-0.92,2.077-2.085,2.077c-1.117,0-2.092-0.91-2.092-2.077c0-1.171,0.975-2.091,2.092-2.091
				C107.016,85.959,107.936,86.879,107.936,88.05z"/>
			<path fill="#075580" d="M121.26,92.919l0.256,0.414l-6.614,11.017h2.276c1.977,0,2.749-0.358,3.714-1.995l0.423-0.715
				l1.035,0.385c-0.515,1.428-0.887,2.492-1.324,3.546h-10.378l-0.287-0.421l6.818-11.012h-2.022c-1.901,0-2.41,0.436-3.07,1.854
				l-0.409,0.881l-1.031-0.386c0.34-1.089,0.794-2.911,1.06-4.168h0.637c0.145,0.422,0.454,0.601,1.551,0.601H121.26"/>
			<path fill="#075580" d="M125.672,97.351c0.169-1.953,1.237-3.444,2.298-3.444c1.092,0,2.01,1.509,2.01,2.675
				c0,0.56-0.111,0.679-0.537,0.679L125.672,97.351 M132.806,102.242c-1.159,0.777-2.051,1.113-3.11,1.113
				c-2.193,0-4.15-1.487-4.15-4.709c2.859-0.113,6.687-0.379,7.085-0.462c0.571-0.111,0.658-0.176,0.658-1.254
				c0-2.222-1.989-4.332-4.481-4.332c-3.507,0-6.607,3.086-6.607,7.232c0,3.223,2.233,6.067,6.114,6.067
				c1.003,0,3.252-0.579,4.888-3.083L132.806,102.242z"/>
			<path fill="#075580" d="M134.216,103.646c0-1.296,0.945-2.25,2.176-2.25c1.257,0,2.207,0.954,2.207,2.25
				c0,1.344-0.95,2.251-2.207,2.251C135.16,105.897,134.216,104.99,134.216,103.646"/>
			<path fill="#075580" d="M157.154,105.779h-1.751l-11.427-14.026h-0.061v5.955c0,3.024,0.174,4.617,0.284,5.512
				c0.149,0.996,0.869,1.375,2.778,1.455v0.897h-7.138v-0.897c1.439-0.055,2.129-0.458,2.262-1.455c0.129-0.895,0.3-2.488,0.3-5.512
				V92c0-1.829,0-2.539-0.523-3.222c-0.548-0.699-1.269-0.881-2.442-0.977v-0.903h5.001l11.133,12.947h0.058V94.77
				c0-3.018-0.165-4.6-0.285-5.507c-0.146-1.014-0.869-1.367-2.775-1.462v-0.903h7.14v0.903c-1.448,0.056-2.128,0.449-2.273,1.462
				c-0.114,0.907-0.283,2.489-0.283,5.507V105.779"/>
			<path fill="#075580" d="M161.598,97.351c0.165-1.953,1.233-3.444,2.292-3.444c1.09,0,2.008,1.509,2.008,2.675
				c0,0.56-0.102,0.679-0.544,0.679L161.598,97.351 M168.732,102.242c-1.16,0.777-2.047,1.113-3.12,1.113
				c-2.181,0-4.134-1.487-4.134-4.709c2.846-0.113,6.673-0.379,7.076-0.462c0.574-0.111,0.658-0.176,0.658-1.254
				c0-2.222-1.981-4.332-4.484-4.332c-3.506,0-6.614,3.086-6.614,7.232c0,3.223,2.247,6.067,6.117,6.067
				c1.013,0,3.26-0.579,4.896-3.083L168.732,102.242z"/>
			<path fill="#075580" d="M174.811,101.334c0,2.206,1.086,2.618,1.613,2.618c0.449,0,0.945-0.15,1.487-0.463l0.405,0.86
				l-2.473,1.246c-0.457,0.218-0.879,0.302-1.091,0.302c-2.209,0-3.466-0.964-3.466-3.52v-7.985h-1.825l-0.202-0.367l0.922-1.101
				h1.105V91.17l3.033-2.27l0.494,0.243v3.782h2.843c0.376,0.316,0.31,1.233-0.199,1.468h-2.644V101.334"/>
			<path fill="#075580" d="M178.23,91.875c-0.252,0-0.49-0.061-0.711-0.187c-0.222-0.125-0.398-0.298-0.533-0.525
				c-0.134-0.226-0.196-0.47-0.196-0.732c0-0.259,0.062-0.499,0.19-0.726c0.128-0.223,0.306-0.4,0.535-0.528
				c0.219-0.129,0.463-0.193,0.715-0.193c0.257,0,0.499,0.064,0.723,0.193c0.226,0.128,0.401,0.305,0.529,0.528
				c0.131,0.226,0.196,0.467,0.196,0.726c0,0.262-0.067,0.507-0.202,0.732c-0.134,0.226-0.311,0.4-0.532,0.525
				C178.722,91.814,178.484,91.875,178.23,91.875 M178.23,91.655c0.215,0,0.419-0.051,0.605-0.158
				c0.189-0.104,0.344-0.254,0.454-0.444c0.111-0.19,0.169-0.398,0.167-0.622c0-0.218-0.056-0.423-0.16-0.613
				c-0.11-0.192-0.259-0.34-0.452-0.449c-0.195-0.11-0.399-0.164-0.614-0.164s-0.417,0.054-0.606,0.164
				c-0.195,0.109-0.346,0.257-0.453,0.449c-0.109,0.19-0.162,0.395-0.162,0.613c0,0.224,0.054,0.432,0.165,0.622
				c0.118,0.191,0.268,0.34,0.457,0.444C177.813,91.604,178.019,91.655,178.23,91.655z M177.96,91.293h-0.282v-1.749h0.564
				c0.133,0,0.241,0.019,0.31,0.06c0.068,0.04,0.124,0.096,0.166,0.172c0.038,0.076,0.061,0.159,0.061,0.244
				c0,0.103-0.031,0.199-0.081,0.294c-0.062,0.092-0.146,0.163-0.258,0.213c0.056,0.038,0.123,0.122,0.196,0.253l0.271,0.513h-0.316
				l-0.225-0.431l-0.057-0.11c-0.065-0.116-0.111-0.174-0.142-0.174h-0.206V91.293z M177.96,90.363h0.191
				c0.127,0,0.215-0.034,0.262-0.102c0.05-0.069,0.074-0.144,0.074-0.225c0-0.051-0.009-0.095-0.026-0.138
				c-0.021-0.039-0.055-0.073-0.09-0.1c-0.039-0.027-0.107-0.04-0.204-0.04h-0.206V90.363z"/>
		</g>
		<g>
			<polygon fill-rule="evenodd" clip-rule="evenodd" fill="#888888" points="119.925,118.068 119.925,116.124 117.982,116.124 
				117.982,114.18 116.039,114.18 116.039,112.237 114.094,112.237 114.094,125.845 116.039,125.845 116.039,123.9 117.982,123.9 
				117.982,121.957 119.925,121.957 119.925,120.012 121.871,120.012 121.871,118.068 			"/>
			<rect x="80.073" y="112.722" fill-rule="evenodd" clip-rule="evenodd" fill="#888888" width="4.86" height="1.944"/>
			<rect x="97.57" y="116.124" fill-rule="evenodd" clip-rule="evenodd" fill="#888888" width="3.887" height="1.944"/>
			<rect x="101.457" y="118.068" fill-rule="evenodd" clip-rule="evenodd" fill="#888888" width="1.944" height="1.943"/>
			<rect x="101.457" y="121.47" fill-rule="evenodd" clip-rule="evenodd" fill="#888888" width="1.944" height="1.943"/>
			<rect x="97.57" y="123.414" fill-rule="evenodd" clip-rule="evenodd" fill="#888888" width="3.887" height="1.944"/>
			<rect x="95.626" y="118.068" fill-rule="evenodd" clip-rule="evenodd" fill="#888888" width="1.944" height="5.345"/>
			<rect x="84.934" y="114.666" fill-rule="evenodd" clip-rule="evenodd" fill="#888888" width="1.944" height="1.943"/>
			<rect x="110.691" y="116.609" fill-rule="evenodd" clip-rule="evenodd" fill="#888888" width="1.945" height="1.946"/>
			<rect x="110.691" y="123.414" fill-rule="evenodd" clip-rule="evenodd" fill="#888888" width="1.945" height="1.944"/>
			<polygon fill-rule="evenodd" clip-rule="evenodd" fill="#888888" points="108.748,120.012 106.805,120.012 106.805,112.722 
				104.86,112.722 104.86,125.358 106.805,125.358 106.805,121.957 108.748,121.957 108.748,123.414 110.691,123.414 
				110.691,118.555 108.748,118.555 			"/>
			<rect x="84.934" y="121.47" fill-rule="evenodd" clip-rule="evenodd" fill="#888888" width="1.944" height="1.943"/>
			<rect x="80.073" y="123.414" fill-rule="evenodd" clip-rule="evenodd" fill="#888888" width="4.86" height="1.944"/>
			<rect x="78.129" y="114.666" fill-rule="evenodd" clip-rule="evenodd" fill="#888888" width="1.944" height="8.748"/>
			<rect x="88.821" y="112.722" fill-rule="evenodd" clip-rule="evenodd" fill="#888888" width="1.944" height="12.636"/>
			<rect x="92.223" y="116.124" fill-rule="evenodd" clip-rule="evenodd" fill="#888888" width="1.944" height="9.234"/>
			<rect x="92.223" y="112.722" fill-rule="evenodd" clip-rule="evenodd" fill="#888888" width="1.944" height="1.944"/>
		</g>
	</g>
</g>
</svg>
