<?xml version="1.0" encoding="utf-8"?>
<!-- Generator: Adobe Illustrator 17.1.0, SVG Export Plug-In . SVG Version: 6.00 Build 0)  -->
<!DOCTYPE svg PUBLIC "-//W3C//DTD SVG 1.1//EN" "http://www.w3.org/Graphics/SVG/1.1/DTD/svg11.dtd">
<svg version="1.1" id="Layer_1" xmlns="http://www.w3.org/2000/svg" xmlns:xlink="http://www.w3.org/1999/xlink" x="0px" y="0px"
	 viewBox="0 0 200 200" enable-background="new 0 0 200 200" xml:space="preserve">
<rect fill="#F1F1F2" width="200" height="200"/>
<g>
	<g>
		<path fill-rule="evenodd" clip-rule="evenodd" fill="#0071A9" d="M96.167,43.798c-0.364,3.469-0.735,6.924-2.997,9.477
			c-4.458,5.03-10.508,8.119-15.441,10.547c-12.549,6.176-26.98,20.568-26.98,43.555c0,11.135,4.295,23.115,12.398,32.345
			c8.626,9.825,21.529,16.553,36.852,16.478c13.698-0.066,24.943-4.538,33.398-11.841c9.888-8.54,15.852-21.083,15.852-36.983
			c0-11.713-3.492-21.864-9.851-29.631C126.86,62.43,116.742,61.08,110.343,57.43C105.763,54.817,101.537,50.216,96.167,43.798
			L96.167,43.798z"/>
		<g>
			<defs>
				<path id="SVGID_11_" d="M96.167,43.798c-0.364,3.469-0.735,6.924-2.997,9.477c-4.458,5.03-10.508,8.119-15.441,10.547
					c-12.549,6.176-26.98,20.568-26.98,43.555c0,11.135,4.295,23.115,12.398,32.345c8.626,9.825,21.529,16.553,36.852,16.478
					c13.698-0.066,24.943-4.538,33.398-11.841c9.888-8.54,15.852-21.083,15.852-36.983c0-11.713-3.492-21.864-9.851-29.631
					C126.86,62.43,116.742,61.08,110.343,57.43C105.763,54.817,101.537,50.216,96.167,43.798L96.167,43.798z"/>
			</defs>
			<clipPath id="SVGID_1_">
				<use xlink:href="#SVGID_11_"  overflow="visible"/>
			</clipPath>
			<path clip-path="url(#SVGID_1_)" fill-rule="evenodd" clip-rule="evenodd" fill="#008DCB" d="M133.593,67.626
				c6.619,10.001,6.456,20.836,0.68,30.359c-4.637,7.645-12.994,14.061-23.589,21.415c-15.987,11.096-32.304,19.488-45.664,16.002
				c-6.524-1.702-12.234-6.841-17.067-14.715L43.916,37.35l57.614-0.965L133.593,67.626L133.593,67.626z"/>
			<path clip-path="url(#SVGID_1_)" fill-rule="evenodd" clip-rule="evenodd" fill="#A0D1E4" d="M95.534,44.412
				c2.659,4.484,3.035,10.706,0,13c-1.442,1.09-1.126,1.663-0.576,2.125c1.092,0.917,0.305,2.757-0.9,4.502
				c-6.747,9.766-19.972,17.554-27.909,21.067c-2.118,0.937-6.166,2.194-7.382,0.9c-3.075-3.27,2.473-8.451,5.582-13.108
				L88.98,55.072L95.534,44.412L95.534,44.412z"/>
			<path clip-path="url(#SVGID_1_)" fill-rule="evenodd" clip-rule="evenodd" fill="#FFFFFF" d="M95.462,43.116
				c3.446,7.8,3.199,12.394-4.663,15.988c-0.252,0.115-0.835,0.64,0.172,0.84c2.984,0.592-0.991,5.196-2.712,6.796
				c-1.982,1.843-4.646,4.595-11.287,9.046c-6.641,4.451-13.802,7.513-15.668,6.258c-3.282-2.207,3.343-7.85,6.86-13.36
				L95.462,43.116L95.462,43.116z"/>
		</g>
		<path fill="none" stroke="#006193" stroke-miterlimit="22.9256" d="M96.167,43.798c-0.364,3.469-0.735,6.924-2.997,9.477
			c-4.458,5.03-10.508,8.119-15.441,10.547c-12.549,6.176-26.98,20.568-26.98,43.555c0,11.135,4.295,23.115,12.398,32.345
			c8.626,9.825,21.529,16.553,36.852,16.478c13.698-0.066,24.943-4.538,33.398-11.841c9.888-8.54,15.852-21.083,15.852-36.983
			c0-11.713-3.492-21.864-9.851-29.631C126.86,62.43,116.742,61.08,110.343,57.43C105.763,54.817,101.537,50.216,96.167,43.798
			L96.167,43.798z"/>
		<path fill-rule="evenodd" clip-rule="evenodd" fill="#FFFFFF" d="M117.872,120.503c-6.923-0.045-13.737-12.143-27.565-12.468
			c-10.4-0.244-18.592,8.473-18.413,16.864c0.215,10.071,7.337,12.478,13.945,12.576c12.955,0.192,24.488-13.053,32.358-13.188
			c5.981-0.103,12.042,12.409,17.476,12.828c6.259,0.483,10.93-11.642,10.522-18.989c-0.272-4.896-3.085-8.411-6.738-8.324
			C132.61,109.966,124.645,120.548,117.872,120.503L117.872,120.503z M105.888,136.658c2.989-2.974,6.159-4.734,9.723-4.646
			c5.689,0.141,5.932,1.477,7.58,4.808c0.335,0.676,0.144,1.258-0.072,1.602c-0.118,0.187-0.769,0.812-0.991,0.812
			c-0.548,0-0.747-0.197-0.972-0.758c-1.357-3.388-3.369-3.403-5.906-3.403c-3.908,0-5.614,1.908-7.922,3.817
			c-0.574,0.475-1.116,0.832-1.548,0.468c-0.349-0.293-0.638-0.702-0.63-1.009C105.168,137.62,105.371,137.172,105.888,136.658
			L105.888,136.658z M97.983,144.742c3.071,2.832,17.573,5.211,26.289-0.648c0.321-0.216,0.734-0.36,1.089-0.207
			c0.266,0.114,0.423,0.258,0.459,0.557c0.059,0.491,0.092,1.232-0.288,1.549c-6.053,5.051-22.42,7.931-30.205,1.504
			c-0.768-0.634-0.795-1.589-0.288-2.142c0.376-0.41,0.705-0.602,1.161-0.863C96.77,144.165,97.495,144.292,97.983,144.742
			L97.983,144.742z"/>
	</g>
</g>
</svg>
