<?xml version="1.0" encoding="utf-8"?>
<!-- Generator: Adobe Illustrator 17.1.0, SVG Export Plug-In . SVG Version: 6.00 Build 0)  -->
<!DOCTYPE svg PUBLIC "-//W3C//DTD SVG 1.1//EN" "http://www.w3.org/Graphics/SVG/1.1/DTD/svg11.dtd">
<svg version="1.1" id="Layer_1" xmlns="http://www.w3.org/2000/svg" xmlns:xlink="http://www.w3.org/1999/xlink" x="0px" y="0px"
	 viewBox="0 0 200 200" enable-background="new 0 0 200 200" xml:space="preserve">
<rect fill="#53B9D4" width="200" height="200"/>
<g>
	<g>
		<path fill="#654E44" d="M150.314,149.647c-0.414,0.401-0.912,0.601-1.492,0.601c-0.599,0-1.105-0.205-1.515-0.616
			c-0.411-0.41-0.617-0.916-0.617-1.515c0-0.623,0.222-1.14,0.665-1.552c0.416-0.386,0.906-0.578,1.466-0.578
			c0.588,0,1.09,0.208,1.507,0.625c0.416,0.416,0.625,0.918,0.625,1.506C150.954,148.722,150.741,149.232,150.314,149.647z
			 M147.571,146.882c-0.339,0.347-0.509,0.759-0.509,1.235c0,0.494,0.173,0.913,0.518,1.258c0.343,0.346,0.758,0.518,1.243,0.518
			c0.484,0,0.898-0.174,1.24-0.52c0.343-0.349,0.515-0.767,0.515-1.255c0-0.474-0.171-0.886-0.512-1.235
			c-0.344-0.354-0.759-0.532-1.243-0.532C148.333,146.35,147.916,146.528,147.571,146.882z M149.506,149.179
			c-0.203,0.135-0.413,0.201-0.631,0.201c-0.324,0-0.604-0.115-0.84-0.346c-0.237-0.232-0.355-0.536-0.355-0.911
			c0-0.351,0.102-0.65,0.306-0.896c0.203-0.247,0.482-0.37,0.837-0.37c0.226,0,0.421,0.046,0.587,0.14
			c0.27,0.151,0.438,0.415,0.503,0.792l-0.544-0.008c-0.033-0.175-0.102-0.293-0.208-0.353c-0.089-0.056-0.187-0.084-0.292-0.084
			c-0.16,0-0.291,0.066-0.393,0.198c-0.102,0.132-0.153,0.331-0.153,0.596c0,0.263,0.056,0.455,0.169,0.574
			c0.113,0.119,0.248,0.179,0.406,0.179c0.145,0,0.255-0.04,0.329-0.118c0.074-0.079,0.122-0.179,0.143-0.298h0.529
			C149.841,148.809,149.71,149.045,149.506,149.179z"/>
		<path fill="#654E44" d="M154.869,126.77c-0.008-0.214-0.027-0.418-0.05-0.609c-0.016-0.127-0.039-0.254-0.071-0.376
			c-0.053-0.284-0.118-0.567-0.214-0.835l-0.002-0.005c-0.196-0.557-0.5-1.093-0.891-1.544c-0.389-0.45-0.855-0.807-1.321-1.053
			l-0.015-0.009c-0.497-0.261-0.986-0.406-1.429-0.49c-0.13-0.024-0.252-0.036-0.373-0.049c0.566-2.427-0.143-4.279-0.601-5.145
			c0.036-0.034,0.073-0.068,0.107-0.101c0.605-0.584,1.119-1.143,1.551-1.704l0.082-0.112c0.348-0.499,0.577-1.01,0.724-1.479
			c0.125-0.403,0.187-0.768,0.223-1.101l0.004,0.001l0.004-0.02l0.002-0.048l0.014-0.103h-0.008l0.006-0.115h0.003l0.001-0.069
			c0.002-0.068,0.004-0.139,0.004-0.213c0.003-0.138,0.003-0.28-0.004-0.437c-0.033-0.751-0.169-1.728-0.663-2.786
			c-0.247-0.527-0.587-1.069-1.041-1.571c-0.451-0.501-1.014-0.958-1.662-1.319l0.004,0.001c-0.047-0.026-0.084-0.051-0.127-0.076
			c-1.344-1.979-2.879-3.512-4.24-4.676c-0.706-0.603-1.365-1.107-1.926-1.518c-0.557-0.408-1.025-0.731-1.287-0.925l0.003,0.002
			c-0.599-0.439-1.044-0.703-1.257-0.824c-0.49-0.298-0.855-0.536-1.075-0.702c-0.172-0.13-0.256-0.214-0.287-0.248l-0.017-0.022
			c-0.003-0.004-0.022-0.041-0.047-0.174c-0.028-0.132-0.057-0.358-0.07-0.685c-0.023-0.514-0.005-1.266,0.051-2.259
			c0.09-1.597,0.271-3.801,0.459-6.788c0.062-0.95,0.071-1.845,0.036-2.688c-0.056-1.353-0.231-2.578-0.514-3.688l-0.001-0.006
			c-0.062-0.253-0.134-0.501-0.21-0.745l-0.001-0.002l-0.001-0.003c-0.057-0.182-0.107-0.32-0.138-0.407l0.002,0.005
			c-0.057-0.162-0.116-0.323-0.182-0.486l-0.002-0.007c-0.033-0.079-0.073-0.182-0.127-0.309l-0.001-0.003l-0.001-0.002
			c-0.103-0.241-0.219-0.499-0.366-0.778l-0.039-0.074l-0.074-0.132l-0.052-0.088c-0.272-0.448-0.56-0.857-0.861-1.237
			c-0.152-0.687-0.416-1.703-0.854-2.858c-0.389-1.016-0.91-2.144-1.651-3.256c-0.258-0.383-0.55-0.763-0.87-1.135l0.107-0.111
			c0.15-0.157,3.71-3.885,6.498-8.724c5.196-9.019,3.466-14.533,1.101-17.57l-0.067-0.085l-0.071-0.08
			c-2.28-2.534-5.381-4.061-9.217-4.538c-7.945-0.988-16.929,2.91-19.285,4.019l-4.283-4.731l-0.016-0.018
			c-0.379-0.416-0.799-0.788-1.25-1.114c-0.453-0.327-0.939-0.609-1.449-0.846c-1.023-0.475-2.146-0.772-3.341-0.921
			c-2.397-0.295-5.087-0.008-8.014,0.742c-4.386,1.131-9.312,3.322-14.46,6.411c-5.146,3.09-10.509,7.081-15.716,11.83
			c-6.363,5.803-11.618,11.938-15.448,17.761c-1.913,2.912-3.471,5.747-4.628,8.435c-1.155,2.69-1.915,5.233-2.208,7.586
			c-0.213,1.71-0.179,3.327,0.165,4.816c0.15,0.652,0.365,1.278,0.641,1.871c0.354,0.762,0.812,1.469,1.382,2.094l0.014,0.015
			l4.486,4.699l0.496,0.519l-0.029,0.05c-0.054,0.094-0.105,0.19-0.158,0.285c-0.077,0.142-0.154,0.283-0.228,0.426
			c-0.049,0.098-0.098,0.195-0.145,0.294c-0.071,0.146-0.14,0.291-0.208,0.439c-0.045,0.099-0.089,0.198-0.132,0.299
			c-0.066,0.149-0.129,0.3-0.189,0.453c-0.04,0.1-0.079,0.201-0.118,0.302c-0.058,0.154-0.113,0.311-0.169,0.468
			c-0.035,0.102-0.07,0.203-0.103,0.305c-0.052,0.16-0.1,0.321-0.148,0.482c-0.014,0.045-0.029,0.088-0.041,0.134
			c-0.016,0.057-0.032,0.115-0.047,0.172c-0.046,0.166-0.087,0.333-0.128,0.501c-0.024,0.1-0.05,0.201-0.074,0.303
			c-0.016,0.074-0.032,0.146-0.046,0.221c-0.022,0.104-0.04,0.207-0.061,0.312c-0.018,0.094-0.038,0.188-0.055,0.283
			c-0.037,0.211-0.068,0.425-0.097,0.637c-0.008,0.063-0.02,0.124-0.028,0.188l-0.002,0.018l-0.005,0.057
			c-0.017,0.139-0.029,0.279-0.043,0.42c-0.021,0.22-0.038,0.441-0.05,0.664c-0.007,0.097-0.011,0.196-0.016,0.296
			c-0.003,0.076-0.009,0.151-0.012,0.229c-0.004,0.155-0.002,0.312-0.003,0.47c0,0.094-0.001,0.187,0,0.283
			c0.001,0.056-0.001,0.112,0,0.169v0.02v0.012c0.003,0.101,0.007,0.203,0.01,0.303c0.005,0.111,0.015,0.22,0.022,0.329
			c0.005,0.082,0.007,0.164,0.012,0.245c0.007,0.072,0.011,0.127,0.016,0.174c0.009,0.103,0.019,0.208,0.03,0.31
			c0.011,0.118,0.024,0.245,0.041,0.389l0.001,0.012v-0.002c0.008,0.056,0.014,0.094,0.02,0.138
			c0.016,0.117,0.035,0.234,0.052,0.351c0.014,0.105,0.033,0.222,0.056,0.368c0.012,0.058,0.021,0.108,0.03,0.151
			c0.013,0.071,0.028,0.141,0.041,0.21l0.001,0.006l0.002,0.009l0.019,0.089c0.018,0.097,0.042,0.218,0.079,0.384
			c0.01,0.044,0.018,0.074,0.027,0.111c0.027,0.106,0.046,0.184,0.061,0.24l0.026,0.107c0.009,0.035,0.018,0.068,0.03,0.117
			l0.026,0.099l0.023,0.082l0.019,0.074c0.011,0.038,0.019,0.063,0.029,0.097l0.027,0.102c0.024,0.079,0.05,0.157,0.074,0.236
			c0.029,0.092,0.065,0.215,0.118,0.379l-0.009-0.027l0.01,0.031c0.013,0.039,0.023,0.065,0.035,0.098
			c0.047,0.136,0.086,0.241,0.105,0.295l0.003,0.006v0.001c0.032,0.089,0.078,0.221,0.143,0.391l0.001,0.002l0.001,0.004
			l-0.001-0.004l0.005,0.016l-0.002-0.008l0.029,0.07c0.041,0.105,0.075,0.186,0.102,0.249l0.033,0.08l0.005,0.013
			c0.017,0.04,0.039,0.095,0.066,0.158c0.025,0.059,0.054,0.128,0.089,0.208l-0.003-0.006l0.036,0.076
			c0.033,0.073,0.063,0.142,0.091,0.197c0.027,0.054,0.049,0.103,0.068,0.142l-0.003-0.006l0.004,0.009l0,0l0.003,0.006
			l-0.003-0.006c0.041,0.087,0.092,0.199,0.163,0.339l0.006,0.013l0.004,0.007l0.03,0.058c0.031,0.057,0.059,0.113,0.085,0.162
			c0.037,0.069,0.07,0.128,0.096,0.179l0.005,0.011c0.038,0.07,0.092,0.172,0.165,0.304l0.005,0.008l0.005,0.01l0.031,0.051
			c0.03,0.053,0.058,0.104,0.086,0.149c0.046,0.079,0.09,0.149,0.124,0.208l0.01,0.016l0.002,0.005
			c0.036,0.057,0.09,0.148,0.166,0.27l0.007,0.011l0.022,0.036c0.038,0.059,0.074,0.115,0.108,0.166
			c0.054,0.081,0.103,0.154,0.144,0.217l-0.007-0.01c0.045,0.067,0.108,0.162,0.192,0.283l0.007,0.01l0.004,0.007l-0.008-0.013
			l0.009,0.013l0.007,0.009l-0.002-0.002l0.003,0.004l0.001,0.001c0.04,0.057,0.081,0.113,0.121,0.17
			c0.056,0.078,0.11,0.15,0.157,0.214l-0.003-0.004c0.045,0.061,0.103,0.139,0.172,0.229l0.015,0.02
			c0.052,0.068,0.102,0.131,0.15,0.192c0.063,0.079,0.123,0.153,0.18,0.222l0.019,0.024c0.038,0.046,0.083,0.102,0.143,0.172
			l0.027,0.032l-0.001,0.001l0.009,0.011l0.016,0.017l0,0c0.09,0.106,0.171,0.196,0.252,0.287l0.086,0.099v-0.001l0.001,0.002
			l0.003,0.004l0.006,0.006l-0.002-0.002c0.04,0.044,0.09,0.101,0.151,0.165l0.019,0.022l0.001,0.001l0.003,0.002l0.012,0.012
			l-0.003-0.003c0.098,0.105,0.193,0.202,0.289,0.3c0.039,0.04,0.079,0.084,0.118,0.122l0.005,0.005
			c0.021,0.02,0.067,0.068,0.142,0.144l0.015,0.013l0.043,0.045c0.116,0.113,0.236,0.222,0.356,0.333l0.028,0.027l0.008,0.006
			l0.003,0.003l0.004,0.004c0.031,0.027,0.08,0.073,0.151,0.137l0.008,0.008c0.153,0.135,0.307,0.267,0.46,0.395l0.009,0.007
			l0.087,0.072l0.059,0.048l-0.002-0.002l0.089,0.07c0.129,0.104,0.257,0.204,0.379,0.298l0.035,0.027l0.016,0.012
			c0.047,0.035,0.081,0.06,0.101,0.076l0.024,0.018l0.019,0.013c0.036,0.026,0.071,0.05,0.108,0.077
			c0.109,0.078,0.217,0.155,0.327,0.23l0.092,0.065l0.011,0.007l0.113,0.077l0.005,0.002l0.058,0.037
			c0.111,0.075,0.229,0.148,0.346,0.223c0.062,0.039,0.118,0.077,0.182,0.116l0.1,0.061l0.056,0.033l0.037,0.022
			c0.183,0.11,0.354,0.209,0.511,0.295l0.015,0.008l0.098,0.053l0.007,0.005c0.217,0.116,0.423,0.222,0.619,0.319l0.034,0.016
			l0.107,0.051l0.001-0.001c0.106,0.051,0.208,0.095,0.313,0.142c0.048,0.023,0.099,0.046,0.148,0.068
			c0.059,0.027,0.121,0.058,0.181,0.083l0.05,0.022l0.015,0.006l0.024,0.01c0.102,0.043,0.201,0.079,0.301,0.12l0.051,0.019
			c0.113,0.045,0.225,0.093,0.337,0.135l0.027,0.01l0.083,0.03c0.052,0.019,0.107,0.036,0.16,0.055l0.049,0.017
			c0.161,0.057,0.322,0.115,0.485,0.168l0.038,0.012l0.014,0.004l0.006,0.003c0.252,0.078,0.503,0.151,0.754,0.219l0.01,0.002
			l0.042,0.011l-0.015-0.003c0.222,0.058,0.44,0.109,0.656,0.157h0.003l0.08,0.021l0.084,0.018c0.206,0.045,0.416,0.081,0.628,0.118
			l0.06,0.016l0.149,0.023c0.127,0.021,0.255,0.037,0.382,0.055c0.02,0.053,0.038,0.105,0.055,0.149l0.002,0.007
			c0.348,0.95,0.725,1.895,1.131,2.833c5.976,16.538,22.496,29.358,41.347,31.701c18.852,2.344,38.975-10.186,47.173-27.117
			c0.353-0.648,0.676-1.283,0.97-1.899c0.813-0.837,1.444-1.705,1.864-2.625C154.748,128.84,154.917,127.701,154.869,126.77z"/>
		<polygon fill="#654E44" points="138.292,78.236 138.293,78.241 138.294,78.242 		"/>
		<polygon fill="#654E44" points="55.107,124.533 55.106,124.532 55.105,124.532 		"/>
		<polygon fill="#654E44" points="49.769,119.531 49.77,119.533 49.77,119.532 		"/>
		<polygon fill="#654E44" points="49.771,119.536 49.772,119.537 49.77,119.533 		"/>
		<polygon fill="#654E44" points="47.272,114.24 47.269,114.233 47.268,114.231 		"/>
		<polygon fill="#654E44" points="47.06,113.404 47.059,113.401 47.058,113.4 		"/>
		<polygon fill="#654E44" points="50.254,120.195 50.261,120.203 50.252,120.192 50.247,120.186 		"/>
		<path fill="#132034" d="M138.745,44.121c-0.913-1.015-1.968-1.78-3.116-2.346c-0.212-0.078-0.424-0.156-0.642-0.219
			c-0.107-0.071-0.215-0.138-0.326-0.203c-1.014-0.388-2.088-0.642-3.192-0.784c-5.477-0.704-11.713,1.289-15.278,2.705
			c-0.195,0.082-0.393,0.163-0.592,0.248c-0.3,0.128-0.602,0.258-0.908,0.393c-0.514,0.226-1.034,0.463-1.566,0.711
			c-0.077,0.036-0.154,0.072-0.231,0.109l-0.968-1.124l-0.437-0.508l-0.403-0.469l-0.174-0.203l-3.675-4.268l-0.32-0.371
			l-0.395-0.458l-0.071,0.016l-1.039,0.235l-1.201,0.272c-0.664-0.308-1.452-0.528-2.366-0.641c-1.828-0.23-4.149-0.019-6.794,0.664
			c-2.645,0.679-5.61,1.821-8.755,3.387c-6.29,3.13-13.292,7.954-20.03,14.101c-2.351,2.144-4.544,4.334-6.559,6.532
			c-1.958,2.131-3.748,4.269-5.355,6.378c-3.262,4.282-5.763,8.446-7.36,12.161c-1.066,2.476-1.726,4.75-1.967,6.696
			c-0.178,1.415-0.131,2.653,0.106,3.675c0.077,0.331,0.179,0.631,0.293,0.919c0.238,0.604,0.552,1.125,0.956,1.571l4.077,4.271
			l0.437,0.457l0.029-0.031c0.124-0.144,0.252-0.287,0.381-0.428l0.035-0.037c0.047-0.05,0.096-0.098,0.143-0.147
			c0.122-0.128,0.246-0.256,0.372-0.38c0.078-0.077,0.158-0.151,0.238-0.227c0.077-0.073,0.153-0.149,0.232-0.221
			c0.036-0.032,0.072-0.062,0.109-0.095c0.083-0.075,0.169-0.149,0.255-0.223c0.119-0.103,0.239-0.205,0.362-0.306
			c0.072-0.058,0.144-0.116,0.217-0.175l0.032-0.025c0.129-0.102,0.261-0.201,0.392-0.299c0.083-0.062,0.166-0.123,0.25-0.184
			c0.136-0.097,0.275-0.192,0.414-0.287c0.084-0.056,0.167-0.112,0.252-0.167c0.143-0.093,0.289-0.184,0.435-0.273
			c0.085-0.051,0.168-0.103,0.253-0.152c0.153-0.09,0.308-0.175,0.463-0.26c0.083-0.044,0.164-0.091,0.247-0.134l0.093-0.049
			l0.014-0.008c0.131-0.068,0.265-0.13,0.399-0.194c0.075-0.036,0.147-0.074,0.223-0.109c0.111-0.053,0.226-0.101,0.339-0.151
			c0.099-0.043,0.196-0.087,0.296-0.128l0.111-0.048c0.252-0.103,0.505-0.2,0.762-0.291c0.081-0.029,0.165-0.054,0.246-0.082
			c0.088-0.029,0.176-0.059,0.266-0.087l0.104-0.036c0.053-0.016,0.107-0.034,0.159-0.05c0.11-0.033,0.22-0.061,0.329-0.093
			l0.081-0.023c0.127-0.036,0.254-0.071,0.382-0.103c0.119-0.031,0.24-0.057,0.36-0.084c0.149-0.035,0.298-0.069,0.448-0.099
			c0.062-0.012,0.124-0.026,0.187-0.038c0.063-0.012,0.128-0.021,0.191-0.032c0.147-0.027,0.295-0.052,0.442-0.074
			c0.131-0.02,0.261-0.037,0.392-0.055c0.106-0.013,0.209-0.028,0.314-0.039c0.043-0.004,0.085-0.008,0.128-0.011
			c0.048-0.005,0.095-0.013,0.143-0.017l0.079-0.004c0.523-0.021,1.094-0.017,1.72,0.03l0.096,0.006
			c0.631,0.052,1.314,0.152,2.032,0.304c0.172,0.037,0.342,0.072,0.519,0.115c0.037-0.068,0.074-0.137,0.111-0.204
			c0.38-0.681,0.764-1.346,1.152-1.998c2.27-3.806,4.705-7.133,7.191-10.034c0.848-0.991,1.703-1.934,2.558-2.828
			c3.565-3.723,7.151-6.622,10.429-8.86c0.728-0.497,1.442-0.962,2.136-1.396c0.946-0.59,1.857-1.125,2.724-1.604
			c0.705-0.391,1.382-0.747,2.024-1.07c1.071-0.539,2.045-0.985,2.903-1.353c0.265-0.113,0.52-0.22,0.762-0.318
			c0.374-0.152,0.72-0.288,1.034-0.406c-0.27-0.028-0.545-0.05-0.825-0.065c-0.261-0.014-0.527-0.019-0.795-0.019
			c-0.068-0.001-0.134,0.001-0.202,0.001c-0.27,0.003-0.544,0.01-0.821,0.027c-0.525,0.032-1.062,0.087-1.611,0.173
			c-0.184,0.029-0.368,0.061-0.555,0.098c1.365-0.706,2.711-1.236,4.01-1.635c0.863-0.265,1.707-0.474,2.517-0.631
			c1.117-0.216,2.173-0.341,3.146-0.405c0.653-0.042,1.268-0.057,1.837-0.052c0.573,0.005,1.1,0.03,1.574,0.066
			c1.656,0.124,2.653,0.377,2.653,0.377c-0.235-0.331-0.531-0.619-0.852-0.871c-0.586-0.454-1.261-0.779-1.853-1.01
			c-0.233-0.091-0.455-0.169-0.65-0.23c-0.155-0.049-0.299-0.091-0.419-0.123c0.279-0.048,0.555-0.088,0.826-0.125
			c0.289-0.039,0.574-0.073,0.854-0.099c2.386-0.223,4.472-0.018,6.04,0.273c1.89,0.35,3.029,0.825,3.029,0.825
			c-0.269-0.525-0.669-0.974-1.106-1.352c-0.319-0.275-0.655-0.514-0.977-0.712c0.633,0.146,1.235,0.31,1.808,0.484
			c1.512,0.462,2.797,0.999,3.808,1.486c0.328,0.158,0.627,0.31,0.896,0.454c0.077,0.041,0.147,0.079,0.218,0.119
			c0.925,0.505,1.438,0.868,1.438,0.868c-0.155-0.545-0.469-1.059-0.836-1.52c-0.092-0.115-0.186-0.23-0.281-0.338l0.044,0.02
			c0.034,0.011,0.107,0.034,0.207,0.068c0.074,0.025,0.163,0.056,0.269,0.094c0.403,0.146,1.019,0.392,1.742,0.752
			c0.035,0.017,0.07,0.035,0.106,0.053c0.098,0.05,0.198,0.102,0.299,0.155c0.249,0.131,0.505,0.276,0.768,0.433
			c0.244,0.146,0.493,0.301,0.744,0.47c0.129,0.087,0.258,0.177,0.388,0.269c0.276,0.198,0.551,0.41,0.823,0.638
			c0.278,0.233,0.553,0.482,0.818,0.746c0.052,0.052,0.106,0.104,0.158,0.158c0.194,0.199,0.381,0.409,0.561,0.627
			c0.343,0.41,0.661,0.853,0.943,1.33c0.338,0.572,0.627,1.189,0.842,1.861c0.012,0.037,0.022,0.077,0.033,0.115
			c0.156-0.168,0.431-0.469,0.789-0.881C135.262,62.009,144.025,50.9,138.745,44.121z"/>
		<path fill="#8F694C" d="M151.84,127.119l0.002-0.001c0,0,0.103-0.769-0.304-1.457l-0.009-0.019
			c-0.024-0.041-0.049-0.078-0.075-0.115l-0.027-0.04c-0.044-0.06-0.099-0.118-0.154-0.176c-0.1-0.105-0.216-0.203-0.354-0.29
			c-0.072-0.047-0.15-0.091-0.234-0.132c-0.231-0.11-0.507-0.194-0.836-0.242c-0.24-0.035-0.514-0.045-0.813-0.036
			c-0.12,0.004-0.24,0.007-0.37,0.019l-0.059,0.003c0,0,0.009,0.032,0.022,0.079c0.014,0.05,0.033,0.122,0.058,0.218
			c0.009,0.037,0.019,0.076,0.03,0.119c0.042,0.17,0.094,0.386,0.145,0.631c0,0-0.015,0.05-0.053,0.139l-0.02,0.047
			c-0.15,0.347-0.556,1.15-1.462,2.194c-0.154,0.178-0.325,0.364-0.508,0.555c-2.527,2.611-7.995,6.328-19.5,8.408
			c-3.904,0.551-7.504,0.581-10.578,0.199c-4.546-0.565-7.952-2.018-9.537-3.971c-0.138-0.168-0.263-0.34-0.383-0.515
			c-0.089-0.129-0.174-0.259-0.253-0.391c-0.029-0.048-0.054-0.098-0.082-0.147c-0.681-1.204-0.978-2.516-0.961-3.787
			c0.022-1.543,0.503-3.02,1.318-4.155c0.661-0.921,1.54-1.616,2.568-1.937c0.504-0.157,1.043-0.228,1.609-0.189
			c0.114,0.008,0.265,0.024,0.454,0.047c0.378,0.047,0.906,0.122,1.553,0.205c0.073,0.009,0.14,0.017,0.216,0.027
			c2.159,0.268,5.597,0.593,9.755,0.339c7.565-0.461,17.521-2.841,26.562-10.993l0.025-0.032v-0.001v-0.013
			c0.031-0.683-0.061-1.916-0.923-2.875c-0.151-0.168-0.327-0.327-0.527-0.474c-0.114-0.084-0.233-0.164-0.366-0.239
			c-0.133-0.074-0.254-0.148-0.372-0.223c-0.16-0.1-0.311-0.2-0.445-0.3l-0.02-0.029c-0.061-0.096-0.126-0.188-0.188-0.284
			c-2.345-3.551-5.576-5.613-6.864-6.558c-0.608-0.447-0.995-0.65-0.995-0.65c-2.789-1.7-3.199-2.263-2.938-6.878
			c0.094-1.662,0.273-3.847,0.459-6.808c0.025-0.385,0.037-0.751,0.043-1.111c0.001-0.086,0.003-0.17,0.003-0.254
			c0.003-0.34-0.001-0.672-0.014-0.991l-0.003-0.091l-0.008-0.098c-0.014-0.251-0.032-0.494-0.052-0.731
			c-0.01-0.105-0.02-0.209-0.031-0.311c-0.028-0.253-0.059-0.499-0.099-0.737c-0.02-0.121-0.043-0.238-0.066-0.356
			c-0.025-0.133-0.052-0.263-0.079-0.39c-0.028-0.125-0.055-0.252-0.086-0.372l-0.001-0.001l0.001-0.001v0.001
			c-0.037-0.149-0.081-0.29-0.122-0.431c-0.015-0.051-0.027-0.105-0.044-0.155c-0.016-0.048-0.033-0.091-0.047-0.139l-0.016-0.047
			l-0.047-0.135l-0.002-0.009c-0.038-0.109-0.079-0.215-0.118-0.319l-0.013-0.035l-0.04-0.098l-0.048-0.121l-0.011-0.023v-0.001
			v-0.002c-0.084-0.196-0.172-0.386-0.264-0.563l-0.074-0.131c-0.106-0.175-0.214-0.338-0.325-0.496l-0.044-0.066l-0.055-0.074
			c-0.079-0.109-0.159-0.215-0.239-0.315l-0.109-0.137c-0.107-0.127-0.214-0.25-0.321-0.364v-0.001l-0.003-0.018l-0.003-0.022
			l-0.006-0.031l-0.008-0.044l-0.007-0.044l-0.014-0.071l-0.007-0.043l-0.02-0.1l-0.007-0.036c-0.038-0.189-0.091-0.435-0.163-0.726
			l-0.004-0.021c-0.019-0.071-0.037-0.144-0.057-0.221l-0.008-0.029c-0.021-0.079-0.042-0.16-0.066-0.244l-0.003-0.005
			c-0.055-0.195-0.118-0.407-0.188-0.625c-0.022-0.071-0.048-0.145-0.074-0.218c-0.05-0.153-0.103-0.306-0.162-0.466
			c-0.034-0.091-0.07-0.183-0.107-0.276c-0.056-0.149-0.116-0.296-0.182-0.449c-0.041-0.1-0.088-0.198-0.131-0.299
			c-0.069-0.15-0.139-0.299-0.213-0.449c-0.05-0.103-0.101-0.204-0.155-0.306c-0.081-0.153-0.167-0.303-0.255-0.454
			c-0.057-0.097-0.113-0.194-0.172-0.291c-0.102-0.162-0.211-0.321-0.322-0.48c-0.056-0.078-0.109-0.16-0.167-0.239
			c-0.051-0.069-0.11-0.131-0.163-0.198c-0.127-0.162-0.253-0.325-0.393-0.478l-0.017-0.017l-0.079-0.076
			c-0.18-0.192-0.368-0.38-0.57-0.553l-0.037-0.031c-0.089-0.075-0.183-0.148-0.275-0.219l-0.01-0.008l-0.034-0.025
			c-0.08-0.06-0.164-0.118-0.248-0.175l-0.044-0.031l0.018,0.015c-0.089-0.066-0.25-0.15-0.461-0.245
			c-0.074-0.032-0.155-0.067-0.242-0.102c-0.435-0.174-1.024-0.372-1.721-0.558c-0.043-0.012-0.09-0.023-0.132-0.033
			c-0.579-0.15-1.223-0.291-1.906-0.399c-0.23-0.037-0.463-0.07-0.7-0.099c-0.111-0.014-0.226-0.02-0.338-0.032
			c-0.045-0.005-0.092-0.008-0.137-0.013c-0.537-0.051-1.081-0.087-1.629-0.082l-0.033,0.001c-0.705,0.007-1.412,0.065-2.085,0.199
			c0.158-0.263,0.586-0.553,1.015-0.795c0.535-0.302,1.071-0.527,1.071-0.527c-0.306,0.023-0.619,0.066-0.931,0.116
			c-0.101,0.017-0.202,0.031-0.304,0.049c-0.066,0.012-0.131,0.025-0.196,0.037l-0.057,0.012c-0.055,0.011-0.109,0.023-0.163,0.035
			c-1.573,0.335-3.086,0.901-3.928,1.245c-0.119,0.048-0.224,0.092-0.316,0.131l-0.053,0.022c-0.084,0.01-0.17,0.023-0.254,0.033
			l0.002-0.002c0.621-1.147,1.536-1.766,2.234-2.092c0.121-0.057,0.238-0.109,0.343-0.149c0.039-0.015,0.072-0.025,0.108-0.038
			c0.101-0.035,0.186-0.063,0.26-0.085c0.165-0.048,0.272-0.069,0.272-0.069c-0.074,0.002-0.145,0.012-0.218,0.016
			c-0.062,0.004-0.123,0.009-0.184,0.014c-0.091,0.007-0.183,0.012-0.272,0.02c-0.053,0.006-0.11,0.007-0.163,0.012
			c-1.739,0.188-3.286,0.778-4.611,1.51c-0.914,0.505-1.726,1.075-2.408,1.638c-0.183,0.038-0.369,0.077-0.558,0.117
			c-1.901,0.406-4.073,0.928-6.356,1.629c-0.844,0.259-1.702,0.542-2.568,0.852c-0.674,0.242-1.354,0.506-2.035,0.782
			c-0.487,0.198-0.975,0.406-1.462,0.624c-3.506,1.565-6.96,3.643-9.863,6.43c-0.105,0.101-0.214,0.195-0.317,0.297
			c-0.253,0.251-0.496,0.515-0.739,0.777c-0.1,0.107-0.204,0.208-0.302,0.317c-0.122,0.136-0.236,0.282-0.355,0.42
			c-0.541,0.63-1.062,1.283-1.543,1.978c-0.359,0.516-0.698,1.05-1.019,1.604l-0.04,0.066c-0.665,1.154-1.245,2.39-1.727,3.714
			c-0.241,0.663-0.457,1.347-0.646,2.054c-0.049,0.187-0.099,0.375-0.145,0.565l-0.026,0.099c-0.184,0.768-0.331,1.565-0.449,2.386
			c-0.023,0.162-0.048,0.322-0.07,0.485c-0.051,0.41-0.092,0.828-0.126,1.251c-0.032,0.387-0.055,0.779-0.073,1.178l-0.004,0.091
			c-0.008,0.194-0.019,0.388-0.023,0.586c-0.004,0.225-0.003,0.455-0.003,0.685c-0.001,0.053-0.001,0.106-0.001,0.161
			c0.001,0.448,0.009,0.9,0.029,1.361l0.005,0.074c0.02,0.458,0.052,0.926,0.092,1.398c0.017,0.196,0.034,0.393,0.053,0.591
			c0.005,0.048,0.008,0.097,0.013,0.146c0.011,0.11,0.025,0.222,0.036,0.332c0.058,0.522,0.128,1.053,0.21,1.591
			c0.022,0.149,0.042,0.299,0.066,0.449c0.076,0.471,0.158,0.946,0.251,1.43c0,0-0.084-0.62-0.032-1.532
			c0.013-0.21,0.033-0.434,0.061-0.673c0.065-0.517,0.176-1.089,0.364-1.677c0.046-0.144,0.099-0.289,0.154-0.435
			c0.023-0.064,0.052-0.126,0.077-0.19c0.111-0.27,0.237-0.541,0.388-0.808c0.035,0.191,0.071,0.38,0.11,0.572l0.012,0.062
			l-0.001,0.087c-0.001,0.118-0.003,0.245-0.004,0.38c-0.002,0.291-0.002,0.619,0.001,0.977c0.004,0.359,0.011,0.744,0.024,1.153
			c0.052,1.715,0.2,3.785,0.57,5.549c0,0,0.07-3.207,0.613-3.57c0,0,0.949,5.939,1.83,8.181c0.114,0.29,0.228,0.521,0.337,0.666
			l-0.023-0.589l-0.125-3.301c0,0,0.006-0.123,0.018-0.339c0.66,1.353,1.412,2.743,2.26,4.171c0.236,0.395,0.476,0.792,0.726,1.193
			c-1.632,1.435-3.141,3.466-4.224,5.894c-0.173,0.388-0.335,0.786-0.485,1.193c-0.085,0.232-0.166,0.469-0.243,0.707
			c-0.025,0.075-0.048,0.15-0.071,0.226c-0.052,0.168-0.103,0.335-0.151,0.506c-0.025,0.087-0.048,0.174-0.071,0.262
			c-0.045,0.17-0.089,0.341-0.129,0.514c-0.02,0.081-0.04,0.161-0.057,0.243c-0.056,0.247-0.109,0.496-0.155,0.748l-0.004,0.023
			c-0.045,0.253-0.086,0.508-0.121,0.765c-0.012,0.083-0.022,0.166-0.032,0.249c-0.024,0.183-0.044,0.367-0.062,0.552
			c-0.01,0.094-0.018,0.187-0.026,0.282c-0.016,0.186-0.028,0.374-0.037,0.562c-0.005,0.085-0.01,0.17-0.013,0.255
			c-0.011,0.271-0.018,0.544-0.017,0.819l0.001,0.036c0,0.211,0.006,0.423,0.014,0.635c0.009,0.215,0.022,0.429,0.038,0.645
			l0.006,0.087l0.003,0.054c0.021,0.262,0.048,0.525,0.081,0.79c0.01,0.083,0.025,0.168,0.036,0.252
			c0.025,0.181,0.049,0.363,0.08,0.545c0.016,0.101,0.036,0.203,0.054,0.304c0.031,0.167,0.062,0.334,0.098,0.501
			c0.023,0.108,0.047,0.215,0.071,0.323c0.037,0.163,0.076,0.327,0.118,0.49c0.028,0.109,0.056,0.22,0.087,0.33
			c0.045,0.164,0.092,0.329,0.142,0.494c0.033,0.109,0.065,0.218,0.1,0.326c0.055,0.171,0.113,0.342,0.173,0.513
			c0.036,0.103,0.07,0.205,0.108,0.308c0.07,0.189,0.144,0.379,0.221,0.569c0.034,0.085,0.065,0.169,0.101,0.255
			c0.229,0.55,0.485,1.102,0.772,1.655c0.043,0.081,0.09,0.163,0.132,0.246c0.104,0.193,0.209,0.388,0.32,0.581
			c0.058,0.101,0.118,0.202,0.18,0.304c0.104,0.175,0.208,0.35,0.319,0.525c0.067,0.109,0.138,0.217,0.208,0.326
			c0.11,0.168,0.222,0.336,0.336,0.504c0.077,0.112,0.154,0.222,0.232,0.334c0.118,0.167,0.24,0.334,0.366,0.5
			c0.081,0.111,0.163,0.22,0.247,0.33c0.133,0.171,0.268,0.342,0.408,0.512c0.083,0.105,0.166,0.209,0.252,0.313
			c0.155,0.186,0.318,0.372,0.481,0.557c0.077,0.088,0.15,0.175,0.228,0.262c0.246,0.272,0.497,0.545,0.76,0.815l-0.001-0.001
			c-0.002-0.002-0.153-0.221-0.359-0.604l-0.007-0.013c-0.038-0.071-0.078-0.15-0.12-0.233l-0.013-0.024
			c-0.043-0.087-0.088-0.18-0.133-0.278l-0.009-0.017c-0.047-0.104-0.097-0.215-0.145-0.332c-0.387-0.93-0.763-2.221-0.714-3.661
			c0.149,0.2,0.302,0.393,0.454,0.59c0.176,0.359,0.401,0.804,0.662,1.304c0.088,0.166,0.18,0.339,0.274,0.516
			c0.384,0.709,0.83,1.496,1.315,2.284c0.583,0.944,1.224,1.89,1.887,2.706l-0.001-0.001c-0.003-0.005-0.771-1.608-1.028-2.66
			c-0.072-0.296-0.107-0.55-0.069-0.709c0.062,0.063,0.124,0.127,0.186,0.191c0.062,0.064,0.124,0.127,0.187,0.191
			c0.122,0.163,0.277,0.368,0.45,0.596l0.087,0.114c0.086,0.113,0.175,0.23,0.27,0.355l0.005,0.007
			c0.11,0.144,0.226,0.293,0.345,0.447c1.08,1.389,2.518,3.164,3.543,4.139c0.342,0.325,0.637,0.562,0.859,0.665l-1.479-2.65
			c3.348,2.724,17.162,6.222,30.771,2.318c1.643-0.47,3.284-1.051,4.9-1.754c0.977-0.423,1.944-0.887,2.901-1.402l0.139-0.077
			c0.67-0.366,1.334-0.759,1.993-1.174l0.015-0.009c0.495-0.312,0.986-0.638,1.471-0.976c0.813-0.573,1.618-1.176,2.402-1.832
			l0.002-0.001l0.003-0.003c0.045-0.039,0.092-0.078,0.139-0.118c0.777-0.679,1.506-1.378,2.181-2.09
			c0.893-0.939,1.695-1.899,2.421-2.862l0.053-0.07c0.178-0.237,0.351-0.474,0.52-0.707l0.047-0.069
			c0.055-0.08,0.104-0.156,0.158-0.236c0.234-0.337,0.466-0.675,0.683-1.011c0.052-0.08,0.106-0.162,0.158-0.243
			c0.113-0.178,0.221-0.356,0.33-0.531c0.082-0.138,0.166-0.275,0.245-0.411c0.088-0.149,0.177-0.298,0.263-0.445
			c0.152-0.268,0.301-0.535,0.443-0.799c0.056-0.105,0.11-0.207,0.164-0.311c0.109-0.206,0.215-0.409,0.316-0.611
			c0.047-0.094,0.095-0.188,0.14-0.282l0.041-0.088c0.126-0.254,0.247-0.507,0.363-0.755l0.022-0.053
			c0.438-0.408,0.778-0.797,1.052-1.169c0.04-0.052,0.081-0.106,0.117-0.158C151.631,128.588,151.829,127.814,151.84,127.119z"/>
		<path fill="#8F694C" d="M70.541,117.28c-0.012-0.062-0.023-0.123-0.034-0.184l0.011-0.004c-0.159-0.876-0.28-1.775-0.366-2.695
			c-0.006-0.066-0.015-0.129-0.022-0.194c-0.152,0.047-0.323,0.248-0.494,0.522c-0.064,0.102-0.127,0.215-0.19,0.333
			c-0.46,0.864-0.874,2.062-0.874,2.062c0.033-0.401,0.076-0.815,0.125-1.233c0.006-0.048,0.013-0.096,0.019-0.145
			c0.051-0.425,0.11-0.853,0.174-1.279c0.007-0.051,0.015-0.103,0.023-0.153c0.074-0.48,0.151-0.957,0.232-1.417
			c0.01-0.06,0.02-0.118,0.031-0.178l0.006-0.03c0.01-0.053,0.019-0.107,0.029-0.16c0.014-0.079,0.028-0.158,0.042-0.237
			c0.066-0.365,0.134-0.717,0.2-1.052c0.06-0.302,0.118-0.588,0.175-0.857l0.018-0.087c0.008-0.042,0.017-0.081,0.026-0.121
			c0.008-0.039,0.017-0.08,0.025-0.121l0.003-0.014c0.015-0.067,0.03-0.137,0.043-0.2l0.004-0.017
			c0.013-0.063,0.025-0.117,0.038-0.176c0.021-0.092,0.04-0.187,0.06-0.274l0.005-0.024c0.016-0.07,0.031-0.142,0.045-0.206
			c0.021-0.092,0.041-0.177,0.058-0.257l0.001-0.002l0.001-0.002c0.01-0.046,0.02-0.086,0.03-0.128l0.002-0.008
			c0.009-0.038,0.017-0.078,0.026-0.112c0.02-0.085,0.037-0.162,0.051-0.221l0.013-0.053l0.005-0.019l0.015-0.062l0.01-0.043
			l0.002-0.006l-0.007,0.005l-0.093,0.084c-0.082,0.073-0.166,0.144-0.243,0.225l-0.084,0.093c-0.09,0.101-0.178,0.207-0.26,0.32
			l-0.043,0.055c-0.102,0.142-0.196,0.29-0.286,0.441v0l-0.011,0.02l0,0.001l-0.037,0.067c-0.021,0.037-0.04,0.075-0.06,0.112
			c-0.052,0.095-0.106,0.187-0.152,0.282l-0.002,0.003l-0.001,0.003l-0.003,0.008l-0.018,0.036l-0.017,0.036
			c-0.073,0.151-0.139,0.301-0.201,0.449c-0.176,0.416-0.312,0.813-0.413,1.145c-0.036,0.117-0.069,0.229-0.096,0.328
			c-0.059,0.214-0.101,0.381-0.119,0.463l-0.001,0.007l-0.013,0.055v-0.001v0.001l0.005-0.064c0.007-0.127,0.022-0.254,0.032-0.38
			c0.02-0.265,0.037-0.532,0.066-0.796c0.023-0.222,0.057-0.44,0.089-0.66c0.01-0.069,0.021-0.138,0.031-0.206
			c0.014-0.102,0.028-0.203,0.044-0.304c0.015-0.095,0.036-0.187,0.053-0.28l0.001-0.007v-0.001l0.02-0.104l0.006-0.028
			c0.021-0.113,0.042-0.228,0.064-0.342c0.008-0.044,0.016-0.088,0.025-0.132l0.016-0.078l0.003-0.014
			c0.008-0.037,0.016-0.075,0.024-0.111c0.009-0.046,0.022-0.091,0.032-0.135c0.038-0.166,0.078-0.33,0.116-0.493l0.007-0.028
			c0.029-0.122,0.055-0.245,0.087-0.365l0.001-0.005l0.003-0.008l0.01-0.035c0.064-0.248,0.135-0.49,0.206-0.734l0.019-0.067
			l0.019-0.067c0.014-0.045,0.025-0.093,0.039-0.138c0.118-0.396,0.244-0.786,0.377-1.168l0.017-0.048
			c0.114-0.324,0.231-0.643,0.352-0.958l0.014-0.036c0.055-0.139,0.111-0.271,0.166-0.408l0.009-0.02
			c0.083-0.204,0.165-0.409,0.25-0.607l0-0.002v-0.001l0.002-0.003l0.01-0.025c0.023-0.049,0.075-0.17,0.157-0.346l0.002-0.003
			l0.011-0.024v-0.001c0.032-0.07,0.062-0.137,0.093-0.208c0.05-0.113,0.101-0.224,0.15-0.334l0.045-0.097l0.001-0.004l0.862-1.55
			c0.036-0.066,0.071-0.13,0.106-0.195l0.018-0.032l0.044-0.079c0.094-0.172,0.188-0.345,0.28-0.513
			c0.138-0.249,0.271-0.488,0.395-0.711c0.253-0.456,0.47-0.842,0.601-1.075c0.073-0.129,0.121-0.215,0.135-0.241l0.006-0.012
			h-0.001l-0.003-0.002l-0.008-0.006c-0.033-0.023-0.295-0.203-0.726-0.464c-0.491-0.296-1.206-0.698-2.075-1.101
			c-0.278-0.13-0.571-0.258-0.878-0.384c-0.368-0.151-0.754-0.297-1.155-0.433c-0.104-0.034-0.212-0.062-0.317-0.095
			c-0.336-0.106-0.682-0.201-1.035-0.286l-0.02-0.004c-0.243-0.058-0.483-0.118-0.732-0.165c-0.195-0.036-0.391-0.073-0.589-0.1
			c-0.095-0.013-0.192-0.021-0.288-0.03c-0.095-0.009-0.189-0.019-0.283-0.029c-0.267-0.024-0.536-0.036-0.804-0.042
			c-0.13-0.003-0.26-0.007-0.391-0.004c-0.584,0.013-1.157,0.065-1.721,0.145l-0.103,0.016c-1.015,0.152-1.995,0.408-2.927,0.76
			c-0.317,0.119-0.629,0.248-0.935,0.389c-0.087,0.04-0.174,0.083-0.26,0.125c-0.105,0.051-0.212,0.101-0.315,0.154
			c-0.925,0.477-1.79,1.053-2.583,1.71l-0.029,0.024c-0.685,0.568-1.314,1.197-1.882,1.881c-0.163,0.195-0.32,0.395-0.472,0.598
			c-0.18,0.24-0.353,0.486-0.518,0.737c-0.311,0.475-0.594,0.97-0.849,1.482c-0.09,0.18-0.178,0.361-0.259,0.545
			c-0.015,0.035-0.029,0.071-0.043,0.106c-0.524,1.199-0.891,2.482-1.072,3.821c-0.036,0.262-0.065,0.527-0.087,0.795l-0.007,0.1
			c-0.016,0.212-0.026,0.424-0.033,0.638c-0.008,0.261-0.009,0.525-0.003,0.789c0.001,0.043,0.005,0.083,0.006,0.125
			c0.007,0.206,0.015,0.409,0.03,0.613l0.011,0.107c0.004,0.047,0.009,0.095,0.013,0.141c0.014,0.161,0.029,0.321,0.047,0.478
			l0.006,0.036l0,0.01l0.001,0.001c0.011,0.079,0.025,0.159,0.036,0.239c0.021,0.143,0.04,0.287,0.064,0.428
			c0.019,0.104,0.041,0.204,0.061,0.306c0.027,0.132,0.05,0.266,0.081,0.397c0.024,0.108,0.053,0.214,0.08,0.319l0.018,0.075
			l0.029,0.11l0.022,0.084l0.027,0.102c0.031,0.11,0.066,0.219,0.099,0.328c0.036,0.115,0.07,0.232,0.108,0.346
			c0.037,0.112,0.078,0.222,0.118,0.333l0.033,0.089c0.028,0.079,0.055,0.159,0.087,0.239c0.043,0.112,0.092,0.224,0.138,0.336
			c0.043,0.102,0.085,0.205,0.129,0.307c0.026,0.058,0.053,0.114,0.08,0.17c0.028,0.056,0.052,0.113,0.079,0.169
			c0.045,0.097,0.091,0.192,0.139,0.288c0.058,0.115,0.119,0.229,0.181,0.342c0.048,0.089,0.095,0.179,0.144,0.267
			c0.065,0.116,0.135,0.231,0.204,0.347c0.049,0.08,0.097,0.162,0.147,0.244c0.074,0.117,0.151,0.231,0.228,0.346
			c0.05,0.076,0.1,0.151,0.151,0.225c0.082,0.116,0.167,0.232,0.252,0.347c0.05,0.068,0.101,0.137,0.152,0.203
			c0.09,0.118,0.184,0.234,0.278,0.348c0.048,0.061,0.098,0.123,0.15,0.183c0.099,0.117,0.2,0.232,0.304,0.347
			c0.048,0.054,0.097,0.108,0.147,0.161c0.107,0.117,0.218,0.232,0.331,0.343c0.048,0.047,0.095,0.096,0.143,0.143
			c0.116,0.114,0.238,0.227,0.358,0.338c0.046,0.041,0.091,0.082,0.137,0.124c0.126,0.113,0.256,0.223,0.387,0.332
			c0.043,0.036,0.085,0.072,0.128,0.107c0.136,0.111,0.275,0.219,0.415,0.325c0.039,0.029,0.081,0.06,0.12,0.09
			c0.146,0.107,0.294,0.211,0.443,0.313l0.111,0.075c0.154,0.104,0.311,0.205,0.47,0.302l0.101,0.061
			c0.164,0.101,0.332,0.194,0.501,0.288l0.087,0.049c0.175,0.094,0.351,0.183,0.529,0.271l0.076,0.036
			c0.184,0.089,0.368,0.173,0.556,0.254l0.066,0.029c0.192,0.08,0.385,0.156,0.58,0.231l0.054,0.019
			c0.201,0.074,0.402,0.144,0.607,0.209l0.041,0.014c0.1,0.031,0.201,0.058,0.302,0.087c0.11,0.032,0.219,0.066,0.33,0.096
			l0.031,0.008c0.217,0.057,0.435,0.108,0.655,0.155l0.019,0.005l0.004,0.001c0.222,0.047,0.447,0.089,0.673,0.125l0.011,0.003
			c0.695,0.112,1.406,0.174,2.13,0.183l0,0c0.172,0.003,0.345,0.005,0.517,0.003c0.232-0.006,0.47-0.021,0.708-0.04
			c0.326-0.026,0.656-0.065,0.989-0.115c0.294-0.043,0.586-0.095,0.878-0.156c0.455-0.094,0.904-0.205,1.337-0.331
			c1.298-0.377,2.446-0.88,3.132-1.392c0,0-0.451-1.998-0.833-4.029C70.621,117.724,70.58,117.5,70.541,117.28z"/>
		<polygon fill="#8F694C" points="129.703,69.269 129.705,69.27 129.699,69.266 		"/>
		<path fill="#2D82C1" d="M102.964,42.215l-0.165-2.024l1.013-2.243l0,0l0.401-0.09c-0.664-0.308-1.452-0.528-2.366-0.641
			c-1.828-0.23-4.149-0.019-6.794,0.664c-2.645,0.679-5.61,1.821-8.755,3.387c-6.29,3.13-13.292,7.954-20.03,14.101
			c-2.351,2.144-4.544,4.334-6.559,6.532c-1.958,2.131-3.748,4.269-5.355,6.378c-3.262,4.282-5.763,8.446-7.36,12.161
			c-1.066,2.476-1.726,4.75-1.967,6.696c-0.178,1.415-0.131,2.653,0.106,3.675c0.077,0.331,0.179,0.631,0.293,0.919
			c0.238,0.604,0.552,1.125,0.956,1.571l4.077,4.271l0.437,0.457l0.029-0.031c0.124-0.144,0.252-0.287,0.381-0.428l0.035-0.037
			c0.047-0.05,0.096-0.098,0.143-0.147c0.122-0.128,0.246-0.256,0.372-0.38c0.078-0.077,0.158-0.151,0.238-0.227
			c0.077-0.073,0.153-0.149,0.232-0.221c0.036-0.032,0.072-0.062,0.109-0.095c0.083-0.075,0.169-0.149,0.255-0.223
			c0.119-0.103,0.239-0.205,0.362-0.306c0.072-0.058,0.144-0.116,0.217-0.175l0.032-0.025c0.129-0.102,0.261-0.201,0.392-0.299
			c0.083-0.062,0.166-0.123,0.25-0.184c0.136-0.097,0.275-0.192,0.414-0.287c0.084-0.056,0.167-0.112,0.252-0.167
			c0.143-0.093,0.289-0.184,0.435-0.273c0.085-0.051,0.168-0.103,0.253-0.152c0.153-0.09,0.308-0.175,0.463-0.26
			c0.083-0.044,0.164-0.091,0.247-0.134l0.093-0.049l0.005-0.017c0.976-2.702,2.438-5.635,4.333-8.692
			c2.329-3.754,5.303-7.691,8.836-11.612c2.221-2.467,4.66-4.927,7.293-7.329c3.407-3.106,6.88-5.876,10.306-8.277
			c2.308-1.617,4.591-3.058,6.82-4.321c0.211-0.12,0.423-0.244,0.633-0.36c0.594-0.329,1.182-0.641,1.767-0.942
			c1.273-0.658,2.524-1.255,3.743-1.782l-0.598-0.718l-0.099-0.118l-0.735-0.883l-4.216-5.07l0.038-3.627l-0.046-0.053l2.975-0.887
			L102.964,42.215z"/>
		<path fill="#FBE8CC" d="M151.84,127.119l0.002-0.001c0,0,0.103-0.769-0.304-1.457l-0.009-0.019
			c-0.024-0.041-0.049-0.078-0.075-0.115l-0.027-0.04c-0.044-0.06-0.099-0.118-0.154-0.176c-0.1-0.105-0.216-0.203-0.354-0.29
			c-0.072-0.047-0.15-0.091-0.234-0.132c-0.231-0.11-0.507-0.194-0.836-0.242c-0.24-0.035-0.514-0.045-0.813-0.036
			c-0.12,0.004-0.24,0.007-0.37,0.019l-0.059,0.003c0,0,0.009,0.032,0.022,0.079c0.014,0.05,0.033,0.122,0.058,0.218
			c0.009,0.037,0.019,0.076,0.03,0.119c0.042,0.17,0.094,0.386,0.145,0.631c0,0-0.015,0.05-0.053,0.139l-0.02,0.047
			c-0.15,0.347-0.556,1.15-1.462,2.194c-0.154,0.178-0.325,0.364-0.508,0.555c-2.527,2.611-7.995,6.328-19.5,8.408
			c-3.904,0.551-7.504,0.581-10.578,0.199c-4.546-0.565-7.952-2.018-9.537-3.971c-0.138-0.168-0.263-0.34-0.383-0.515
			c-0.089-0.129-0.174-0.259-0.253-0.391c-0.029-0.048-0.054-0.098-0.082-0.147c-0.681-1.204-0.978-2.516-0.961-3.787
			c0.022-1.543,0.503-3.02,1.318-4.155c0.661-0.921,1.54-1.616,2.568-1.937c0.504-0.157,1.043-0.228,1.609-0.189
			c0.114,0.008,0.265,0.024,0.454,0.047c0.378,0.047,0.906,0.122,1.553,0.205c0.073,0.009,0.14,0.017,0.216,0.027
			c2.159,0.268,5.597,0.593,9.755,0.339c7.565-0.461,17.521-2.841,26.562-10.993l0.025-0.032v-0.001v-0.013
			c0.031-0.683-0.061-1.916-0.923-2.875c-0.151-0.168-0.327-0.327-0.527-0.474c-0.114-0.084-0.233-0.164-0.366-0.239
			c-0.133-0.074-0.254-0.148-0.372-0.223c-0.16-0.1-0.311-0.2-0.445-0.3l-0.02-0.029c-0.061-0.096-0.126-0.188-0.188-0.284
			c-2.345-3.551-5.576-5.613-6.864-6.558c-0.608-0.447-0.995-0.65-0.995-0.65c-2.789-1.7-3.199-2.263-2.938-6.878
			c0.094-1.662,0.273-3.847,0.459-6.808c0.025-0.385,0.037-0.751,0.043-1.111c0.001-0.086,0.003-0.17,0.003-0.254
			c0.003-0.34-0.001-0.672-0.014-0.991l-0.003-0.091l-0.008-0.098c-0.014-0.251-0.032-0.494-0.052-0.731
			c-0.01-0.105-0.02-0.209-0.031-0.311c-0.028-0.253-0.059-0.499-0.099-0.737c-0.02-0.121-0.043-0.238-0.066-0.356
			c-0.025-0.133-0.052-0.263-0.079-0.39c-0.028-0.125-0.055-0.252-0.086-0.372l-0.001-0.001l0.001-0.001v0.001
			c-0.037-0.149-0.081-0.29-0.122-0.431c-0.015-0.051-0.027-0.105-0.044-0.155c-0.016-0.048-0.033-0.091-0.047-0.139l-0.016-0.047
			l-0.047-0.135l-0.002-0.009c-0.038-0.109-0.079-0.215-0.118-0.319l-0.013-0.035l-0.04-0.098l-0.048-0.121l-0.011-0.023v-0.001
			v-0.002c-0.084-0.196-0.172-0.386-0.264-0.563l-0.074-0.131c-0.106-0.175-0.214-0.338-0.325-0.496l-0.044-0.066l-0.055-0.074
			c-0.079-0.109-0.159-0.215-0.239-0.315l-0.109-0.137c-0.107-0.127-0.214-0.25-0.321-0.364l-0.001-0.001
			c-0.132-0.139-0.263-0.27-0.398-0.392c-0.154-0.096-0.305-0.182-0.457-0.257c-0.049-0.026-0.1-0.045-0.15-0.067
			c-0.1-0.047-0.201-0.092-0.302-0.13c-0.058-0.022-0.115-0.04-0.174-0.059c-0.09-0.029-0.182-0.058-0.272-0.082
			c-0.059-0.015-0.12-0.028-0.18-0.039c-0.089-0.019-0.176-0.035-0.263-0.047c-0.06-0.008-0.119-0.015-0.18-0.02
			c-0.087-0.009-0.175-0.013-0.261-0.016c-0.059-0.001-0.117-0.003-0.175-0.001c-0.09,0.001-0.179,0.006-0.267,0.013
			c-0.054,0.004-0.11,0.009-0.164,0.015l-0.119,0.018c-0.054,0.009-0.109,0.016-0.165,0.026c-0.047,0.008-0.096,0.016-0.143,0.026
			c-0.111,0.023-0.22,0.051-0.33,0.082l-0.096,0.025c-0.288,0.086-0.575,0.196-0.859,0.325l-0.095,0.045
			c-0.111,0.051-0.222,0.105-0.333,0.161l-0.127,0.069c-0.101,0.052-0.201,0.108-0.301,0.164l-0.136,0.08
			c-0.099,0.057-0.197,0.115-0.296,0.177l-0.134,0.083c-0.103,0.064-0.206,0.13-0.31,0.197l-0.114,0.075
			c-0.116,0.076-0.234,0.154-0.35,0.233l-0.07,0.047c-0.131,0.09-0.264,0.182-0.398,0.273l-0.005,0.004l-0.021,0.013h0.001
			c-0.248,0.171-0.496,0.345-0.747,0.52c-0.21,0.146-0.424,0.293-0.639,0.439l-0.104,0.071c-0.217,0.146-0.436,0.288-0.656,0.429
			l-0.111,0.07c-0.221,0.137-0.443,0.271-0.667,0.398l-0.117,0.066c-0.225,0.127-0.454,0.245-0.685,0.358l-0.115,0.054
			c-0.233,0.111-0.472,0.215-0.713,0.306l-0.1,0.037c-0.249,0.091-0.501,0.175-0.758,0.242l-0.067,0.016
			c-0.271,0.07-0.543,0.126-0.821,0.163c-0.468,0.064-0.936,0.084-1.406,0.086c-0.766,0.003-1.534-0.059-2.306-0.174
			c-0.258-0.039-0.517-0.084-0.776-0.132c-0.092-0.017-0.184-0.031-0.274-0.049c-0.673-0.131-1.35-0.287-2.031-0.451
			c-0.286-0.068-0.572-0.137-0.859-0.207c-0.462-0.113-0.928-0.221-1.395-0.328c-0.092-0.021-0.182-0.044-0.275-0.065l0.004-0.001
			c-0.066-0.014-0.132-0.028-0.198-0.041c-0.104-0.023-0.207-0.045-0.31-0.068c-0.099-0.02-0.198-0.039-0.297-0.059l-0.051-0.011
			l-0.035-0.006c-0.091-0.018-0.182-0.037-0.273-0.054c-0.212-0.04-0.425-0.077-0.638-0.113c-0.063-0.011-0.127-0.019-0.189-0.029
			c-0.159-0.025-0.317-0.049-0.475-0.071c-0.08-0.011-0.161-0.019-0.24-0.029l-0.018-0.002c-0.138-0.018-0.276-0.034-0.414-0.047
			c-0.092-0.009-0.185-0.017-0.275-0.025c-0.041-0.003-0.083-0.006-0.125-0.009c-0.094-0.007-0.189-0.015-0.284-0.02
			c-0.091-0.006-0.182-0.011-0.273-0.015c-0.146-0.006-0.289-0.009-0.433-0.012c-0.043,0-0.087-0.001-0.13-0.002
			c-0.04-0.001-0.081-0.002-0.121-0.002c-0.179,0.001-0.36,0.004-0.542,0.012c-0.047,0.001-0.097,0.001-0.145,0.004
			c-0.23,0.01-0.462,0.028-0.694,0.052c-0.06,0.006-0.12,0.015-0.182,0.021c-0.15,0.018-0.3,0.038-0.451,0.061l-0.068,0.009
			c-0.082,0.012-0.166,0.028-0.248,0.042c-0.155,0.029-0.308,0.058-0.463,0.092c-0.09,0.02-0.179,0.039-0.267,0.062
			c-0.152,0.037-0.307,0.077-0.461,0.121c-0.087,0.024-0.175,0.048-0.263,0.076c-0.166,0.05-0.332,0.107-0.499,0.166
			c-0.076,0.026-0.151,0.05-0.227,0.079c-0.244,0.09-0.485,0.188-0.731,0.297c-1.917,1.104-3.564,2.61-4.873,4.367
			c-0.436,0.585-0.835,1.199-1.194,1.834c-0.38,0.673-0.709,1.371-0.996,2.088c-0.084,0.209-0.164,0.418-0.24,0.63
			c-0.125,0.357-0.245,0.717-0.346,1.082c-0.011,0.039-0.019,0.079-0.03,0.118c-0.112,0.411-0.209,0.825-0.289,1.243
			c-0.085,0.437-0.149,0.876-0.198,1.317c-0.026,0.238-0.05,0.477-0.066,0.715c-0.041,0.642-0.037,1.287,0.002,1.93
			c0.003,0.058,0.008,0.117,0.012,0.175c0.011,0.165,0.017,0.328,0.035,0.492c0.047,0.458,0.113,0.916,0.204,1.37
			c0.033,0.168,0.078,0.326,0.118,0.488c0.038,0.155,0.072,0.314,0.113,0.465V98.97c0.32,1.16,0.782,2.205,1.331,3.154
			c2.089,3.609,5.523,5.767,8.012,6.925c0.968,0.427,1.978,0.808,3.028,1.143c0,0-0.049,0.031-0.126,0.083
			c-0.186,0.046-0.403,0.104-0.643,0.172c-0.364,0.103-0.784,0.23-1.248,0.387c-0.521,0.175-1.095,0.386-1.701,0.637
			c-1.615,0.669-3.448,1.621-5.073,2.936c-0.203,0.164-0.403,0.334-0.599,0.509c-0.333,0.3-0.651,0.62-0.957,0.955
			c-0.035,0.038-0.072,0.075-0.106,0.113c-0.046,0.051-0.092,0.105-0.137,0.157c-0.115,0.135-0.229,0.273-0.34,0.413
			c-0.044,0.056-0.089,0.113-0.133,0.169c-0.146,0.193-0.288,0.388-0.423,0.591c-0.132,0.199-0.259,0.405-0.38,0.613
			c-0.963,1.681-1.509,3.693-1.341,6.092l0.005-0.025l0.003-0.018c0.004-0.022,0.01-0.052,0.018-0.089l0.005-0.02
			c0.007-0.036,0.018-0.079,0.029-0.127l0.007-0.03c0.013-0.055,0.029-0.117,0.046-0.185l0.012-0.044
			c0.02-0.073,0.041-0.151,0.066-0.237l0.001-0.001c0.024-0.084,0.053-0.174,0.083-0.267l0.019-0.057
			c0.032-0.095,0.066-0.194,0.104-0.297l0.02-0.049c0.035-0.097,0.074-0.196,0.116-0.299l0.02-0.047
			c0.045-0.11,0.096-0.225,0.148-0.341l0.034-0.072c0.056-0.118,0.113-0.239,0.178-0.361v-0.001
			c0.002-0.005,0.005-0.009,0.008-0.014c0.095-0.182,0.202-0.368,0.316-0.554c0.043-0.071,0.084-0.141,0.132-0.212l0.037-0.059
			l0.001-0.002c0.098-0.146,0.2-0.292,0.311-0.436c0.09-0.118,0.185-0.235,0.284-0.352c0.031-0.037,0.064-0.073,0.097-0.109
			c0.079-0.089,0.161-0.177,0.246-0.264c0.035-0.035,0.069-0.071,0.104-0.105c0.116-0.113,0.235-0.225,0.362-0.333l0.01-0.01v0v0
			c0,0-2.185,4.945-1.235,8.865c0,0-0.001-0.012-0.001-0.033v-0.025c-0.001-0.022-0.001-0.047-0.001-0.08c0-0.007,0-0.014,0-0.021
			c0-0.04,0-0.087,0.002-0.143c0,0,0-0.014,0.001-0.022c0-0.058,0.004-0.123,0.007-0.195c0,0,0.001-0.014,0.001-0.021
			c0.004-0.074,0.009-0.155,0.015-0.242c0-0.008,0.001-0.015,0.001-0.022c0.007-0.088,0.015-0.182,0.026-0.28
			c0.001-0.008,0.002-0.016,0.003-0.024c0.01-0.099,0.024-0.201,0.038-0.308c0.001-0.01,0.003-0.019,0.003-0.019
			c0.018-0.123,0.037-0.241,0.059-0.363l0.005-0.029l0.012-0.061v-0.002c0.027-0.137,0.059-0.277,0.095-0.418
			c0.003-0.009,0.005-0.019,0.007-0.029c0.037-0.138,0.077-0.278,0.121-0.419c0.014-0.043,0.028-0.086,0.041-0.129l0.031-0.09
			v-0.001c0.041-0.116,0.087-0.231,0.136-0.347l0.008-0.019l0-0.001c0.068-0.161,0.148-0.317,0.233-0.472
			c0.022-0.041,0.046-0.082,0.07-0.122c0.09-0.153,0.186-0.303,0.294-0.445l0.004-0.007v0.001v-0.001h0.001
			c0,0-0.125,1.217-0.093,2.666c0.006,0.228,0.017,0.462,0.031,0.698c0.009,0.157,0.019,0.315,0.034,0.473
			c0.097-1.557,0.381-3.02,0.795-4.383c-0.414,1.365-0.699,2.827-0.795,4.385v0.001c-0.063,0.994-0.049,2.025,0.054,3.093
			c0.174,1.781,0.597,3.666,1.342,5.65c0,0-0.683-2.281,0.301-4.563c0.089,0.208,0.184,0.416,0.283,0.627
			c0.081,0.677,0.217,1.638,0.416,2.697c0.19,1.763,1.034,7.054,4.628,10.775c0,0-1.359-1.762-1.147-4.057
			c0.142,0.301,0.283,0.573,0.416,0.808c0.615,1.151,1.838,3.294,3.171,4.78c0,0-1.082-2.095-0.83-2.547
			c0,0,3.527,4.386,4.649,4.814l-1.475-2.446l-0.034-0.072c5.126,3.717,12.158,5.096,20.855,2.674
			c1.495-0.417,3.039-0.946,4.631-1.595c0.977-0.423,1.944-0.887,2.901-1.402l0.139-0.077c0.67-0.366,1.334-0.759,1.993-1.174
			l0.015-0.009c0.495-0.312,0.986-0.638,1.471-0.976c0.813-0.573,1.618-1.176,2.402-1.832l0.002-0.001l0.003-0.003
			c0.045-0.039,0.092-0.078,0.139-0.118c0.777-0.679,1.506-1.378,2.181-2.09c0.893-0.939,1.695-1.899,2.421-2.862l0.053-0.07
			c0.178-0.237,0.351-0.474,0.52-0.707l0.047-0.069c0.055-0.08,0.104-0.156,0.158-0.236c0.234-0.337,0.466-0.675,0.683-1.011
			c0.052-0.08,0.106-0.162,0.158-0.243c0.113-0.178,0.221-0.356,0.33-0.531c0.082-0.138,0.166-0.275,0.245-0.411
			c0.088-0.149,0.177-0.298,0.263-0.445c0.152-0.268,0.301-0.535,0.443-0.799c0.056-0.105,0.11-0.207,0.164-0.311
			c0.109-0.206,0.215-0.409,0.316-0.611c0.047-0.094,0.095-0.188,0.14-0.282l0.041-0.088c0.126-0.254,0.247-0.507,0.363-0.755
			l0.022-0.053c0.438-0.408,0.778-0.797,1.052-1.169c0.04-0.052,0.081-0.106,0.117-0.158
			C151.631,128.588,151.829,127.814,151.84,127.119z"/>
		<path fill="#FBE8CC" d="M70.13,114.203c-0.152,0.047-0.323,0.248-0.494,0.522c-0.064,0.102-0.127,0.215-0.19,0.333
			c-0.46,0.864-0.874,2.062-0.874,2.062c0.033-0.401,0.076-0.815,0.125-1.233c0.006-0.048,0.013-0.096,0.019-0.145
			c0.051-0.425,0.11-0.853,0.174-1.279c0.007-0.051,0.015-0.103,0.023-0.153c0.074-0.48,0.151-0.957,0.232-1.417
			c0.01-0.06,0.02-0.118,0.031-0.178l0.006-0.03c0.01-0.053,0.019-0.107,0.029-0.16c0.014-0.079,0.028-0.158,0.042-0.237
			c0.066-0.365,0.134-0.717,0.2-1.052c0.06-0.302,0.118-0.588,0.175-0.857l0.018-0.087c0.008-0.042,0.017-0.081,0.026-0.121
			c0.008-0.039,0.017-0.08,0.025-0.121l0.003-0.014c0.015-0.067,0.03-0.137,0.043-0.2l0.004-0.017
			c0.013-0.063,0.025-0.117,0.038-0.176c0.021-0.092,0.04-0.187,0.06-0.274l0.005-0.024c0.016-0.07,0.031-0.142,0.045-0.206
			c0.021-0.092,0.041-0.177,0.058-0.257l0.001-0.002l0.001-0.002c0.01-0.046,0.02-0.086,0.03-0.128l0.002-0.008
			c0.009-0.038,0.017-0.078,0.026-0.112c0.02-0.085,0.037-0.162,0.051-0.221l0.013-0.053l0.005-0.019l0.015-0.062l0.01-0.043
			l0.002-0.006l-0.007,0.005l-0.093,0.084c-0.082,0.073-0.166,0.144-0.243,0.225l-0.084,0.093c-0.09,0.101-0.178,0.207-0.26,0.32
			l-0.043,0.055c-0.102,0.142-0.196,0.29-0.286,0.441v0l-0.011,0.02l0,0.001l-0.037,0.067c-0.021,0.037-0.04,0.075-0.06,0.112
			c-0.052,0.095-0.106,0.187-0.152,0.282l-0.002,0.003l-0.001,0.003l-0.003,0.008l-0.018,0.036l-0.017,0.036
			c-0.073,0.151-0.139,0.301-0.201,0.449c-0.176,0.416-0.312,0.813-0.413,1.145c-0.036,0.117-0.069,0.229-0.096,0.328
			c-0.059,0.214-0.101,0.381-0.119,0.463l-0.001,0.007l-0.013,0.055v-0.001v0.001l0.005-0.064c0.007-0.127,0.022-0.254,0.032-0.38
			c0.02-0.265,0.037-0.532,0.066-0.796c0.023-0.222,0.057-0.44,0.089-0.66c0.01-0.069,0.021-0.138,0.031-0.206
			c0.014-0.102,0.028-0.203,0.044-0.304c0.015-0.095,0.036-0.187,0.053-0.28l0.001-0.007v-0.001l0.02-0.104l0.006-0.028
			c0.021-0.113,0.042-0.228,0.064-0.342c0.008-0.044,0.016-0.088,0.025-0.132l0.016-0.078l0.003-0.014
			c0.008-0.037,0.016-0.075,0.024-0.111c0.009-0.046,0.022-0.091,0.032-0.135c0.038-0.166,0.078-0.33,0.116-0.493l0.007-0.028
			c0.029-0.122,0.055-0.245,0.087-0.365l0.001-0.005l0.003-0.008l0.01-0.035c0.064-0.248,0.135-0.49,0.206-0.734l0.019-0.067
			l0.019-0.067c0.014-0.045,0.025-0.093,0.039-0.138c0.118-0.396,0.244-0.786,0.377-1.168l0.017-0.048
			c0.114-0.324,0.231-0.643,0.352-0.958l0.014-0.036c0.055-0.139,0.111-0.271,0.166-0.408l0.009-0.02
			c0.083-0.204,0.165-0.409,0.25-0.607l0-0.002v-0.001l0.002-0.003l0.01-0.025c0.023-0.049,0.075-0.17,0.157-0.346l0.002-0.003
			l0.011-0.024v-0.001c0.032-0.07,0.062-0.137,0.093-0.208c0.05-0.113,0.101-0.224,0.15-0.334l0.045-0.097
			c-0.071-0.038-0.145-0.073-0.218-0.109l-0.041-0.021l-0.077-0.039c-0.473-0.226-0.97-0.408-1.485-0.541l-0.082-0.02
			c-0.331-0.082-0.668-0.146-1.012-0.185l0,0c-0.199-0.023-0.4-0.041-0.603-0.049c-0.169-0.007-0.337-0.009-0.508-0.005
			c-0.257,0.005-0.509,0.027-0.758,0.055c-0.079,0.01-0.156,0.024-0.233,0.034c-0.123,0.019-0.245,0.042-0.367,0.065
			c-0.047,0.01-0.098,0.016-0.145,0.027c-0.086,0.018-0.171,0.036-0.256,0.058c-0.167,0.041-0.33,0.087-0.491,0.138
			c-0.075,0.024-0.15,0.043-0.223,0.069c-0.219,0.077-0.434,0.161-0.644,0.254c-0.084,0.037-0.162,0.08-0.243,0.119
			c-0.096,0.047-0.191,0.098-0.286,0.147l-0.098,0.05c-0.104,0.058-0.205,0.119-0.306,0.181c-0.094,0.057-0.188,0.117-0.278,0.18
			c-0.111,0.074-0.22,0.148-0.326,0.225c-0.065,0.05-0.127,0.101-0.192,0.151c-0.172,0.136-0.335,0.282-0.495,0.431
			c-0.083,0.077-0.163,0.156-0.242,0.236c-0.141,0.139-0.278,0.281-0.406,0.43l-0.065,0.075c-0.068,0.081-0.131,0.166-0.194,0.251
			l-0.01,0.012l-0.008,0.011c-0.043,0.057-0.09,0.111-0.132,0.169l-0.016,0.023l-0.017,0.023l-0.001,0.002l-0.001,0.002
			c-0.26,0.363-0.486,0.749-0.684,1.15c-0.029,0.058-0.054,0.116-0.082,0.175c-0.091,0.197-0.175,0.398-0.251,0.603
			c-0.03,0.081-0.063,0.16-0.091,0.242l-0.001,0.001v0.001l-0.001,0.001c-0.069,0.209-0.13,0.42-0.183,0.638l-0.02,0.081
			l-0.019,0.103l-0.002,0.009c-0.036,0.158-0.07,0.315-0.095,0.476c-0.013,0.078-0.021,0.159-0.031,0.239l-0.003,0.023
			c-0.01,0.085-0.019,0.171-0.027,0.257c-0.007,0.064-0.017,0.129-0.022,0.195c-0.019,0.253-0.027,0.507-0.021,0.765
			c0.005,0.199,0.023,0.396,0.041,0.592l0.001,0.011l0.006,0.091c0.011,0.109,0.03,0.216,0.045,0.323
			c0.058,0.392,0.138,0.775,0.251,1.145c0.084,0.283,0.183,0.557,0.296,0.826c0.208,0.493,0.467,0.957,0.763,1.394
			c0.622,0.921,1.421,1.71,2.354,2.312c0.53,0.341,1.102,0.618,1.706,0.83c0.58,0.205,1.185,0.354,1.816,0.423
			c0.142,0.015,0.285,0.026,0.429,0.036c0.215,0.014,0.43,0.023,0.649,0.019c0.202-0.004,0.399-0.03,0.597-0.048
			c0.113-0.011,0.23-0.012,0.342-0.028c0.285-0.04,0.565-0.098,0.841-0.167l0.062-0.013c0.114-0.03,0.221-0.072,0.332-0.106
			c0.347-0.106,0.682-0.233,1.008-0.383l0.071-0.032c0.091-0.039,0.184-0.076,0.272-0.121l0.011-0.004
			c-0.159-0.876-0.28-1.775-0.366-2.695C70.146,114.332,70.137,114.269,70.13,114.203z"/>
		<polygon fill="none" points="49.776,119.542 49.77,119.532 49.77,119.533 49.772,119.537 49.78,119.55 		"/>
		<polygon fill="#4E9DD6" points="104.233,42.864 104.384,42.941 104.382,42.921 		"/>
		<path fill="#FFFFFF" d="M148.718,125.05c-0.011-0.043-0.021-0.082-0.03-0.119c-0.026-0.095-0.044-0.167-0.058-0.218
			c-0.248-0.804-0.561-1.432-0.841-1.879c-0.357-0.578-0.653-0.863-0.653-0.863c0.06-0.204,0.107-0.402,0.149-0.598
			c0.054-0.256,0.097-0.507,0.125-0.749c0.215-1.832-0.275-3.258-0.668-4.063c-0.063-0.129-0.121-0.24-0.176-0.336
			c-0.283,0.201-0.569,0.4-0.855,0.593c-5.432,3.678-11.545,6.037-18.164,7.052c-4.561,0.699-9.36,0.764-14.35,0.157l0.087,0.026
			c0,0-3.007,0.411-3.823,3.296l0.051,0.03l-0.249,1.935c0.088,2.62,1.286,4.26,2.649,5.123c1.417,0.541,3.128,0.953,5.028,1.189
			c3.307,0.411,7.103,0.302,10.978-0.313l0.02-0.003l0.02-0.003c5.153-0.691,12.427-3.442,17.627-6.994
			c1.185-0.809,2.262-1.659,3.182-2.536l0.035-0.034l0.063-0.061C148.811,125.436,148.76,125.22,148.718,125.05z"/>
		<path fill="#F1D1AB" d="M138.886,100.078c-2.789-1.7-3.199-2.263-2.938-6.878c0.094-1.662,0.273-3.847,0.459-6.808
			c0.025-0.385,0.037-0.751,0.043-1.111c0.001-0.086,0.003-0.17,0.003-0.254c0.003-0.34-0.001-0.672-0.014-0.991l-0.003-0.091
			l-0.008-0.098c-0.014-0.251-0.032-0.494-0.052-0.731c-0.01-0.105-0.02-0.209-0.031-0.311c-0.028-0.253-0.059-0.499-0.099-0.737
			c-0.02-0.121-0.043-0.238-0.066-0.356c-0.025-0.133-0.052-0.263-0.079-0.39c-0.028-0.125-0.055-0.252-0.086-0.372l-0.001-0.001
			l0.001-0.001c-0.398-0.592-0.87-1.12-1.424-1.569l-0.109-0.081l-0.022-0.017l-0.082-0.061l-0.028-0.021
			c-0.08-0.061-0.164-0.121-0.247-0.177c-0.089-0.059-0.179-0.117-0.269-0.172c-0.825-0.502-1.744-0.817-2.728-0.963
			c-0.544-0.08-1.107-0.108-1.684-0.086c-0.268,0.01-0.54,0.034-0.813,0.066c-0.711,0.083-1.44,0.235-2.179,0.46
			c-0.248,0.171-0.496,0.345-0.747,0.52c-0.21,0.146-0.424,0.293-0.639,0.439l-0.104,0.071c-0.217,0.146-0.436,0.288-0.656,0.429
			l-0.111,0.07c-0.221,0.137-0.443,0.271-0.667,0.398l-0.117,0.066c-0.225,0.127-0.454,0.245-0.685,0.358l-0.115,0.054
			c-0.233,0.111-0.472,0.215-0.713,0.306l-0.1,0.037c-0.249,0.091-0.501,0.175-0.758,0.242l-0.067,0.016
			c-0.271,0.07-0.543,0.126-0.821,0.163c-0.468,0.064-0.936,0.084-1.406,0.086c-0.766,0.003-1.534-0.059-2.306-0.174
			c-0.258-0.039-0.517-0.084-0.776-0.132c-0.092-0.017-0.184-0.031-0.274-0.049c-0.673-0.131-1.35-0.287-2.031-0.451
			c-0.286-0.068-0.572-0.137-0.859-0.207c-0.462-0.113-0.928-0.221-1.395-0.328c-0.092-0.021-0.182-0.044-0.275-0.065
			c-0.391,0.021-0.784,0.06-1.179,0.109l-0.086,0.011c-1.145,0.15-2.296,0.423-3.434,0.816c-0.063,0.022-0.126,0.04-0.188,0.063
			c-0.178,0.063-0.354,0.133-0.531,0.202c-0.237,0.094-0.474,0.191-0.708,0.295c-1.648,0.727-3.248,1.717-4.736,2.975
			c-0.603,0.51-1.166,1.05-1.694,1.61c-0.81,0.861-1.526,1.778-2.154,2.733c-0.035,0.053-0.069,0.107-0.103,0.16
			c-0.334,0.519-0.641,1.048-0.919,1.586c-0.1,0.192-0.201,0.384-0.293,0.578l-0.019,0.038c-0.299,0.633-0.558,1.277-0.781,1.926
			c-0.013,0.039-0.024,0.078-0.035,0.116c-0.032,0.094-0.056,0.189-0.086,0.283c-0.095,0.302-0.183,0.605-0.263,0.908
			c-0.081,0.315-0.158,0.63-0.221,0.947c-0.013,0.068-0.028,0.136-0.039,0.204c-0.037,0.193-0.071,0.386-0.102,0.579
			c-0.108,0.709-0.167,1.418-0.182,2.122c-0.005,0.177-0.012,0.355-0.01,0.53c0.32,1.16,0.782,2.205,1.331,3.154
			c2.089,3.609,5.523,5.767,8.012,6.925c0.968,0.427,1.978,0.808,3.028,1.143l0.027,0.045l0.001,0.001l0.005-0.002l0.068-0.052
			c0.134-0.102,0.268-0.204,0.406-0.305c0.048-0.038,0.099-0.073,0.148-0.11c0.141-0.103,0.286-0.208,0.434-0.311
			c0.049-0.035,0.1-0.07,0.151-0.104c0.148-0.104,0.301-0.209,0.457-0.311c0.051-0.035,0.104-0.069,0.156-0.103
			c0.157-0.104,0.317-0.208,0.481-0.311c0.054-0.034,0.107-0.068,0.162-0.101c0.166-0.102,0.333-0.204,0.501-0.306
			c0.058-0.035,0.117-0.069,0.176-0.105c0.17-0.099,0.341-0.199,0.517-0.299c0.064-0.035,0.127-0.071,0.19-0.107
			c0.173-0.098,0.35-0.194,0.529-0.29c0.071-0.038,0.142-0.076,0.215-0.114c0.177-0.094,0.356-0.187,0.538-0.279
			c0.078-0.039,0.156-0.078,0.234-0.117c0.181-0.091,0.365-0.18,0.548-0.269c0.088-0.042,0.177-0.083,0.264-0.125
			c0.181-0.085,0.364-0.17,0.551-0.255c0.097-0.045,0.197-0.088,0.297-0.133c0.181-0.08,0.364-0.16,0.551-0.239
			c0.11-0.048,0.222-0.094,0.333-0.141c0.181-0.075,0.363-0.15,0.549-0.225c0.123-0.049,0.249-0.098,0.374-0.148
			c0.18-0.07,0.359-0.14,0.543-0.209c0.137-0.053,0.277-0.105,0.415-0.155c0.178-0.065,0.353-0.13,0.535-0.194
			c0.153-0.053,0.309-0.107,0.464-0.161c0.174-0.06,0.348-0.121,0.525-0.178c0.17-0.057,0.341-0.111,0.513-0.167
			c0.17-0.055,0.338-0.11,0.511-0.163c0.188-0.059,0.38-0.116,0.573-0.174c0.161-0.047,0.323-0.097,0.487-0.144
			c0.208-0.061,0.421-0.119,0.632-0.179c0.107-0.029,0.209-0.061,0.316-0.089c0.826-2.079,3.278-7.235,7.477-7.8
			c0.452-0.065,0.859-0.089,1.245-0.093c0.097-0.001,0.2-0.008,0.292-0.006c-0.048-0.299-0.087-0.611-0.107-0.935
			c-0.131-2.221,0.552-4.068,1.525-4.127c0.754-0.061,1.354,1.04,1.456,1.426c0.286,0.675,0.487,1.538,0.546,2.496
			c0.051,0.874-0.03,1.681-0.196,2.355c0.085,0.087,0.155,0.184,0.231,0.277c0.962,1.194,1.125,2.849,1.085,4.022
			c0.374-0.038,0.758-0.071,1.142-0.104c0.098-0.009,0.193-0.018,0.293-0.027l0.061-0.005c0.056-0.005,0.111-0.009,0.166-0.013
			c0.475-0.04,0.955-0.076,1.443-0.111l0.022-0.001c1.104-0.077,2.238-0.142,3.407-0.192
			C139.273,100.282,138.886,100.078,138.886,100.078z"/>
		<path fill="#F1D1AB" d="M149.454,131.181c-1.837,1.636-3.761,2.95-5.669,4.004c-0.953,0.525-1.899,0.98-2.832,1.385
			c-2.072,0.903-4.06,1.53-5.811,1.957c-3.865,0.942-6.591,0.944-6.591,0.944c2.113,1.169,4.789,1.18,6.624,0.995
			c1.263-0.126,2.131-0.343,2.131-0.343c-0.039,0.776-0.136,1.49-0.275,2.156c-0.153,0.738-0.364,1.407-0.615,2.02l-0.02,0.052
			l-0.002,0.003c-0.315,0.758-0.694,1.423-1.116,2.009c-0.046,0.063-0.091,0.131-0.137,0.192l0.139-0.077
			c0.67-0.366,1.334-0.759,1.993-1.174l0.015-0.009c0.495-0.312,0.986-0.638,1.471-0.976c0.813-0.573,1.618-1.176,2.402-1.832
			l0.002-0.001l0.003-0.003c0.045-0.039,0.092-0.078,0.139-0.118c0.777-0.679,1.506-1.378,2.181-2.09
			c0.893-0.939,1.695-1.899,2.421-2.862l0.053-0.07c0.178-0.237,0.351-0.474,0.52-0.707l0.047-0.069
			c0.055-0.08,0.104-0.156,0.158-0.236c0.234-0.337,0.466-0.675,0.683-1.011c0.052-0.08,0.106-0.162,0.158-0.243
			c0.113-0.178,0.221-0.356,0.33-0.531c0.082-0.138,0.166-0.275,0.245-0.411c0.088-0.149,0.177-0.298,0.263-0.445
			c0.152-0.268,0.301-0.535,0.443-0.799c0.056-0.105,0.11-0.207,0.164-0.311c0.109-0.206,0.215-0.409,0.316-0.611
			c0.047-0.094,0.095-0.188,0.14-0.282l0.041-0.088c0.126-0.254,0.247-0.507,0.363-0.755
			C149.706,130.96,149.58,131.07,149.454,131.181z"/>
		<path fill="#F1D1AB" d="M103.4,110.835c-0.521,0.175-1.095,0.386-1.701,0.637c-1.615,0.669-3.448,1.621-5.073,2.936
			c-0.203,0.164-0.403,0.334-0.599,0.509c-0.333,0.3-0.651,0.62-0.957,0.955c-0.035,0.038-0.072,0.075-0.106,0.113
			c-0.046,0.051-0.092,0.105-0.137,0.157c-0.115,0.135-0.229,0.273-0.34,0.413c-0.044,0.056-0.089,0.113-0.133,0.169
			c-0.146,0.193-0.288,0.388-0.423,0.591c-0.132,0.199-0.259,0.405-0.38,0.613c-0.963,1.681-1.509,3.693-1.341,6.092l0.005-0.025
			l0.003-0.018c0.004-0.022,0.01-0.052,0.018-0.089l0.005-0.02c0.007-0.036,0.018-0.079,0.029-0.127l0.007-0.03
			c0.013-0.055,0.029-0.117,0.046-0.185l0.012-0.044c0.02-0.073,0.041-0.151,0.066-0.237l0.001-0.001
			c0.024-0.084,0.053-0.174,0.083-0.267l0.019-0.057c0.032-0.095,0.066-0.194,0.104-0.297l0.02-0.049
			c0.035-0.097,0.074-0.196,0.116-0.299l0.02-0.047c0.045-0.11,0.096-0.225,0.148-0.341l0.034-0.072
			c0.056-0.118,0.113-0.239,0.178-0.361v-0.001c0.002-0.005,0.005-0.009,0.008-0.014c0.095-0.182,0.202-0.368,0.316-0.554
			c0.043-0.071,0.084-0.141,0.132-0.212l0.037-0.059l0.001-0.002c0.098-0.146,0.2-0.292,0.311-0.436
			c0.09-0.118,0.185-0.235,0.284-0.352c0.031-0.037,0.064-0.073,0.097-0.109c0.079-0.089,0.161-0.177,0.246-0.264
			c0.035-0.035,0.069-0.071,0.104-0.105c0.116-0.113,0.235-0.225,0.362-0.333l0.01-0.01v0v0c0,0-2.185,4.945-1.235,8.865
			c0,0-0.001-0.012-0.001-0.033v-0.025c-0.001-0.022-0.001-0.047-0.001-0.08c0-0.007,0-0.014,0-0.021c0-0.04,0-0.087,0.002-0.143
			c0,0,0-0.014,0.001-0.022c0-0.058,0.004-0.123,0.007-0.195c0,0,0.001-0.014,0.001-0.021c0.004-0.074,0.009-0.155,0.015-0.242
			c0-0.008,0.001-0.015,0.001-0.022c0.007-0.088,0.015-0.182,0.026-0.28c0.001-0.008,0.002-0.016,0.003-0.024
			c0.01-0.099,0.024-0.201,0.038-0.308c0.001-0.01,0.003-0.019,0.003-0.019c0.018-0.123,0.037-0.241,0.059-0.363l0.005-0.029
			l0.012-0.061v-0.002c0.027-0.137,0.059-0.277,0.095-0.418c0.003-0.009,0.005-0.019,0.007-0.029
			c0.037-0.138,0.077-0.278,0.121-0.419c0.014-0.043,0.028-0.086,0.041-0.129l0.031-0.09v-0.001
			c0.041-0.116,0.087-0.231,0.136-0.347l0.008-0.019l0-0.001c0.068-0.161,0.148-0.317,0.233-0.472
			c0.022-0.041,0.046-0.082,0.07-0.122c0.09-0.153,0.186-0.303,0.294-0.445l0.004-0.007v0.001v-0.001h0.001
			c0,0-0.125,1.217-0.093,2.666c0.006,0.228,0.017,0.462,0.031,0.698c0.009,0.157,0.019,0.315,0.034,0.473
			c0.097-1.557,0.381-3.02,0.795-4.383c0.115-0.376,0.242-0.742,0.376-1.104c0.019-0.052,0.036-0.104,0.056-0.156
			c0.129-0.341,0.266-0.674,0.409-1.002c0.028-0.061,0.055-0.122,0.082-0.183c0.146-0.324,0.297-0.641,0.455-0.951
			c0.026-0.048,0.05-0.095,0.075-0.142c0.335-0.646,0.696-1.261,1.07-1.843c0.028-0.043,0.054-0.085,0.082-0.128
			c0.142-0.218,0.288-0.427,0.434-0.635c0.038-0.055,0.075-0.113,0.114-0.168c0.036-0.049,0.069-0.098,0.105-0.146
			c0.186-0.257,0.372-0.507,0.56-0.749c0.031-0.038,0.06-0.076,0.09-0.113c0.196-0.249,0.392-0.491,0.588-0.722l0.011-0.013
			c0.248-0.293,0.494-0.572,0.739-0.838c0.18-0.195,0.358-0.382,0.534-0.563c0.066-0.068,0.135-0.135,0.203-0.203
			c0.421-0.425,0.828-0.808,1.207-1.146c1.137-1.017,2.022-1.646,2.331-1.854c-0.186,0.046-0.403,0.104-0.643,0.172
			C104.284,110.55,103.864,110.678,103.4,110.835z"/>
		<path fill="#F1D1AB" d="M132.468,99.886c0,0-0.012-0.126-0.057-0.317c-0.178-0.723-0.892-2.428-3.705-2.158
			c-2.941,0.283-3.928,2.656-4.182,3.465c-0.052,0.168-0.075,0.273-0.075,0.273l0.08,0.068c0.373-0.317,1.084-0.279,1.73,0.13
			c0.295,0.187,0.53,0.424,0.691,0.673v0.001c0.249,0.383,0.318,0.796,0.142,1.103c-0.037,0.066-0.084,0.121-0.139,0.17
			c0,0,0.113,0.043,0.304,0.099c0.817,0.241,3.083,0.716,4.31-0.867c0.059-0.076,0.119-0.147,0.174-0.232
			c-0.242-0.123-0.376-0.478-0.377-0.897c-0.002-0.202,0.026-0.418,0.091-0.634C131.655,100.098,132.11,99.705,132.468,99.886z"/>
		<path fill="#F1D1AB" d="M117.887,121.49c-1.903,0.393-3.568,0.685-4.859,0.893c0.073,0.009,0.14,0.017,0.216,0.027
			c2.159,0.268,5.597,0.593,9.755,0.339c7.565-0.461,17.521-2.841,26.562-10.993l0.025-0.032v-0.001v-0.013
			c0.031-0.683-0.061-1.916-0.923-2.875c-0.151-0.168-0.327-0.327-0.527-0.474c-0.034-0.02-0.065-0.042-0.1-0.062
			c-0.238-0.133-0.445-0.267-0.637-0.4c-0.16-0.1-0.311-0.2-0.445-0.3l-0.02-0.029c-0.555,0.799-1.2,1.559-1.921,2.283
			c-0.256,0.256-0.527,0.502-0.8,0.749c-2.494,2.247-5.718,4.118-9.197,5.659C129.234,118.823,122.772,120.484,117.887,121.49z"/>
		<path fill="#F1D1AB" d="M70.006,108.315c-0.082,0.073-0.166,0.144-0.243,0.225l-0.084,0.093c-0.09,0.101-0.178,0.207-0.26,0.32
			l-0.043,0.055c-0.102,0.142-0.196,0.29-0.286,0.441v0l-0.011,0.02l0,0.001l-0.037,0.067c-0.021,0.037-0.04,0.075-0.06,0.112
			c-0.052,0.095-0.106,0.187-0.152,0.282l-0.002,0.003l-0.001,0.003l-0.003,0.008l-0.018,0.036l-0.017,0.036
			c-0.073,0.151-0.139,0.301-0.201,0.449c-0.176,0.416-0.312,0.813-0.413,1.145c-0.036,0.117-0.069,0.229-0.096,0.328
			c-0.059,0.214-0.101,0.381-0.119,0.463l-0.001,0.007l-0.013,0.055v-0.001v0.001l0.005-0.064c0.007-0.127,0.022-0.254,0.032-0.38
			c0.02-0.265,0.037-0.532,0.066-0.796c0.023-0.222,0.057-0.44,0.089-0.66c0.01-0.069,0.021-0.138,0.031-0.206
			c0.014-0.102,0.028-0.203,0.044-0.304c0.015-0.095,0.036-0.187,0.053-0.28l0.001-0.007v-0.001l0.02-0.104l0.006-0.028
			c0.021-0.113,0.042-0.228,0.064-0.342c0.008-0.044,0.016-0.088,0.025-0.132l0.016-0.078l0.003-0.014
			c0.008-0.037,0.016-0.075,0.024-0.111c0.009-0.046,0.022-0.091,0.032-0.135c0.038-0.166,0.078-0.33,0.116-0.493l0.007-0.028
			c0.029-0.122,0.055-0.245,0.087-0.365l0.001-0.005l0.003-0.008l0.01-0.035c0.064-0.248,0.135-0.49,0.206-0.734l0.019-0.067
			l0.019-0.067c0.014-0.045,0.025-0.093,0.039-0.138c0.118-0.396,0.244-0.786,0.377-1.168l0.017-0.048
			c0.114-0.324,0.231-0.643,0.352-0.958l0.014-0.036c0.055-0.139,0.111-0.271,0.166-0.408l0.009-0.02
			c0.083-0.204,0.165-0.409,0.25-0.607l0-0.002v-0.001l0.002-0.003l0.01-0.025c0.023-0.049,0.075-0.17,0.157-0.346l0.002-0.003
			l0.011-0.024v-0.001c0.032-0.07,0.062-0.137,0.093-0.208c0.05-0.113,0.101-0.224,0.15-0.334l0.045-0.097
			c-0.071-0.038-0.145-0.073-0.218-0.109l-0.041-0.021l-0.077-0.039c-0.473-0.226-0.97-0.408-1.485-0.541l-0.082-0.02
			c-0.331-0.082-0.668-0.146-1.012-0.185l0,0c-0.199-0.023-0.4-0.041-0.603-0.049c-0.169-0.007-0.337-0.009-0.508-0.005
			c-0.257,0.005-0.509,0.027-0.758,0.055c-0.08,0.009-0.156,0.024-0.233,0.034c-0.123,0.019-0.245,0.042-0.367,0.065
			c-0.047,0.01-0.098,0.016-0.145,0.027c-0.086,0.018-0.171,0.036-0.256,0.058c-0.167,0.041-0.33,0.087-0.491,0.138
			c-0.075,0.024-0.15,0.043-0.223,0.069c-0.219,0.077-0.434,0.161-0.644,0.254c-0.084,0.037-0.162,0.08-0.243,0.119
			c-0.096,0.047-0.191,0.097-0.286,0.146l-0.098,0.05c-0.104,0.058-0.205,0.119-0.306,0.181c-0.094,0.057-0.188,0.117-0.278,0.18
			c-0.111,0.074-0.22,0.148-0.326,0.225c-0.065,0.05-0.127,0.101-0.192,0.151c-0.172,0.136-0.335,0.282-0.495,0.431
			c-0.083,0.077-0.163,0.156-0.242,0.236c-0.141,0.139-0.277,0.281-0.406,0.43l-0.065,0.075c-0.068,0.081-0.131,0.166-0.194,0.251
			l-0.01,0.012l-0.008,0.011c-0.043,0.057-0.09,0.111-0.132,0.169l-0.016,0.022l-0.017,0.023l-0.001,0.002l-0.001,0.002
			c-0.26,0.364-0.486,0.75-0.684,1.152c-0.029,0.057-0.054,0.115-0.081,0.173c-0.092,0.197-0.175,0.398-0.252,0.603
			c-0.03,0.081-0.063,0.16-0.091,0.242l-0.001,0.001v0.001c0.016,0.053,0.034,0.103,0.049,0.155
			c0.056,0.182,0.113,0.359,0.174,0.531l0.021,0.059l0.023,0.06c0.063,0.177,0.128,0.346,0.195,0.511
			c0.204,0.506,0.419,0.958,0.632,1.357c0.033,0.059,0.064,0.12,0.096,0.177l0.023,0.042l0.03,0.05
			c0.161,0.286,0.318,0.538,0.464,0.758c0.232,0.351,0.436,0.617,0.581,0.797c0.032,0.039,0.059,0.072,0.084,0.102
			c0.022,0.026,0.041,0.049,0.06,0.069c0.055,0.064,0.089,0.1,0.089,0.1c-0.021-0.089-0.032-0.178-0.051-0.269
			c-0.131-0.645-0.199-1.282-0.216-1.906l0-0.037l-0.002-0.073c-0.007-0.4-0.001-0.795,0.031-1.181h0.001l0,0
			c0.04,0.148,0.085,0.291,0.129,0.433c0.067,0.213,0.136,0.421,0.208,0.62l0.025,0.072l0.01,0.026
			c0.315,0.851,0.673,1.567,1.008,2.143c0.401,0.691,0.769,1.18,0.988,1.448c0.044,0.054,0.082,0.099,0.113,0.135
			c0.062,0.072,0.097,0.109,0.097,0.109c-0.159-0.685-0.239-1.363-0.264-2.027c-0.009-0.224-0.017-0.447-0.013-0.666
			c0.004-0.28,0.019-0.556,0.041-0.829v0.001v-0.001c0.122,0.466,0.262,0.897,0.412,1.303l0.011,0.031
			c0.539,1.461,1.204,2.535,1.664,3.171l0.052,0.07c0.081,0.108,0.151,0.199,0.214,0.281c0.043,0.054,0.085,0.108,0.119,0.147
			c0.044,0.054,0.078,0.094,0.105,0.123c0.034,0.038,0.055,0.063,0.055,0.063l-0.019-0.095c-0.021-0.096-0.04-0.191-0.059-0.286
			c-0.066-0.342-0.11-0.683-0.142-1.019c-0.022-0.225-0.042-0.449-0.05-0.671c-0.008-0.211-0.007-0.419-0.004-0.627
			c0.001-0.037,0.002-0.074,0.003-0.112c0.003-0.108,0.006-0.215,0.012-0.322l0.004-0.066l0.004-0.047
			c0.017-0.273,0.04-0.544,0.074-0.809v0.001v-0.001c0.052,0.176,0.108,0.348,0.164,0.513c0.042,0.126,0.087,0.246,0.131,0.367
			l0.01,0.025l0.015,0.042l0.027,0.074c0.054,0.145,0.11,0.283,0.168,0.42c0.109,0.257,0.217,0.498,0.329,0.725
			c0.135,0.279,0.272,0.537,0.405,0.773c0.077,0.133,0.151,0.258,0.224,0.378c0.093,0.151,0.183,0.291,0.268,0.418
			c0.079,0.117,0.152,0.221,0.222,0.317c0.018,0.024,0.036,0.049,0.052,0.072c0.065,0.088,0.127,0.172,0.183,0.241
			c0.041,0.053,0.08,0.101,0.114,0.143c0.091,0.11,0.155,0.183,0.184,0.214l0.017,0.018l0.057,0.039
			c0.006-0.048,0.013-0.096,0.019-0.145c0.051-0.425,0.11-0.853,0.174-1.279c0.007-0.051,0.015-0.103,0.023-0.153
			c0.074-0.48,0.151-0.957,0.232-1.417c0.01-0.06,0.02-0.118,0.031-0.178l0.006-0.03c0.01-0.053,0.019-0.107,0.029-0.16
			c0.014-0.079,0.028-0.158,0.042-0.237c0.066-0.365,0.134-0.717,0.2-1.052c0.06-0.302,0.118-0.588,0.175-0.857l0.018-0.087
			c0.008-0.042,0.017-0.081,0.026-0.121c0.008-0.039,0.017-0.08,0.025-0.121l0.003-0.014c0.015-0.067,0.03-0.137,0.043-0.2
			l0.004-0.017c0.013-0.063,0.025-0.117,0.038-0.176c0.021-0.092,0.04-0.187,0.06-0.274l0.005-0.024
			c0.016-0.07,0.031-0.142,0.045-0.206c0.021-0.092,0.041-0.177,0.058-0.257l0.001-0.002l0.001-0.002
			c0.01-0.046,0.02-0.086,0.03-0.128l0.002-0.008c0.009-0.038,0.017-0.078,0.026-0.112c0.02-0.085,0.037-0.162,0.051-0.221
			l0.013-0.053l0.005-0.019l0.015-0.062l0.01-0.043l0.002-0.006l-0.007,0.005L70.006,108.315z"/>
		<path fill="#F1D1AB" d="M131.227,129.448c0.713-0.247,1.335-0.446,1.816-0.656c0.966-0.411,1.485-0.689,1.452-0.791
			c-0.033-0.105-0.616-0.026-1.642,0.206c-0.514,0.12-1.136,0.225-1.852,0.386c-0.355,0.085-0.748,0.134-1.155,0.213
			c-0.41,0.071-0.842,0.161-1.297,0.21c-0.899,0.127-1.927,0.243-3.018,0.37c-0.538,0.044-1.093,0.09-1.664,0.136
			c-0.576,0.029-1.168,0.058-1.776,0.088c-2.428,0.071-5.109-0.039-7.836-0.541c-1.439-0.253-3.361-0.906-4.743-1.691l-0.051-0.03
			c0.816-2.885,3.823-3.296,3.823-3.296l-0.087-0.026c-0.05-0.006-0.101-0.011-0.152-0.017c-0.437-0.054-0.822-0.107-1.151-0.151
			c-0.236-0.032-0.442-0.06-0.617-0.081c-0.168-0.021-0.287-0.034-0.357-0.038c-1.811-0.124-2.804,1.41-3.147,2.075
			c-0.049,0.096-0.094,0.194-0.14,0.295c-0.261,0.596-0.435,1.283-0.482,2.01c-0.089,1.356,0.26,2.845,1.299,4.112
			c0.693,0.855,1.898,1.609,3.462,2.205c-1.364-0.863-2.561-2.503-2.649-5.123c1.544,0.664,3.344,1.07,4.695,1.31
			c2.895,0.533,5.689,0.597,8.2,0.443c0.628-0.053,1.238-0.099,1.831-0.158c0.594-0.077,1.17-0.152,1.729-0.224
			c1.087-0.183,2.09-0.361,3.031-0.568c0.47-0.088,0.905-0.217,1.317-0.329C130.479,129.667,130.87,129.577,131.227,129.448z"/>
		<path fill="#654E44" d="M128.826,95.681c1.513,0.036,2.54,0.516,3.224,1.214c0.167-0.673,0.249-1.48,0.195-2.355
			c-0.058-0.957-0.258-1.819-0.545-2.496c-0.102-0.385-0.702-1.486-1.457-1.426c-0.974,0.059-1.655,1.906-1.523,4.128
			C128.739,95.07,128.776,95.382,128.826,95.681z"/>
		<path fill="#654E44" d="M131.38,101.409c0.002,0.42,0.136,0.774,0.377,0.897c0.362,0.181,0.813-0.215,1.013-0.88
			c0.019-0.058,0.03-0.116,0.043-0.173v-0.002c0.128-0.605-0.003-1.19-0.329-1.354c-0.358-0.182-0.813,0.212-1.013,0.877
			C131.407,100.992,131.379,101.208,131.38,101.409z"/>
		<path fill="#654E44" d="M124.512,102.481c0.16,0.261,0.402,0.513,0.711,0.71c0.653,0.414,1.378,0.449,1.746,0.115
			c0.054-0.048,0.102-0.106,0.138-0.171c0.177-0.306,0.108-0.719-0.14-1.103l-0.001-0.001c-0.161-0.248-0.396-0.485-0.691-0.672
			c-0.645-0.41-1.357-0.448-1.73-0.13c-0.061,0.053-0.116,0.111-0.157,0.183C124.221,101.71,124.283,102.107,124.512,102.481
			L124.512,102.481z"/>
		<g>
			<path fill="#654E44" d="M149.586,111.726L149.586,111.726v-0.014l-0.042,0.062c0.006-0.005,0.013-0.01,0.019-0.015
				L149.586,111.726z"/>
			<path fill="#654E44" d="M148.801,125.744l-0.035,0.033c-0.92,0.878-1.998,1.728-3.182,2.537
				c-5.2,3.552-12.473,6.304-17.628,6.994l-0.02,0.003l-0.02,0.003c-3.875,0.616-7.67,0.724-10.978,0.313
				c-1.9-0.237-3.61-0.648-5.028-1.189c-1.563-0.596-2.769-1.349-3.462-2.204c-1.039-1.267-1.388-2.756-1.298-4.112
				c0.047-0.726,0.221-1.414,0.482-2.01c0.044-0.101,0.091-0.2,0.139-0.295c0.343-0.665,1.335-2.199,3.147-2.075
				c0.069,0.005,0.189,0.017,0.356,0.038c0.175,0.021,0.382,0.049,0.618,0.081c0.329,0.044,0.714,0.096,1.151,0.15
				c0.051,0.006,0.101,0.011,0.151,0.017c4.99,0.607,9.789,0.542,14.35-0.157c6.619-1.014,12.734-3.374,18.164-7.052
				c0.287-0.194,0.572-0.392,0.855-0.593l2.977-4.453c-9.035,8.139-18.983,10.517-26.544,10.978
				c-4.158,0.254-7.596-0.07-9.754-0.338c-0.077-0.009-0.143-0.018-0.217-0.028c-0.648-0.082-1.176-0.157-1.552-0.205
				c-0.188-0.024-0.34-0.04-0.455-0.047c-0.566-0.038-1.105,0.032-1.608,0.189c-1.029,0.322-1.908,1.016-2.568,1.937
				c-0.816,1.135-1.296,2.611-1.319,4.155c-0.016,1.27,0.28,2.584,0.962,3.787c0.027,0.048,0.052,0.098,0.081,0.147
				c0.078,0.132,0.163,0.261,0.252,0.39c0.119,0.175,0.245,0.347,0.384,0.516c1.584,1.953,4.991,3.405,9.536,3.971
				c3.075,0.382,6.675,0.351,10.579-0.199c11.504-2.079,16.973-5.797,19.499-8.408c0.185-0.19,0.354-0.376,0.509-0.554
				c0.905-1.044,1.313-1.847,1.462-2.194l0.021-0.047c0.037-0.09,0.053-0.138,0.053-0.14L148.801,125.744z"/>
		</g>
		<path fill="#E8B683" d="M112.189,85.847c-0.363-0.197-0.759-0.338-1.158-0.438c-0.264-0.065-0.53-0.111-0.792-0.144
			c-0.099-0.012-0.196-0.021-0.295-0.03c-1.347-0.117-2.511,0.11-2.511,0.11c-0.25,0.057-0.489,0.122-0.72,0.192
			c-1.829,0.555-3.103,1.508-3.993,2.607c-0.72,0.89-1.189,1.875-1.488,2.826c-0.027,0.084-0.05,0.167-0.074,0.25
			c-0.07,0.247-0.131,0.489-0.183,0.727c-0.169,0.8-0.234,1.537-0.253,2.121c-0.023,0.798,0.04,1.312,0.04,1.312
			c0.318-0.697,0.651-1.336,0.995-1.935c0.852-1.484,1.776-2.68,2.71-3.641c1.819-1.871,3.672-2.859,5.108-3.377
			C111.126,85.866,112.189,85.847,112.189,85.847z"/>
		<path fill="#E8B683" d="M134.041,83.242l-0.061-0.08c-0.206-0.26-0.452-0.5-0.746-0.702c-0.695-0.478-1.654-0.727-2.983-0.454
			c0,0-1.578,0.372-2.5,1.405c0,0,2.75-1.174,5.66,0.895c0.265,0.188,0.531,0.407,0.797,0.653c0.271,0.251,0.542,0.53,0.811,0.847
			c0,0-0.115-1.268-0.838-2.361C134.139,83.375,134.09,83.308,134.041,83.242z"/>
		<path fill="#654E44" d="M112.522,103.375c1.054-0.326,2.195-0.626,3.418-0.903c0.213-0.952,0.265-2.131,0.114-3.389
			c-0.348-2.951-1.679-5.212-2.972-5.052c-1.293,0.16-2.057,2.681-1.708,5.631C111.55,101.149,111.976,102.461,112.522,103.375z"/>
		<path fill="#FFD14F" d="M106.524,37.335l-2.711,0.613l0.569,4.973l-7.228-3.679l-2.975,0.887l0.046,0.053l8.779,10.006
			l0.084-0.053l0.114-0.071c0.273-0.174,0.547-0.348,0.823-0.519c0.096-0.06,0.192-0.122,0.289-0.182
			c0.398-0.244,0.796-0.484,1.196-0.722l-3.729-4.272l6.034,2.95l0.023-0.013c0.182-0.1,0.362-0.199,0.544-0.298l-0.556-4.309
			l2.738,3.167l0.034-0.016c0.232-0.117,0.459-0.227,0.687-0.34l0.071-0.035l0.111-0.055c0.039-0.019,0.079-0.038,0.117-0.058
			c0.097-0.047,0.196-0.098,0.292-0.144c0.02-0.01,0.038-0.018,0.058-0.028c0.325-0.157,0.643-0.306,0.962-0.456L106.524,37.335z"/>
		<polygon fill="#4E9DD6" points="103.83,38.105 103.813,37.948 103.83,38.106 		"/>
		<path fill="#4E9DD6" d="M103.813,37.948l0.401-0.09c-0.664-0.308-1.452-0.528-2.366-0.641c-1.828-0.23-4.149-0.019-6.794,0.664
			c-2.645,0.679-5.61,1.821-8.755,3.387c-6.29,3.13-13.292,7.954-20.03,14.101c-2.351,2.144-4.544,4.334-6.559,6.532l8.184,10.024
			c2.21-2.439,4.621-4.864,7.22-7.235c3.475-3.168,7.018-5.994,10.52-8.45c3.394-2.378,6.747-4.397,9.974-6.03l-1.422-6.401
			l0.038-3.627l-0.046-0.053l2.975-0.887l5.81,2.973l-0.165-2.024L103.813,37.948z"/>
		<polygon fill="#132034" points="103.813,37.948 102.799,40.191 102.964,42.215 104.382,42.921 		"/>
		<polygon fill="#132034" points="101.781,44.369 107.816,47.319 105.51,48.641 		"/>
		<polygon fill="#132034" points="107.825,42.7 108.382,47.008 110.563,45.867 		"/>
		<path fill="#FFFFFF" d="M130.656,41.107c0.372-0.015,0.736-0.019,1.094-0.011c1.015,0.021,1.969,0.141,2.873,0.367
			c0.048,0.012,0.099,0.02,0.147,0.033l0.011,0.003l0.036,0.008l0.089,0.026l0.082,0.025c-0.107-0.071-0.215-0.138-0.326-0.203
			c-1.014-0.388-2.088-0.642-3.192-0.784c-5.477-0.704-11.713,1.289-15.278,2.705c-0.195,0.082-0.393,0.163-0.592,0.248
			c-0.3,0.128-0.602,0.258-0.908,0.393c-0.514,0.226-1.034,0.463-1.566,0.711c-0.077,0.036-0.154,0.072-0.231,0.109
			c-0.319,0.149-0.637,0.299-0.962,0.456c-0.02,0.009-0.038,0.018-0.058,0.028c-0.096,0.046-0.195,0.097-0.292,0.144
			c-0.038,0.02-0.078,0.039-0.117,0.058l-0.111,0.055l-0.071,0.035c-0.228,0.113-0.455,0.223-0.687,0.34l-0.034,0.016
			c-0.007,0.004-0.014,0.007-0.021,0.011c-0.057,0.028-0.111,0.054-0.168,0.082l-0.03,0.014c-0.042,0.022-0.084,0.044-0.125,0.066
			c-0.355,0.18-0.708,0.366-1.061,0.552c-0.247,0.13-0.492,0.262-0.738,0.395l-0.039,0.022c-0.182,0.099-0.362,0.198-0.544,0.298
			l-0.023,0.013c-0.59,0.326-1.176,0.659-1.761,1.001c-0.061,0.036-0.122,0.07-0.183,0.106c-0.052,0.031-0.105,0.061-0.156,0.092
			c-0.048,0.028-0.096,0.058-0.143,0.086l-0.062,0.037c-0.4,0.238-0.799,0.478-1.196,0.722c-0.097,0.06-0.193,0.122-0.289,0.182
			c-0.276,0.171-0.55,0.345-0.823,0.519l-0.114,0.071l-0.084,0.053c-0.761,0.487-1.516,0.988-2.266,1.499
			c-1.239,0.844-2.465,1.714-3.673,2.615c-0.157,0.116-0.313,0.235-0.47,0.353c-3.168,2.385-6.228,4.944-9.159,7.602
			c-3.095,2.808-6.044,5.725-8.831,8.656c-1.509,1.512-2.805,2.867-3.863,4.006c-2.122,2.286-3.28,3.698-3.232,3.73
			c0.019,0.021,0.206-0.152,0.538-0.484c-0.274,0.318-0.549,0.636-0.818,0.953c4.626-4.933,9.757-9.984,15.267-14.743
			c3.347-2.888,6.83-5.668,10.427-8.248v0.001c1.576-1.131,3.174-2.222,4.792-3.267c0.517-0.335,1.038-0.666,1.56-0.991
			c0.261-0.162,0.523-0.319,0.784-0.478c0.147-0.09,0.295-0.182,0.444-0.271c0.279-0.169,0.559-0.334,0.84-0.5
			c0.275-0.162,0.549-0.324,0.824-0.483c0.144-0.082,0.288-0.166,0.432-0.248c0.349-0.2,0.701-0.396,1.053-0.591
			c0.209-0.116,0.42-0.233,0.63-0.348l0.002-0.001c0.664-0.362,1.331-0.711,2-1.054c0.055-0.029,0.111-0.056,0.168-0.085
			c0.105-0.053,0.209-0.107,0.314-0.159c0.139-0.071,0.276-0.143,0.416-0.212c0.053-0.026,0.104-0.054,0.156-0.08l0.022-0.01
			c0.095-0.047,0.188-0.091,0.282-0.137c0.02-0.01,0.04-0.019,0.059-0.029l0.033-0.017c0.293-0.143,0.584-0.284,0.871-0.422
			c0.052-0.025,0.106-0.052,0.159-0.077c0.094-0.045,0.185-0.087,0.279-0.131c0.335-0.158,0.67-0.316,0.999-0.468
			c0.091-0.041,0.184-0.086,0.273-0.127c0.047-0.022,0.094-0.042,0.141-0.064c0.094-0.042,0.187-0.084,0.282-0.126
			c0.387-0.175,0.773-0.348,1.151-0.512c0.345-0.15,0.681-0.289,1.018-0.43c1.905-0.801,3.697-1.475,5.361-2.01
			C125.47,41.773,128.232,41.211,130.656,41.107z"/>
	</g>
</g>
</svg>
