<?xml version="1.0" encoding="utf-8"?>
<!-- Generator: Adobe Illustrator 17.1.0, SVG Export Plug-In . SVG Version: 6.00 Build 0)  -->
<!DOCTYPE svg PUBLIC "-//W3C//DTD SVG 1.1//EN" "http://www.w3.org/Graphics/SVG/1.1/DTD/svg11.dtd">
<svg version="1.1" id="Layer_1" xmlns="http://www.w3.org/2000/svg" xmlns:xlink="http://www.w3.org/1999/xlink" x="0px" y="0px"
	 viewBox="0 0 200 200" enable-background="new 0 0 200 200" xml:space="preserve">
<rect fill="#A9BD38" width="200" height="200"/>
<g>
	<path id="path32192" fill="#FFFFFF" d="M148.189,117.22c-0.778,0-1.492-0.305-2.028-0.788c0.179-1.566,0.305-3.152,0.326-4.76
		c0.483-0.326,1.072-0.525,1.702-0.525c1.681,0,3.026,1.355,3.026,3.037S149.87,117.22,148.189,117.22 M51.801,117.21
		c-1.671,0-3.016-1.345-3.016-3.026c0-1.692,1.345-3.037,3.016-3.037c0.63,0,1.219,0.2,1.713,0.525
		c0.011,1.608,0.126,3.184,0.315,4.739C53.282,116.905,52.578,117.21,51.801,117.21 M148.714,99.073
		c-1.25,0-2.459,0.179-3.615,0.452c-4.56-18.01-19.597-31.828-38.269-34.581c-0.273-3.131,0.925-8.07,8.795-12.819
		c0.179-0.105-0.242-0.473-0.242-0.473s-13.156,4.172-16.14,12.399c0.126-2.574-0.799-6.42-6.515-9.173c0,0-0.462,0.158-0.231,0.357
		c1.124,1.051,4.75,4.539,3.215,9.415C75.874,66.457,59.65,80.706,54.901,99.525c-1.156-0.273-2.364-0.452-3.615-0.452
		c-8.343,0-15.1,6.756-15.1,15.11c0,8.343,6.756,15.11,15.1,15.11c1.944,0,3.804-0.399,5.506-1.072
		c1.303,3.247,2.953,6.305,4.897,9.131l12.599-8.469c-0.053-0.042-0.116-0.084-0.168-0.116c-3.31-4.266-5.338-10.529-5.674-16.781
		c-0.368-6.883,1.313-13.723,5.685-17.748c9.079-7.702,18.956-4.203,25.124,3.215h1.66c6.189-7.25,15.961-10.634,24.935-3.005
		c4.34,3.993,6.031,10.718,5.706,17.516c-0.305,6.305-2.343,12.672-5.664,16.97l12.42,8.417c1.933-2.837,3.594-5.895,4.876-9.131
		c1.713,0.673,3.573,1.072,5.527,1.072c8.333,0,15.1-6.767,15.1-15.11C163.814,105.83,157.047,99.073,148.714,99.073"/>
</g>
</svg>
