<?xml version="1.0" encoding="utf-8"?>
<!-- Generator: Adobe Illustrator 17.1.0, SVG Export Plug-In . SVG Version: 6.00 Build 0)  -->
<!DOCTYPE svg PUBLIC "-//W3C//DTD SVG 1.1//EN" "http://www.w3.org/Graphics/SVG/1.1/DTD/svg11.dtd">
<svg version="1.1" id="Layer_1" xmlns="http://www.w3.org/2000/svg" xmlns:xlink="http://www.w3.org/1999/xlink" x="0px" y="0px"
	 viewBox="0 0 200 200" enable-background="new 0 0 200 200" xml:space="preserve">
<rect fill="#221F1F" width="200" height="200"/>
<g>
	<path id="path8" fill="#FF9900" d="M154.22,142.117c-14.42,10.629-35.321,16.3-53.317,16.3c-25.233,0-47.948-9.333-65.134-24.855
		c-1.35-1.221-0.14-2.884,1.48-1.933c18.546,10.791,41.478,17.283,65.166,17.283c15.976,0,33.55-3.305,49.709-10.164
		C154.566,137.709,156.608,140.345,154.22,142.117"/>
	<path id="path10" fill="#FF9900" d="M160.215,135.257c-1.836-2.355-12.184-1.113-16.829-0.562
		c-1.415,0.173-1.631-1.059-0.356-1.944c8.242-5.8,21.765-4.126,23.342-2.182c1.577,1.955-0.41,15.511-8.155,21.981
		c-1.188,0.994-2.322,0.464-1.793-0.853C158.163,147.355,162.062,137.623,160.215,135.257"/>
	<path fill="#FFFFFF" d="M128.454,117.308c-2.248-3.113-4.635-5.638-4.635-11.397V86.748c0-8.111,0.571-15.566-5.413-21.152
		c-4.722-4.531-12.539-6.122-18.523-6.122c-11.691,0-24.749,4.358-27.499,18.817c-0.277,1.539,0.83,2.352,1.833,2.577l11.934,1.28
		c1.107-0.052,1.92-1.141,2.127-2.248c1.02-4.981,5.206-7.385,9.893-7.385c2.525,0,5.396,0.934,6.901,3.2
		c1.712,2.525,1.487,5.984,1.487,8.907v1.591c-7.126,0.813-16.448,1.332-23.123,4.272c-7.696,3.321-13.11,10.118-13.11,20.097
		c0,12.781,8.059,19.163,18.402,19.163c8.751,0,13.525-2.058,20.27-8.941c2.248,3.234,2.975,4.808,7.056,8.198
		c0.917,0.484,2.093,0.432,2.906-0.294l0.035,0.035c2.456-2.179,6.918-6.071,9.426-8.163
		C129.423,119.746,129.25,118.415,128.454,117.308z M104.258,111.773c-1.954,3.459-5.05,5.586-8.509,5.586
		c-4.722,0-7.471-3.597-7.471-8.907c0-10.481,9.391-12.383,18.281-12.383v2.663C106.559,103.524,106.68,107.519,104.258,111.773z"/>
</g>
</svg>
