<?xml version="1.0" encoding="utf-8"?>
<!-- Generator: Adobe Illustrator 17.1.0, SVG Export Plug-In . SVG Version: 6.00 Build 0)  -->
<!DOCTYPE svg PUBLIC "-//W3C//DTD SVG 1.1//EN" "http://www.w3.org/Graphics/SVG/1.1/DTD/svg11.dtd">
<svg version="1.1" id="Layer_1" xmlns="http://www.w3.org/2000/svg" xmlns:xlink="http://www.w3.org/1999/xlink" x="0px" y="0px"
	 viewBox="0 0 200 200" enable-background="new 0 0 200 200" xml:space="preserve">
<rect fill="#BE1E2D" width="200" height="200"/>
<g>
	<g>
		<g>
			<polygon fill="#FFFFFF" points="66.852,55.522 73.943,55.522 78.513,72.106 78.956,72.106 83.312,55.522 90.468,55.522 
				82.273,79.802 82.273,97.013 75.234,97.013 75.234,80.579 			"/>
			<path fill="#FFFFFF" d="M90.974,73.408c0-2.375,0.84-4.266,2.525-5.67c1.681-1.403,3.947-2.109,6.788-2.109
				c2.589,0,4.709,0.743,6.367,2.229c1.644,1.478,2.469,3.384,2.469,5.718v15.812c0,2.619-0.81,4.668-2.424,6.161
				c-1.629,1.493-3.857,2.236-6.698,2.236c-2.735,0-4.926-0.773-6.566-2.304c-1.639-1.538-2.461-3.609-2.461-6.214V73.408z
				 M97.409,89.847c0,0.844,0.225,1.486,0.668,1.951c0.443,0.458,1.081,0.687,1.906,0.687c0.848,0,1.52-0.236,2.019-0.698
				c0.503-0.476,0.75-1.122,0.75-1.94V73.172c0-0.664-0.255-1.208-0.762-1.617c-0.51-0.416-1.178-0.619-2.008-0.619
				c-0.762,0-1.381,0.203-1.861,0.619c-0.473,0.409-0.713,0.953-0.713,1.617V89.847z"/>
			<path fill="#FFFFFF" d="M132.041,66.403v30.61h-6.259v-3.377c-1.141,1.238-2.341,2.199-3.595,2.844
				c-1.246,0.649-2.454,0.976-3.624,0.976c-1.456,0-2.537-0.458-3.272-1.366c-0.728-0.916-1.096-2.281-1.096-4.101V66.403h6.244
				v23.466c0,0.728,0.143,1.253,0.405,1.576c0.255,0.323,0.683,0.488,1.268,0.488c0.458,0,1.043-0.214,1.749-0.645
				c0.698-0.428,1.343-0.976,1.921-1.651V66.403H132.041z"/>
		</g>
		<g>
			<path fill="#FFFFFF" d="M80.75,106.056H61.539v5.471h6.476v32.19h6.259v-32.19h6.476V106.056z"/>
			<path fill="#FFFFFF" d="M93.499,137.034c-0.525,0.6-1.095,1.103-1.726,1.486c-0.623,0.394-1.145,0.593-1.546,0.593
				c-0.522,0-0.901-0.15-1.141-0.45c-0.225-0.285-0.345-0.765-0.345-1.418v-21.316h-5.553v23.237c0,1.658,0.33,2.889,0.976,3.722
				c0.657,0.829,1.613,1.238,2.904,1.238c1.043,0,2.116-0.293,3.223-0.889c1.114-0.589,2.176-1.441,3.208-2.57v3.05h5.553v-27.788
				h-5.553V137.034z"/>
			<path fill="#FFFFFF" d="M117.81,117.365c-0.923-1.182-2.267-1.771-4.026-1.771c-0.863,0-1.715,0.217-2.563,0.657
				c-0.833,0.431-1.628,1.092-2.379,1.925v-12.119h-5.613v37.66h5.613v-2.127c0.724,0.848,1.523,1.478,2.375,1.883
				c0.845,0.402,1.812,0.601,2.904,0.601c1.643,0,2.908-0.525,3.775-1.568c0.871-1.05,1.306-2.567,1.306-4.533V122.55
				C119.202,120.28,118.74,118.551,117.81,117.365z M113.479,137.214c0,0.893-0.165,1.523-0.48,1.914
				c-0.323,0.39-0.818,0.585-1.501,0.585c-0.469,0-0.912-0.098-1.339-0.3c-0.428-0.195-0.871-0.525-1.317-0.979v-17.309
				c0.379-0.383,0.758-0.675,1.144-0.848c0.387-0.188,0.781-0.27,1.178-0.27c0.747,0,1.324,0.233,1.73,0.72
				c0.394,0.48,0.585,1.193,0.585,2.139V137.214z"/>
			<path fill="#FFFFFF" d="M138.461,130.482v-7.084c0-2.627-0.679-4.645-2.045-6.048c-1.366-1.411-3.32-2.116-5.864-2.116
				c-2.488,0-4.507,0.762-6.079,2.274c-1.572,1.523-2.364,3.489-2.364,5.891v12.487c0,2.672,0.724,4.78,2.15,6.304
				c1.426,1.527,3.388,2.289,5.876,2.289c2.769,0,4.848-0.713,6.232-2.154c1.404-1.441,2.094-3.594,2.094-6.439v-1.426h-5.715v1.268
				c0,1.629-0.191,2.686-0.552,3.159c-0.368,0.488-1.009,0.728-1.932,0.728c-0.886,0-1.512-0.277-1.884-0.848
				c-0.364-0.562-0.54-1.576-0.54-3.039v-5.245H138.461z M127.839,123.357c0-1.16,0.184-2,0.574-2.495
				c0.387-0.51,1.017-0.758,1.902-0.758c0.845,0,1.471,0.248,1.846,0.758c0.387,0.495,0.586,1.336,0.586,2.495v2.803h-4.908V123.357
				z"/>
		</g>
	</g>
</g>
</svg>
