<?xml version="1.0" encoding="utf-8"?>
<!-- Generator: Adobe Illustrator 17.1.0, SVG Export Plug-In . SVG Version: 6.00 Build 0)  -->
<!DOCTYPE svg PUBLIC "-//W3C//DTD SVG 1.1//EN" "http://www.w3.org/Graphics/SVG/1.1/DTD/svg11.dtd">
<svg version="1.1" id="Layer_1" xmlns="http://www.w3.org/2000/svg" xmlns:xlink="http://www.w3.org/1999/xlink" x="0px" y="0px"
	 viewBox="0 0 200 200" enable-background="new 0 0 200 200" xml:space="preserve">
<linearGradient id="SVGID_1_" gradientUnits="userSpaceOnUse" x1="100" y1="1" x2="100" y2="199.6454">
	<stop  offset="0" style="stop-color:#90B91B"/>
	<stop  offset="0.5092" style="stop-color:#85B017"/>
	<stop  offset="1" style="stop-color:#6F9D10"/>
</linearGradient>
<rect fill="url(#SVGID_1_)" width="200" height="200"/>
<g>
	<g>
		<g>
			<path fill="#FFFFFF" d="M146.074,114.928c-5.252,2.946-10.967,4.349-16.59,4.349c-3.664,0-7.293-0.607-10.358-1.83
				c-5.602,5.055-11.626,8.592-14.664,10.236c4.394,6.972,11.385,12.331,20.021,14.483c2.671,0.671,5.35,0.98,7.984,0.98
				c5.904,0,11.588-1.614,16.417-4.219c0.712-2.759,1.069-5.593,1.069-8.464C149.953,125.192,148.692,119.86,146.074,114.928z"/>
			<path fill="#FFFFFF" d="M140.428,73.393c-0.395-0.104-0.767-0.274-1.169-0.362l-0.008,0.045
				C139.661,73.148,140.026,73.305,140.428,73.393z"/>
			<path fill="#FFFFFF" d="M139.228,73.34c-0.993,6.631-3.863,12.53-7.886,16.917c0.212,1.169,0.357,2.442,0.357,3.779
				c-0.016,7.758-4.02,14.504-9.022,19.937c1.433,0.176,2.876,0.274,4.309,0.274c7.127,0,14.313-2.285,20.392-7.02
				c7.02-5.508,11.248-13.281,12.469-21.204c-4.729-6.221-11.679-10.685-19.42-12.629c-0.402-0.088-0.767-0.245-1.177-0.317
				L139.228,73.34z"/>
			<path fill="#FFFFFF" d="M133.954,67.67c0-8.932-3.521-17.028-9.023-22.888c-0.167,0-0.326,0-0.479,0
				c-7.9,0-14.821,2.807-21.098,8.485c5.996,6.376,8.152,14.464,8.152,22.547c0,0.653-0.023,1.297-0.038,1.928
				c1.35-0.344,2.718-0.506,4.06-0.506c0.099,0,0.212,0,0.357,0c5.161,0.101,10.36,2.668,13.341,7.494
				C132.215,79.737,133.954,73.915,133.954,67.67z"/>
			<path fill="#FFFFFF" d="M74.341,45.373c-0.494,0-0.964,0-1.139-0.098c-5.397,5.928-8.637,13.761-8.637,22.291
				c0,0.12,0,0.226-0.047,0.293c0.374,0,0.754-0.013,1.14-0.013c9.092,0,17.409,3.619,23.307,9.449
				c4.948,0.349,10.011,2.975,12.679,8.187c1.429-2.802,3.554-4.847,5.8-5.894c0-0.373,0.015-0.759,0.015-1.142
				c0-9.135-3.78-18.243-11.133-24.755C90.006,48.09,82.157,45.373,74.341,45.373z"/>
			<path fill="#FFFFFF" d="M84.639,77.931c0,0,0,0-0.007,0v0.008C84.633,77.931,84.639,77.931,84.639,77.931z"/>
			<path fill="#FFFFFF" d="M83.614,77.763c-4.97-2.898-10.677-4.522-16.665-4.522c-1.922,0-3.879,0.165-5.815,0.517
				c-8.802,1.579-16.163,6.48-20.945,12.916c1.298,7.968,5.51,15.468,12.309,20.771c4.964-6.661,11.923-10.965,19.118-12.347
				c0-0.335-0.016-0.714-0.016-1.071C71.587,85.004,77.194,79.412,83.614,77.763z"/>
			<path fill="#FFFFFF" d="M54.486,115.005c-2.632,4.948-3.884,10.24-3.884,15.475c0,3.127,0.441,6.221,1.122,8.97
				c4.819,2.642,10.268,4.069,15.899,4.069c2.658,0,5.357-0.325,8.075-0.991c-0.833-3.004-1.237-6.008-1.237-8.986
				c0-7.084,2.247-13.885,6.229-19.515c-3.838-4.144-7.095-9.047-8.436-14.594C64.877,102.172,58.448,107.516,54.486,115.005z"/>
			<path fill="#FFFFFF" d="M82.499,145.794c0,0,0,0-0.008,0l-0.356,0.17h0.013L82.499,145.794z"/>
			<path fill="#FFFFFF" d="M100.425,162.87c7.429-3.212,13.706-9.108,17.189-17.007c-8.469-3.516-14.729-10.104-17.894-17.705
				c-2.708-1.396-9.699-5.312-16.066-11.171c-2.408,4.674-3.69,9.882-3.69,15.192c0,4.501,0.895,9.076,2.884,13.455
				C86.497,153.81,93.048,159.759,100.425,162.87z"/>
			<path fill="#FFFFFF" d="M82.848,145.634l-0.357,0.16c0.008,0,0.008,0,0.008,0L82.848,145.634z"/>
		</g>
		<g opacity="0.14">
			<path fill="#FFFFFF" d="M130.192,120.761c5.609,0,11.308-1.4,16.549-4.33c-0.242-0.517-0.434-1.045-0.706-1.554
				c-5.252,2.945-10.967,4.349-16.589,4.349c-3.664,0-7.295-0.607-10.357-1.83c-5.603,5.055-11.628,8.592-14.664,10.237
				c0.304,0.482,0.65,0.94,0.98,1.403c3.1-1.691,8.954-5.167,14.429-10.105C122.898,120.153,126.527,120.761,130.192,120.761z"/>
			<path fill="#FFFFFF" d="M139.223,72.979l-0.011,0.045c0.41,0.072,0.777,0.229,1.177,0.317
				C139.995,73.237,139.623,73.067,139.223,72.979z"/>
			<path fill="#FFFFFF" d="M132.051,91.74c4.024-4.386,6.893-10.285,7.886-16.917l0.021-0.263l0.011-0.045
				c0.4,0.088,0.772,0.258,1.167,0.362c7.302,1.833,13.878,5.931,18.57,11.609c0.029-0.172,0.077-0.344,0.104-0.515
				c-4.727-6.221-11.678-10.685-19.42-12.629c-0.4-0.088-0.767-0.245-1.177-0.317l-0.021,0.264
				c-0.993,6.631-3.862,12.53-7.886,16.917c0.21,1.169,0.357,2.442,0.357,3.779c-0.016,7.758-4.019,14.504-9.02,19.937
				c0.655,0.08,1.313,0.08,1.971,0.125c4.408-5.176,7.782-11.42,7.795-18.527C132.408,94.182,132.261,92.909,132.051,91.74z"/>
			<path fill="#FFFFFF" d="M125.161,46.265c0.152,0,0.312,0,0.479,0c1.976,2.105,3.686,4.509,5.079,7.127
				c-1.507-3.218-3.47-6.155-5.824-8.662c-0.168,0-0.328,0-0.479,0c-7.902,0-14.823,2.807-21.098,8.485
				c0.386,0.41,0.711,0.846,1.065,1.269C110.572,48.995,117.393,46.265,125.161,46.265z"/>
			<path fill="#FFFFFF" d="M108.681,61.406c1.971,4.531,2.786,9.442,2.786,14.356c0,0.652-0.022,1.297-0.037,1.928
				c0.258-0.065,0.519-0.093,0.777-0.146c0-0.083,0.005-0.163,0.005-0.246C112.213,71.819,111.185,66.353,108.681,61.406z"/>
			<path fill="#FFFFFF" d="M73.911,46.758c0.176,0.099,0.644,0.099,1.14,0.099c7.814,0,15.665,2.716,21.985,8.317
				c3.294,2.916,5.827,6.369,7.67,10.096c-1.864-4.322-4.671-8.316-8.416-11.631c-6.32-5.601-14.171-8.317-21.985-8.317
				c-0.495,0-0.964,0-1.14-0.099c-5.396,5.928-8.637,13.761-8.637,22.291c0,0.12,0,0.226-0.045,0.293
				c0.277,0,0.565-0.007,0.85-0.009C65.636,59.757,68.781,52.393,73.911,46.758z"/>
			<path fill="#FFFFFF" d="M84.601,77.879c0,0,0,0-0.005,0v0.008C84.595,77.879,84.601,77.879,84.601,77.879z"/>
			<path fill="#FFFFFF" d="M40.897,88.158c4.783-6.437,12.144-11.337,20.943-12.916c1.939-0.352,3.894-0.517,5.816-0.517
				c5.161,0,10.083,1.268,14.536,3.457c0.461-0.163,0.913-0.349,1.385-0.47c-4.97-2.898-10.679-4.522-16.666-4.522
				c-1.923,0-3.878,0.165-5.816,0.517c-8.799,1.579-16.16,6.479-20.944,12.916c0.548,3.361,1.646,6.626,3.204,9.69
				C42.192,93.7,41.356,90.962,40.897,88.158z"/>
			<path fill="#FFFFFF" d="M80.654,113.976c-2.322-2.508-4.423-5.299-6.027-8.337c1.451,3.179,3.47,6.1,5.766,8.738
				C80.483,114.245,80.56,114.106,80.654,113.976z"/>
			<path fill="#FFFFFF" d="M55.193,116.489c3.915-7.396,10.237-12.69,17.497-15.457c-0.17-0.545-0.338-1.092-0.474-1.65
				c-7.377,2.738-13.806,8.083-17.769,15.572c-2.631,4.948-3.883,10.24-3.883,15.473c0,3.129,0.442,6.221,1.124,8.972
				c0.149,0.083,0.309,0.136,0.458,0.216c-0.509-2.408-0.836-5.012-0.836-7.654C51.311,126.73,52.562,121.437,55.193,116.489z"/>
			<path fill="#FFFFFF" d="M82.097,145.91h0.016l0.349-0.168c0,0,0,0-0.008,0L82.097,145.91z"/>
			<path fill="#FFFFFF" d="M117.1,146.763c0.154-0.32,0.333-0.623,0.477-0.953c-7.361-3.052-13.044-8.432-16.488-14.778
				C104.239,137.665,109.776,143.375,117.1,146.763z"/>
			<path fill="#FFFFFF" d="M84.361,118.47c6.354,5.846,13.324,9.757,16.046,11.157c-0.245-0.506-0.509-1.007-0.724-1.523
				c-2.709-1.395-9.7-5.31-16.067-11.169c-2.407,4.674-3.689,9.881-3.689,15.191c0,4.501,0.895,9.079,2.884,13.455
				c0.194,0.437,0.429,0.839,0.639,1.262c-1.904-4.293-2.778-8.773-2.778-13.183C80.672,128.349,81.953,123.144,84.361,118.47z"/>
			<path fill="#FFFFFF" d="M82.462,145.743l0.349-0.163l-0.357,0.163C82.462,145.743,82.462,145.743,82.462,145.743z"/>
		</g>
	</g>
</g>
</svg>
