<?xml version="1.0" encoding="utf-8"?>
<!-- Generator: Adobe Illustrator 17.1.0, SVG Export Plug-In . SVG Version: 6.00 Build 0)  -->
<!DOCTYPE svg PUBLIC "-//W3C//DTD SVG 1.1//EN" "http://www.w3.org/Graphics/SVG/1.1/DTD/svg11.dtd">
<svg version="1.1" id="Layer_1" xmlns="http://www.w3.org/2000/svg" xmlns:xlink="http://www.w3.org/1999/xlink" x="0px" y="0px"
	 viewBox="0 0 200 200" enable-background="new 0 0 200 200" xml:space="preserve">
<radialGradient id="SVGID_1_" cx="100" cy="100" r="100" gradientUnits="userSpaceOnUse">
	<stop  offset="0" style="stop-color:#FFFFFF"/>
	<stop  offset="1" style="stop-color:#99D8E7"/>
</radialGradient>
<rect fill="url(#SVGID_1_)" width="200" height="200"/>
<g>
	<g>
		<g>
			
				<radialGradient id="SVGID_2_" cx="100" cy="100" r="27.5065" gradientTransform="matrix(1.9 0 0 1.9 -90 -90)" gradientUnits="userSpaceOnUse">
				<stop  offset="0" style="stop-color:#FFFFFF"/>
				<stop  offset="1" style="stop-color:#99D8E7"/>
			</radialGradient>
			<path fill="url(#SVGID_2_)" d="M100.001,52.68c-30.568,0-54.512,38.889-56.777,71.736c9.588,16.643,32.719,22.903,56.777,22.903
				c24.055,0,47.187-6.26,56.776-22.903C154.51,91.569,130.566,52.68,100.001,52.68z"/>
			<g id="mound_5_">
				
					<radialGradient id="SVGID_3_" cx="80.3598" cy="86.5185" r="27.9714" gradientTransform="matrix(1.7256 0 0 1.9171 -41.2589 -77.837)" gradientUnits="userSpaceOnUse">
					<stop  offset="0" style="stop-color:#CCE4B7"/>
					<stop  offset="1" style="stop-color:#65BC51"/>
				</radialGradient>
				<path fill="url(#SVGID_3_)" d="M147.887,122.418c0.118,9.766-22.014,19.031-49.198,19.699
					c-27.187-0.669-49.319-9.933-49.201-19.699c-0.002-9.593,21.206-29.392,49.201-29.888
					C126.681,93.028,147.89,112.825,147.887,122.418z"/>
			</g>
		</g>
		<polygon fill="#A6A6A6" points="132.631,86.259 121.032,81.62 109.435,86.259 109.435,123.467 121.032,128.107 132.631,123.467 		
			"/>
		<polygon fill="#CCCCCC" points="109.435,123.467 120.943,128.073 120.943,88.379 120.531,88.379 109.435,86.259 		"/>
		<polygon fill="#F2F2F2" points="132.631,86.259 121.032,90.898 109.435,86.259 121.032,81.62 		"/>
		<polygon fill="#A6A6A6" points="90.562,102.862 78.965,92.126 67.369,96.764 67.369,123.467 78.965,128.107 90.562,123.467 		"/>
		<polygon fill="#CCCCCC" points="67.369,123.467 78.876,128.073 78.876,98.424 78.466,92.326 67.369,90.205 		"/>
		<polygon fill="#F2F2F2" points="90.562,96.304 78.965,100.942 67.369,90.205 78.965,85.568 		"/>
		<path fill="#FFF8D8" d="M121.032,81.62l-11.597,4.64v37.208l11.507,4.605v-0.001l0.09,0.036l11.598-4.64V86.259L121.032,81.62z
			 M78.965,85.568l-11.596,4.637v33.263l11.506,4.605v-0.001l0.09,0.036l11.597-4.64v-20.605l-4.947-4.58l4.947-1.979L78.965,85.568
			z"/>
		<g>
			<linearGradient id="SVGID_4_" gradientUnits="userSpaceOnUse" x1="140.2672" y1="126.3175" x2="76.7537" y2="89.6479">
				<stop  offset="0" style="stop-color:#B3B3B3"/>
				<stop  offset="1" style="stop-color:#666666"/>
			</linearGradient>
			<polygon fill="url(#SVGID_4_)" points="113.795,73.567 99.999,68.05 86.204,73.567 82.831,130.623 99.999,137.491 
				117.166,130.623 			"/>
			<linearGradient id="SVGID_5_" gradientUnits="userSpaceOnUse" x1="114.2574" y1="127.2729" x2="84.0173" y2="74.8956">
				<stop  offset="0" style="stop-color:#808080"/>
				<stop  offset="0.6517" style="stop-color:#333333"/>
				<stop  offset="1" style="stop-color:#333333"/>
			</linearGradient>
			<path opacity="0.5" fill="url(#SVGID_5_)" d="M116.856,125.352l-0.077,0.03c-1.485-0.607-4.894-2.002-8.227-3.364l7.546-9.436
				l-0.028-0.516l-0.118,0.047c-1.114-0.501-4.495-2.021-7.835-3.524c3.192-4.138,6.335-8.212,7.194-9.328l-0.028-0.48l-0.045,0.018
				c-0.99-0.48-4.252-2.061-7.468-3.618c3.012-3.985,5.961-7.887,6.771-8.957l-0.032-0.525l-0.099,0.038l-7.115-3.72
				c2.516-3.523,5.016-7.029,6.133-8.594l-0.297-0.119l-6.113,8.569l-6.875-3.594l-0.061-0.12L99.999,78.2l-0.085-0.044l-0.061,0.12
				l-6.874,3.594l-6.113-8.569l-0.297,0.119c1.116,1.565,3.618,5.071,6.131,8.594l-7.113,3.72l-0.1-0.038l-0.029,0.525
				c0.808,1.07,3.757,4.972,6.771,8.957c-3.218,1.557-6.479,3.137-7.471,3.618l-0.044-0.018l-0.028,0.479
				c0.858,1.116,4.002,5.191,7.194,9.33c-3.341,1.503-6.719,3.023-7.835,3.524l-0.117-0.047l-0.031,0.515l7.548,9.437
				c-3.332,1.362-6.742,2.757-8.228,3.364l-0.074-0.03l-0.024,0.407l0.003-0.001l16.642,6.655l0.01,0.013l0.005-0.005l0.22,0.088
				l0.219-0.088l0.006,0.005l0.009-0.013l16.643-6.655l0.003,0.001L116.856,125.352z M108.253,121.893
				c-3.624-1.481-7.071-2.891-7.771-3.177l15.166-6.066C114.83,113.672,111.582,117.731,108.253,121.893z M99.962,105.294
				l0.037,0.017l0.038-0.015c0.874,0.393,4.206,1.892,7.593,3.415c-3.264,4.235-6.563,8.512-7.502,9.732l-0.129,0.051l-0.129-0.051
				c-0.942-1.222-4.238-5.498-7.503-9.732C95.754,107.187,99.089,105.687,99.962,105.294z M99.948,104.874
				c-0.876-1.159-4.086-5.403-7.243-9.581c3.185-1.542,6.309-3.058,7.115-3.448l0.179,0.073l0.179-0.072
				c0.807,0.391,3.93,1.905,7.115,3.447c-3.158,4.179-6.367,8.423-7.244,9.582l-0.05,0.019L99.948,104.874z M115.55,112.273
				l-14.853,5.943c1.009-1.312,4.112-5.332,7.227-9.373C111.259,110.343,114.568,111.831,115.55,112.273z M107.826,108.458
				c-3.4-1.528-6.674-3.003-7.386-3.324l14.388-5.756C113.967,100.494,110.942,104.419,107.826,108.458z M114.849,98.954
				l-14.24,5.697c0.956-1.266,3.965-5.245,6.971-9.218C110.789,96.988,113.985,98.536,114.849,98.954z M107.484,95.041
				c-3.197-1.549-6.263-3.035-6.914-3.351l13.543-5.419C113.368,87.258,110.475,91.085,107.484,95.041z M107.114,82.274
				c3.025,1.582,6.023,3.149,6.918,3.618l-13.289,5.315C101.627,89.965,104.353,86.144,107.114,82.274z M99.999,78.553
				c0.82,0.427,3.802,1.987,6.837,3.575l-6.629,9.291l-0.208,0.083l-0.208-0.083l-6.631-9.291
				C96.199,80.54,99.18,78.979,99.999,78.553z M92.885,82.274c2.759,3.869,5.487,7.69,6.372,8.931L85.968,85.89
				C86.861,85.423,89.86,83.856,92.885,82.274z M85.884,86.271l13.545,5.417c-0.649,0.315-3.718,1.802-6.915,3.352
				C89.523,91.085,86.631,87.258,85.884,86.271z M92.421,95.433c3.004,3.974,6.01,7.953,6.969,9.218l-14.24-5.697
				C86.013,98.536,89.211,96.988,92.421,95.433z M85.172,99.378l14.388,5.756c-0.712,0.32-3.988,1.795-7.388,3.324
				C89.057,104.419,86.031,100.494,85.172,99.378z M92.075,108.842c3.115,4.04,6.215,8.06,7.227,9.372l-14.855-5.941
				C85.432,111.831,88.739,110.343,92.075,108.842z M84.352,112.651l15.166,6.066c-0.698,0.284-4.147,1.693-7.772,3.177
				C88.418,117.731,85.17,113.673,84.352,112.651z M83.636,125.548l8.013-3.278l7.627,9.533L83.636,125.548z M100.135,132.039
				l-0.136,0.054l-0.137-0.055c-0.765-0.956-4.353-5.442-7.913-9.891l7.985-3.265l0.065,0.028l0.067-0.028l7.983,3.265
				C104.489,126.597,100.899,131.086,100.135,132.039z M100.723,131.804l7.627-9.535l8.013,3.278L100.723,131.804z"/>
			<linearGradient id="SVGID_6_" gradientUnits="userSpaceOnUse" x1="109.9346" y1="131.6251" x2="78.8621" y2="77.806">
				<stop  offset="0" style="stop-color:#CCCCCC"/>
				<stop  offset="0.4382" style="stop-color:#CCCCCC"/>
				<stop  offset="1" style="stop-color:#808080"/>
			</linearGradient>
			<polygon fill="url(#SVGID_6_)" points="82.831,130.623 99.866,137.438 99.892,68.288 99.404,68.288 86.204,73.567 			"/>
			<path opacity="0.4" fill="#666666" d="M99.869,132.039l-0.006-0.001c-0.765-0.956-4.353-5.442-7.913-9.891l7.924-3.24v-0.465
				H99.87c-0.942-1.222-4.238-5.498-7.503-9.732c3.295-1.482,6.533-2.937,7.512-3.378v-0.552c-0.961-1.267-4.089-5.406-7.174-9.487
				c3.185-1.542,6.309-3.058,7.115-3.448l0.064,0.027v-0.416l-0.092-0.036l-6.631-9.291c2.918-1.526,5.781-3.023,6.728-3.518v-0.402
				l-0.036,0.069l-6.874,3.594l-6.113-8.569l-0.15,0.062l-0.147,0.058c1.116,1.565,3.618,5.071,6.131,8.594l-7.113,3.72l-0.1-0.038
				l-0.029,0.525c0.81,1.07,3.758,4.972,6.771,8.957c-3.218,1.557-6.479,3.137-7.471,3.618l-0.044-0.018l-0.028,0.479
				c0.858,1.116,4.002,5.191,7.194,9.33c-3.341,1.503-6.719,3.023-7.835,3.524l-0.117-0.047l-0.031,0.515l7.548,9.437
				c-3.332,1.362-6.742,2.757-8.228,3.364l-0.074-0.03l-0.024,0.407l0.003-0.001l16.642,6.655l0.01,0.013l0.005-0.005l0.09,0.035
				V132.039z M92.885,82.274c2.759,3.869,5.487,7.69,6.372,8.931L85.968,85.89C86.861,85.423,89.86,83.856,92.885,82.274z
				 M85.884,86.271l13.545,5.417c-0.649,0.315-3.718,1.802-6.915,3.352C89.523,91.085,86.631,87.258,85.884,86.271z M92.421,95.433
				c3.004,3.974,6.01,7.953,6.969,9.218l-14.24-5.697C86.013,98.536,89.211,96.988,92.421,95.433z M85.172,99.378l14.388,5.756
				c-0.712,0.32-3.988,1.795-7.388,3.324C89.057,104.419,86.031,100.494,85.172,99.378z M92.075,108.842
				c3.115,4.04,6.215,8.06,7.227,9.372l-14.855-5.941C85.432,111.831,88.739,110.343,92.075,108.842z M84.352,112.651l15.166,6.066
				c-0.698,0.284-4.147,1.693-7.772,3.177C88.418,117.731,85.17,113.673,84.352,112.651z M83.636,125.548l8.013-3.278l7.627,9.533
				L83.636,125.548z"/>
			<g>
				<polygon fill="#F2F2F2" points="113.795,73.567 99.999,79.087 86.204,73.567 99.999,68.05 				"/>
				<g>
					<path fill="#999999" d="M103.977,71.658c0,0.347-0.282,0.63-0.63,0.63l0,0c-0.349,0-0.628-0.283-0.628-0.63v-5.735
						c0-0.348,0.279-0.629,0.628-0.629l0,0c0.348,0,0.63,0.281,0.63,0.629V71.658z"/>
					<path fill="#999999" d="M103.632,66.308c0,0.158-0.128,0.283-0.286,0.283l0,0c-0.158,0-0.283-0.126-0.283-0.283v-8.116
						c0-0.158,0.126-0.284,0.283-0.284l0,0c0.158,0,0.286,0.127,0.286,0.284V66.308z"/>
				</g>
				<g>
					<path fill="#999999" d="M97.053,74.596c0,0.347-0.282,0.629-0.63,0.629l0,0c-0.348,0-0.628-0.282-0.628-0.629v-5.734
						c0-0.349,0.279-0.63,0.628-0.63l0,0c0.349,0,0.63,0.282,0.63,0.63V74.596z"/>
					<path fill="#999999" d="M96.708,69.245c0,0.158-0.127,0.284-0.286,0.284l0,0c-0.156,0-0.284-0.127-0.284-0.284V61.13
						c0-0.159,0.128-0.284,0.284-0.284l0,0c0.159,0,0.286,0.126,0.286,0.284V69.245z"/>
				</g>
			</g>
		</g>
		<path fill="#9ED6EB" d="M117.166,130.623l-3.372-57.056l-9.818-3.926v-3.718c0-0.243-0.142-0.448-0.345-0.553v-7.179
			c0-0.158-0.128-0.284-0.286-0.284c-0.158,0-0.283,0.127-0.283,0.284v7.179c-0.202,0.104-0.345,0.309-0.345,0.553v3.214
			l-2.72-1.088l-2.946,1.179v-0.366c0-0.243-0.142-0.448-0.345-0.553V61.13c0-0.159-0.127-0.284-0.286-0.284
			c-0.156,0-0.284,0.126-0.284,0.284v7.178c-0.202,0.105-0.343,0.31-0.343,0.555v0.87l-9.591,3.835l-3.373,57.056l17.035,6.815
			v-0.001l0.133,0.054L117.166,130.623z"/>
	</g>
</g>
</svg>
