<?xml version="1.0" encoding="utf-8"?>
<!-- Generator: Adobe Illustrator 17.1.0, SVG Export Plug-In . SVG Version: 6.00 Build 0)  -->
<!DOCTYPE svg PUBLIC "-//W3C//DTD SVG 1.1//EN" "http://www.w3.org/Graphics/SVG/1.1/DTD/svg11.dtd">
<svg version="1.1" id="Layer_1" xmlns="http://www.w3.org/2000/svg" xmlns:xlink="http://www.w3.org/1999/xlink" x="0px" y="0px"
	 viewBox="0 0 200 200" enable-background="new 0 0 200 200" xml:space="preserve">
<linearGradient id="SVGID_1_" gradientUnits="userSpaceOnUse" x1="100" y1="193.0558" x2="100" y2="2.3529">
	<stop  offset="0" style="stop-color:#A5281A"/>
	<stop  offset="1" style="stop-color:#DA4A38"/>
</linearGradient>
<rect fill="url(#SVGID_1_)" width="200" height="200"/>
<g>
	<g>
		<g>
			<polygon fill="#FFFFFF" points="156.356,68.843 142.961,68.843 142.961,55.447 136.263,55.447 136.263,68.843 122.867,68.843 
				122.867,75.541 136.263,75.541 136.263,88.936 142.961,88.936 142.961,75.541 156.356,75.541 			"/>
		</g>
		<g>
			<path fill="#FFFFFF" d="M108.802,110.482c-2.692-2.02-8.549-6.159-8.549-8.937c0-3.257,0.929-4.861,5.83-8.689
				c5.024-3.926,8.58-9.1,8.58-15.519c0-6.993-2.86-13.338-8.238-16.419h7.623l6.488-6.81c0,0-21.442,0-29.037,0
				c-14.735,0-27.013,10.864-27.013,22.816c0,12.213,8.069,21.947,21.924,21.947c0.963,0,1.899-0.05,2.816-0.115
				c-0.899,1.724-1.542,3.645-1.542,5.659c0,3.393,1.866,5.329,4.175,7.574c-1.744,0-3.429,0.047-5.267,0.047
				c-16.868,0-28.677,11.609-28.677,22.752c0,10.97,14.235,17.833,31.103,17.833c19.231,0,31.058-10.913,31.058-21.886
				C120.077,121.938,118.179,117.514,108.802,110.482z M92.022,94.433c-7.827-0.235-15.264-7.415-16.616-17.691
				c-1.351-10.28,3.897-18.145,11.722-17.912c7.824,0.235,14.519,8.667,15.869,18.943C104.347,88.052,99.844,94.666,92.022,94.433z
				 M88.956,147.769c-11.659,0-20.08-7.381-20.08-16.247c0-8.689,9.88-16.184,21.54-16.056c2.72,0.029,5.256,0.466,7.558,1.211
				c6.33,4.401,11.435,7.15,12.717,12.166c0.24,1.015,0.371,2.062,0.371,3.132C111.062,140.841,105.349,147.769,88.956,147.769z"/>
		</g>
	</g>
</g>
</svg>
