<?xml version="1.0" encoding="utf-8"?>
<!-- Generator: Adobe Illustrator 17.1.0, SVG Export Plug-In . SVG Version: 6.00 Build 0)  -->
<!DOCTYPE svg PUBLIC "-//W3C//DTD SVG 1.1//EN" "http://www.w3.org/Graphics/SVG/1.1/DTD/svg11.dtd">
<svg version="1.1" id="Layer_1" xmlns="http://www.w3.org/2000/svg" xmlns:xlink="http://www.w3.org/1999/xlink" x="0px" y="0px"
	 viewBox="0 0 200 200" enable-background="new 0 0 200 200" xml:space="preserve">
<rect fill="#1B75BB" width="200" height="200"/>
<g>
	<g>
		<g>
			<rect x="65.829" y="82.866" fill="#FFFFFF" width="16.924" height="59.235"/>
			<path fill="#FFFFFF" d="M130.433,86.241c-6.3-3.536-15.596-3.83-22.295-0.773v-2.602H91.216v59.235h16.922v-37.884l6.975-3.355
				c1.712-0.822,5.459-0.749,7.046,0.147c1.199,0.665,2.903,3.434,2.903,5.131v35.962h16.924v-35.962
				C141.986,98.361,137.127,89.992,130.433,86.241z"/>
			<path fill="#FFFFFF" d="M74.291,55.366c-5.85,0-10.578,4.735-10.578,10.576c0,5.845,4.727,10.58,10.578,10.58
				s10.578-4.735,10.578-10.58C84.869,60.101,80.142,55.366,74.291,55.366z"/>
		</g>
	</g>
</g>
</svg>
