<?xml version="1.0" encoding="utf-8"?>
<!-- Generator: Adobe Illustrator 17.1.0, SVG Export Plug-In . SVG Version: 6.00 Build 0)  -->
<!DOCTYPE svg PUBLIC "-//W3C//DTD SVG 1.1//EN" "http://www.w3.org/Graphics/SVG/1.1/DTD/svg11.dtd">
<svg version="1.1" id="Layer_1" xmlns="http://www.w3.org/2000/svg" xmlns:xlink="http://www.w3.org/1999/xlink" x="0px" y="0px"
	 viewBox="0 0 200 200" enable-background="new 0 0 200 200" xml:space="preserve">
<rect fill="#F57D00" width="200" height="200"/>
<g>
	<g>
		<path fill="#FFFFFF" d="M151.41,119.445c-0.033-1.757-0.04-3.339-0.046-4.763c-0.03-6.96-0.052-11.988-3.476-16.412
			c-3.877-5.009-9.858-5.858-14.707-6.002c0.817-3.499,1.053-7.379,0.675-11.572c-0.103-13.966-10.495-24.327-24.917-24.725
			l-0.207-0.006l-22.061,0.34l-0.238-0.001c-8.578,0-15.361,2.561-20.158,7.613c-2.967,3.124-6.332,8.582-6.749,17.407l-0.004,0
			l-0.004,0.256c-0.025,0.604-0.035,1.224-0.031,1.86l-0.558,33.465c-0.042,0.674-0.073,1.356-0.081,2.055
			c-0.562,9.742,1.717,17.413,6.776,22.8c5.057,5.385,12.534,8.116,22.221,8.116c0.208,0,0.419-0.001,0.631-0.004h33.703
			l0.082-0.001c8.639-0.073,15.94-2.925,21.111-8.249c5.163-5.314,7.943-12.884,8.04-21.89l0.002-0.144L151.41,119.445z
			 M88.461,75.267l18.849,0.299c4.442,0.071,7.986,3.729,7.915,8.17c-0.07,4.398-3.657,7.916-8.04,7.916
			c-0.043,0-0.087,0-0.13-0.001l-18.849-0.299c-4.442-0.071-7.986-3.729-7.915-8.17C80.362,78.74,84.012,75.225,88.461,75.267z
			 M123.889,128.213H86.192c-4.442,0-8.044-3.601-8.044-8.044c0-4.442,3.601-8.044,8.044-8.044h37.697
			c4.442,0,8.044,3.601,8.044,8.044C131.933,124.612,128.331,128.213,123.889,128.213z"/>
	</g>
</g>
</svg>
