<?xml version="1.0" encoding="utf-8"?>
<!-- Generator: Adobe Illustrator 17.1.0, SVG Export Plug-In . SVG Version: 6.00 Build 0)  -->
<!DOCTYPE svg PUBLIC "-//W3C//DTD SVG 1.1//EN" "http://www.w3.org/Graphics/SVG/1.1/DTD/svg11.dtd">
<svg version="1.1" id="Layer_1" xmlns="http://www.w3.org/2000/svg" xmlns:xlink="http://www.w3.org/1999/xlink" x="0px" y="0px"
	 viewBox="0 0 200 200" enable-background="new 0 0 200 200" xml:space="preserve">
<rect fill="#04BADF" width="200" height="200"/>
<g>
	<g>
		<g>
			<path fill="#FFFFFF" d="M154.306,72.832l-8.629-8.642c-0.694-0.69-1.598-1.07-2.572-1.066c-0.973-0.004-1.884,0.378-2.575,1.063
				l-41.298,41.314L81.157,87.392c-0.676-0.68-1.607-1.07-2.569-1.068c-0.955,0.003-1.892,0.386-2.572,1.061l-8.643,8.634
				c-1.423,1.419-1.428,3.718-0.004,5.138l29.256,29.317c0.586,0.587,1.345,0.951,2.156,1.04c0.137,0.019,0.276,0.027,0.416,0.025
				c0.009,0,0.018,0,0.027-0.001l0.004,0.003c0.976,0.002,1.903-0.383,2.596-1.069l52.481-52.502
				C155.724,76.552,155.725,74.255,154.306,72.832z"/>
		</g>
		<g>
			<path fill="#FFFFFF" d="M151.062,90.616l-44.451,44.47c-1.92,1.901-4.46,2.947-7.163,2.947l-1.973-0.003l-0.415-0.278
				c-1.811-0.431-3.486-1.364-4.81-2.693l-29.246-29.307c-1.917-1.912-2.974-4.456-2.972-7.162c0-2.709,1.057-5.255,2.974-7.164
				l8.653-8.646c1.879-1.869,4.48-2.944,7.158-2.95c2.669,0,5.28,1.088,7.156,2.974l13.484,13.508l28.646-28.658l-19.079-19.079
				c-5.051-5.049-13.313-5.049-18.364,0L48.418,90.818c-5.051,5.049-5.051,13.314,0,18.364l42.243,42.241
				c5.051,5.049,13.313,5.049,18.364,0l42.24-42.241c5.051-5.049,5.051-13.313,0-18.364L151.062,90.616z"/>
		</g>
	</g>
</g>
</svg>
