<?xml version="1.0" encoding="utf-8"?>
<!-- Generator: Adobe Illustrator 17.0.0, SVG Export Plug-In . SVG Version: 6.00 Build 0)  -->
<!DOCTYPE svg PUBLIC "-//W3C//DTD SVG 1.1//EN" "http://www.w3.org/Graphics/SVG/1.1/DTD/svg11.dtd">
<svg version="1.1" id="Layer_1" xmlns="http://www.w3.org/2000/svg" xmlns:xlink="http://www.w3.org/1999/xlink" x="0px" y="0px"
	 width="200px" height="200px" viewBox="0 0 200 200" enable-background="new 0 0 200 200" xml:space="preserve">
<g>
	<path d="M137.106,85.733c-0.05,0.101-2.623,3.238-5.085,7.761c-3.025,5.552-6.143,12.886-7.44,15.419
		c16.699-0.003,41.729-0.003,41.729-0.003S156.288,91.767,137.106,85.733z"/>
	<path d="M152.512,56.906c-26.162,0-39.06,23.009-42.39,30.062c-1.158,2.453-2.316,4.876-3.479,7.269c-13.557,0-30.508,0-30.508,0
		s7.327,14.676,15.339,14.676c0.073,0,4.021,0,7.513,0c-1.95,3.403-3.954,6.628-6.056,9.566c-5.31,7.419-14.302,11.85-24.056,11.85
		c-6.859,0-13.189-2.292-18.274-6.142c0.685-1.037,1.145-2.219,1.319-3.489c0.053-0.376,0.089-0.761,0.089-1.149
		c0-4.3-3.257-7.864-7.536-8.564c-0.501-0.08-1.014-0.133-1.539-0.133c-0.784,0-1.538,0.103-2.264,0.283
		c-1.367-3.454-2.129-7.209-2.129-11.139c0-16.722,13.607-30.326,30.333-30.326c7.891,0,15.369,3.017,21.05,8.496l10.184-10.57
		c-8.43-8.125-19.523-12.6-31.234-12.6c-24.816,0-45.008,20.188-45.008,44.999c0,7.52,1.862,14.608,5.137,20.843
		c0.9-0.341,1.879-0.532,2.904-0.532c0.697,0,1.37,0.095,2.018,0.256c3.34,0.841,5.814,3.71,5.909,7.153
		c0.002,0.065,0.01,0.131,0.01,0.196c0,1.832-0.676,3.514-1.802,4.829c8.06,7.595,18.909,12.264,30.833,12.264
		c14.479,0,27.934-6.722,35.991-17.981c6.978-9.749,12.746-21.546,18.527-33.787c2.398-5.078,12.098-21.654,29.118-21.654
		c21.248,0,23.619-14.676,23.619-14.676H152.512z"/>
	<circle cx="60.372" cy="89.389" r="8.61"/>
</g>
</svg>
