<?xml version="1.0" encoding="utf-8"?>
<!-- Generator: Adobe Illustrator 17.0.0, SVG Export Plug-In . SVG Version: 6.00 Build 0)  -->
<!DOCTYPE svg PUBLIC "-//W3C//DTD SVG 1.1//EN" "http://www.w3.org/Graphics/SVG/1.1/DTD/svg11.dtd">
<svg version="1.1" id="Layer_1" xmlns="http://www.w3.org/2000/svg" xmlns:xlink="http://www.w3.org/1999/xlink" x="0px" y="0px"
	 width="200px" height="200px" viewBox="0 0 200 200" enable-background="new 0 0 200 200" xml:space="preserve">
<path d="M107.21,168.543H89.93c-2.774,0-5.41-0.991-7.423-2.794c-2.023-1.811-3.223-4.32-3.335-6.933
	c-0.686-1.34-4.095-4.296-5.861-5.221c0.009-0.003-0.083-0.03-0.314-0.03c-0.662,0-1.451,0.309-1.876,0.736
	c-3.659,3.656-10.448,3.305-14.49-0.736l-12.219-12.218c-4.102-4.098-4.39-10.52-0.719-14.495c0.47-1.424,0.159-5.9-0.434-7.781
	c-0.156-0.363-1.148-1.096-2.076-1.096c-5.364,0-9.727-4.831-9.727-10.767V89.932c0-5.798,4.327-10.538,9.726-10.758
	c1.34-0.688,4.302-4.101,5.226-5.867c0.129-0.354-0.068-1.55-0.709-2.19c-1.918-1.92-2.869-4.659-2.605-7.516
	c0.239-2.581,1.425-5.056,3.342-6.973L58.65,44.414c3.932-3.935,10.65-4.257,14.483-0.73c0.275,0.078,0.988,0.234,2.382,0.234
	c2.345,0,4.682-0.43,5.412-0.661c0.368-0.156,1.1-1.148,1.1-2.076c0-5.362,4.831-9.724,10.767-9.724h17.274
	c5.796,0,10.538,4.326,10.759,9.724c0.686,1.34,4.096,4.299,5.862,5.227c0-0.003,0-0.003,0-0.003c0.009,0,0.114,0.03,0.314,0.03
	c0.662,0,1.451-0.309,1.876-0.736c3.66-3.656,10.451-3.302,14.49,0.736l12.219,12.221c1.962,1.959,3.124,4.524,3.273,7.225
	c0.15,2.713-0.777,5.341-2.552,7.267c-0.47,1.424-0.161,5.897,0.434,7.781c0.156,0.363,1.149,1.096,2.076,1.096
	c5.362,0,9.726,4.831,9.726,10.767v17.28c0,5.795-4.327,10.535-9.723,10.755c-1.34,0.685-4.305,4.101-5.23,5.867
	c-0.129,0.348,0.068,1.544,0.71,2.187c3.791,3.794,3.459,10.295-0.738,14.489l-12.219,12.221c-2.091,2.091-4.934,3.286-7.803,3.286
	l0,0c-2.528,0-4.885-0.904-6.68-2.556c-0.273-0.081-0.988-0.237-2.385-0.237c-2.342,0-4.674,0.43-5.403,0.661
	c-0.365,0.156-1.098,1.145-1.098,2.07C117.977,164.178,113.146,168.543,107.21,168.543z M72.998,144.336
	c1.652,0,3.237,0.373,4.586,1.075c0.111,0.06,10.81,6.206,10.81,13.011c0,0.189,0.188,0.379,0.269,0.451
	c0.314,0.279,0.775,0.442,1.268,0.442h17.28c0.954,0,1.484-0.457,1.559-0.616c-0.024-4.722,3.222-9.397,7.527-10.758
	c1.658-0.523,4.927-1.087,8.182-1.087c4.01,0,6.831,0.871,8.623,2.665c0.114,0.114,0.326,0.129,0.442,0.129l0,0
	c0.434,0,0.912-0.216,1.278-0.583l12.219-12.221c0.674-0.673,0.725-1.37,0.667-1.535c-3.359-3.335-4.372-8.919-2.291-12.897
	c0.059-0.111,6.211-10.806,13.009-10.806c0.189,0,0.379-0.189,0.451-0.27c0.279-0.312,0.44-0.772,0.44-1.265v-17.28
	c0-0.952-0.457-1.484-0.614-1.559c-0.015,0-0.03,0-0.045,0c-4.712,0-9.362-3.238-10.716-7.528
	c-0.036-0.114-3.262-11.962,1.576-16.805c0.135-0.135,0.135-0.403,0.129-0.511c-0.023-0.421-0.234-0.859-0.583-1.208L136.844,52.96
	c-0.503-0.502-1.066-0.682-1.394-0.682c-3.366,3.217-9.156,4.341-13.036,2.307c-0.108-0.057-10.809-6.203-10.809-13.011
	c0-0.312-0.584-0.889-1.538-0.889H92.793c-0.952,0-1.484,0.457-1.559,0.613c0.021,4.731-3.226,9.409-7.534,10.761
	c-1.655,0.523-4.927,1.087-8.185,1.087c-4.006,0-6.825-0.868-8.617-2.662c-0.116-0.114-0.327-0.129-0.445-0.129
	c-0.434,0-0.912,0.216-1.278,0.583L52.96,63.153c-0.673,0.673-0.725,1.373-0.667,1.538c3.36,3.332,4.374,8.919,2.289,12.897
	c-0.056,0.105-6.203,10.806-13.008,10.806c-0.314,0-0.891,0.583-0.891,1.538v17.277c0,0.901,0.434,1.472,0.614,1.559
	c0.015,0,0.032,0,0.045,0c4.71,0,9.361,3.235,10.716,7.525c0.038,0.117,3.264,11.968-1.576,16.808
	c-0.222,0.222-0.221,1.045,0.454,1.721l12.219,12.218c0.505,0.505,1.068,0.682,1.395,0.682
	C66.746,145.622,69.887,144.336,72.998,144.336z M100,138.009c-20.958,0-38.009-17.051-38.009-38.008
	c0-20.96,17.051-38.011,38.009-38.011s38.009,17.051,38.009,38.011C138.009,120.958,120.958,138.009,100,138.009z M100,71.219
	c-15.869,0-28.781,12.912-28.781,28.782c0,15.868,12.912,28.779,28.781,28.779s28.781-12.912,28.781-28.779
	C128.781,84.131,115.869,71.219,100,71.219z"/>
</svg>
