<?xml version="1.0" encoding="utf-8"?>
<!-- Generator: Adobe Illustrator 17.0.0, SVG Export Plug-In . SVG Version: 6.00 Build 0)  -->
<!DOCTYPE svg PUBLIC "-//W3C//DTD SVG 1.1//EN" "http://www.w3.org/Graphics/SVG/1.1/DTD/svg11.dtd">
<svg version="1.1" id="Layer_1" xmlns="http://www.w3.org/2000/svg" xmlns:xlink="http://www.w3.org/1999/xlink" x="0px" y="0px"
	 width="200px" height="200px" viewBox="0 0 200 200" enable-background="new 0 0 200 200" xml:space="preserve">
<g>
	<g>
		<path d="M100,38.636c-33.832,0-61.364,27.532-61.364,61.364c0,33.844,27.532,61.364,61.364,61.364s61.364-27.52,61.364-61.364
			C161.364,66.168,133.832,38.636,100,38.636z M124.596,142.489l-5.855-10.134l-2.637,1.514l5.805,10.073
			c-5.427,2.71-11.416,4.469-17.758,5.006v-11.171h-12.21v10.671c-6.141-1.013-11.892-3.174-17.044-6.251l5.36-9.304l-2.644-1.514
			l-5.311,9.206c-6.214-4.261-11.397-9.914-15.115-16.495l8.784-5.079l-1.526-2.637l-8.65,4.993
			c-2.527-5.213-4.188-10.915-4.731-16.947h9.474V92.21h-9.023c0.946-5.872,2.906-11.403,5.739-16.409l8.162,4.725l1.532-2.637
			l-8.107-4.688c4.035-6.154,9.414-11.343,15.72-15.176l4.743,8.217l2.637-1.538l-4.743-8.205c5.11-2.686,10.732-4.493,16.696-5.225
			v9.536h12.21v-9.536c6.056,0.745,11.77,2.589,16.934,5.348l-5.243,9.071l2.637,1.514l5.232-9.047
			c6.489,3.992,11.965,9.426,16.006,15.884l-9.584,5.53l1.52,2.637l9.639-5.555c2.881,5.323,4.792,11.245,5.53,17.521l-11.263-0.013
			v12.209h11.178c-0.818,6.325-2.827,12.27-5.818,17.606l-10.244-5.909l-1.526,2.637l10.183,5.885
			C137.061,133.112,131.341,138.582,124.596,142.489z"/>
		<path d="M101.258,91.124V65.509h-3.046v25.615c-4.322,0.733-7.606,4.456-7.606,8.986c0,5.055,4.084,9.132,9.132,9.132
			c3.4,0,6.337-1.88,7.905-4.64h20.036v-9.169h-20.127C106.209,93.199,103.943,91.576,101.258,91.124z"/>
	</g>
</g>
</svg>
