<?xml version="1.0" encoding="utf-8"?>
<!-- Generator: Adobe Illustrator 17.0.0, SVG Export Plug-In . SVG Version: 6.00 Build 0)  -->
<!DOCTYPE svg PUBLIC "-//W3C//DTD SVG 1.1//EN" "http://www.w3.org/Graphics/SVG/1.1/DTD/svg11.dtd">
<svg version="1.1" id="Layer_1" xmlns="http://www.w3.org/2000/svg" xmlns:xlink="http://www.w3.org/1999/xlink" x="0px" y="0px"
	 width="200px" height="200px" viewBox="0 0 200 200" enable-background="new 0 0 200 200" xml:space="preserve">
<g>
	<g>
		<rect x="60.942" y="83.259" width="17.855" height="62.494"/>
		<path d="M129.1,86.82c-6.647-3.731-16.454-4.04-23.522-0.815v-2.745H87.726v62.494h17.853v-39.968l7.359-3.54
			c1.806-0.867,5.759-0.79,7.434,0.155c1.265,0.702,3.063,3.622,3.063,5.413v37.94h17.855v-37.94
			C141.289,99.608,136.162,90.778,129.1,86.82z"/>
		<path d="M69.87,54.247c-6.172,0-11.16,4.996-11.16,11.157c0,6.167,4.987,11.162,11.16,11.162c6.172,0,11.16-4.995,11.16-11.162
			C81.03,59.242,76.043,54.247,69.87,54.247z"/>
	</g>
</g>
</svg>
