<?xml version="1.0" encoding="utf-8"?>
<!-- Generator: Adobe Illustrator 17.0.0, SVG Export Plug-In . SVG Version: 6.00 Build 0)  -->
<!DOCTYPE svg PUBLIC "-//W3C//DTD SVG 1.1//EN" "http://www.w3.org/Graphics/SVG/1.1/DTD/svg11.dtd">
<svg version="1.1" id="Layer_1" xmlns="http://www.w3.org/2000/svg" xmlns:xlink="http://www.w3.org/1999/xlink" x="0px" y="0px"
	 width="200px" height="200px" viewBox="0 0 200 200" enable-background="new 0 0 200 200" xml:space="preserve">
<g>
	<g>
		<polygon points="54.409,38.827 64.163,38.827 70.448,61.637 71.057,61.637 77.048,38.827 86.89,38.827 75.619,72.221 
			75.619,95.892 65.938,95.892 65.938,73.289 		"/>
		<path d="M87.586,63.427c0-3.267,1.156-5.868,3.473-7.798c2.312-1.93,5.429-2.9,9.335-2.9c3.561,0,6.476,1.021,8.757,3.065
			c2.261,2.033,3.396,4.654,3.396,7.864v21.747c0,3.602-1.114,6.419-3.333,8.473c-2.24,2.054-5.305,3.076-9.212,3.076
			c-3.762,0-6.776-1.063-9.031-3.169c-2.255-2.116-3.385-4.964-3.385-8.546V63.427z M96.437,86.036c0,1.161,0.31,2.043,0.918,2.683
			c0.609,0.63,1.486,0.944,2.622,0.944c1.166,0,2.09-0.325,2.776-0.96c0.692-0.655,1.032-1.543,1.032-2.668V63.102
			c0-0.914-0.351-1.662-1.047-2.224c-0.702-0.573-1.621-0.852-2.761-0.852c-1.047,0-1.899,0.279-2.56,0.852
			c-0.65,0.562-0.98,1.311-0.98,2.224V86.036z"/>
		<path d="M144.068,53.793v42.099h-8.608v-4.645c-1.569,1.703-3.22,3.024-4.944,3.912c-1.713,0.893-3.375,1.342-4.985,1.342
			c-2.003,0-3.489-0.63-4.5-1.879c-1.001-1.259-1.507-3.137-1.507-5.641V53.793h8.587v32.274c0,1.001,0.196,1.723,0.558,2.167
			c0.351,0.444,0.939,0.671,1.744,0.671c0.629,0,1.435-0.294,2.405-0.888c0.96-0.588,1.847-1.342,2.642-2.271V53.793H144.068z"/>
	</g>
	<g>
		<path d="M73.524,108.329H47.102v7.524h8.907v44.272h8.608v-44.272h8.907V108.329z"/>
		<path d="M91.059,150.934c-0.722,0.825-1.507,1.517-2.374,2.043c-0.857,0.542-1.574,0.815-2.126,0.815
			c-0.718,0-1.239-0.207-1.569-0.619c-0.31-0.392-0.475-1.053-0.475-1.95v-29.317h-7.637v31.959c0,2.281,0.454,3.973,1.342,5.119
			c0.903,1.14,2.219,1.703,3.994,1.703c1.435,0,2.911-0.403,4.433-1.223c1.532-0.81,2.993-1.982,4.412-3.535v4.195h7.637v-38.219
			h-7.637V150.934z"/>
		<path d="M124.494,123.883c-1.27-1.625-3.117-2.436-5.537-2.436c-1.187,0-2.358,0.299-3.525,0.903
			c-1.146,0.593-2.24,1.502-3.272,2.647v-16.668h-7.72v51.796h7.72v-2.926c0.996,1.166,2.095,2.033,3.266,2.59
			c1.162,0.552,2.493,0.826,3.994,0.826c2.26,0,3.999-0.722,5.191-2.157c1.197-1.445,1.796-3.53,1.796-6.234v-21.21
			C126.409,127.892,125.774,125.513,124.494,123.883z M118.539,151.182c0,1.229-0.227,2.095-0.661,2.632
			c-0.444,0.537-1.125,0.805-2.064,0.805c-0.645,0-1.254-0.134-1.842-0.413c-0.589-0.268-1.197-0.722-1.811-1.347v-23.806
			c0.521-0.526,1.042-0.928,1.574-1.166c0.532-0.258,1.074-0.371,1.621-0.371c1.027,0,1.822,0.32,2.379,0.991
			c0.542,0.661,0.805,1.641,0.805,2.942V151.182z"/>
		<path d="M152.898,141.924v-9.743c0-3.612-0.934-6.388-2.813-8.319c-1.878-1.94-4.567-2.911-8.065-2.911
			c-3.422,0-6.198,1.048-8.36,3.127c-2.162,2.095-3.251,4.799-3.251,8.102v17.174c0,3.675,0.996,6.575,2.957,8.67
			c1.961,2.1,4.66,3.148,8.081,3.148c3.808,0,6.667-0.981,8.571-2.962c1.93-1.982,2.88-4.944,2.88-8.856v-1.961h-7.859v1.744
			c0,2.24-0.263,3.695-0.759,4.345c-0.506,0.671-1.388,1.001-2.658,1.001c-1.218,0-2.08-0.382-2.591-1.166
			c-0.5-0.774-0.743-2.167-0.743-4.18v-7.214H152.898z M138.288,132.124c0-1.595,0.253-2.751,0.789-3.432
			c0.532-0.702,1.399-1.043,2.616-1.043c1.161,0,2.023,0.341,2.539,1.043c0.532,0.681,0.805,1.837,0.805,3.432v3.855h-6.75V132.124z
			"/>
	</g>
</g>
</svg>
