<?xml version="1.0" encoding="utf-8"?>
<!-- Generator: Adobe Illustrator 17.0.0, SVG Export Plug-In . SVG Version: 6.00 Build 0)  -->
<!DOCTYPE svg PUBLIC "-//W3C//DTD SVG 1.1//EN" "http://www.w3.org/Graphics/SVG/1.1/DTD/svg11.dtd">
<svg version="1.1" id="Layer_1" xmlns="http://www.w3.org/2000/svg" xmlns:xlink="http://www.w3.org/1999/xlink" x="0px" y="0px"
	 width="200px" height="200px" viewBox="0 0 200 200" enable-background="new 0 0 200 200" xml:space="preserve">
<path fill-rule="evenodd" clip-rule="evenodd" d="M56.577,41.578h86.846c8.252,0,14.997,6.75,14.997,14.996v86.851
	c0,8.247-6.745,14.997-14.997,14.997H56.577c-8.246,0-14.996-6.75-14.996-14.997V56.574C41.58,48.328,48.331,41.578,56.577,41.578
	L56.577,41.578z M126.693,54.562c-2.89,0-5.259,2.364-5.259,5.254v12.592c0,2.9,2.369,5.264,5.259,5.264h13.206
	c2.895,0,5.264-2.364,5.264-5.264V59.815c0-2.89-2.369-5.254-5.264-5.254H126.693L126.693,54.562z M145.214,90.985h-10.284
	c0.975,3.179,1.501,6.544,1.501,10.032c0,19.434-16.261,35.189-36.319,35.189c-20.054,0-36.315-15.755-36.315-35.189
	c0-3.489,0.526-6.853,1.497-10.032H54.564v49.36c0,2.554,2.09,4.64,4.645,4.64h81.36c2.554,0,4.644-2.085,4.644-4.64V90.985
	L145.214,90.985z M100.111,77.01c-12.958,0-23.465,10.177-23.465,22.737c0,12.55,10.506,22.738,23.465,22.738
	c12.963,0,23.47-10.187,23.47-22.738C123.581,87.187,113.074,77.01,100.111,77.01z"/>
</svg>
