<?xml version="1.0" encoding="utf-8"?>
<!-- Generator: Adobe Illustrator 17.0.0, SVG Export Plug-In . SVG Version: 6.00 Build 0)  -->
<!DOCTYPE svg PUBLIC "-//W3C//DTD SVG 1.1//EN" "http://www.w3.org/Graphics/SVG/1.1/DTD/svg11.dtd">
<svg version="1.1" id="Layer_1" xmlns="http://www.w3.org/2000/svg" xmlns:xlink="http://www.w3.org/1999/xlink" x="0px" y="0px"
	 width="200px" height="200px" viewBox="0 0 200 200" enable-background="new 0 0 200 200" xml:space="preserve">
<path d="M143.517,51.389H56.483c-11.025,0-19.995,8.97-19.995,19.995v57.231c0,11.025,8.97,19.995,19.995,19.995h87.035
	c11.025,0,19.995-8.97,19.995-19.995V71.384C163.513,60.359,154.542,51.389,143.517,51.389z M143.517,60.618
	c1.105,0,2.15,0.216,3.154,0.526l-39.057,39.062c-4.044,4.048-11.184,4.042-15.228,0L53.329,61.144
	c1.004-0.311,2.049-0.526,3.154-0.526H143.517z M154.284,128.616c0,5.936-4.831,10.767-10.767,10.767H56.483
	c-5.936,0-10.767-4.831-10.767-10.767V71.384c0-1.419,0.291-2.769,0.793-4.011l39.352,39.357c3.764,3.766,8.784,5.838,14.14,5.838
	c5.353,0,10.373-2.073,14.137-5.838l39.352-39.357c0.501,1.242,0.793,2.591,0.793,4.011V128.616z"/>
</svg>
