<?xml version="1.0" encoding="utf-8"?>
<!-- Generator: Adobe Illustrator 17.0.0, SVG Export Plug-In . SVG Version: 6.00 Build 0)  -->
<!DOCTYPE svg PUBLIC "-//W3C//DTD SVG 1.1//EN" "http://www.w3.org/Graphics/SVG/1.1/DTD/svg11.dtd">
<svg version="1.1" id="Layer_1" xmlns="http://www.w3.org/2000/svg" xmlns:xlink="http://www.w3.org/1999/xlink" x="0px" y="0px"
	 width="200px" height="200px" viewBox="0 0 200 200" enable-background="new 0 0 200 200" xml:space="preserve">
<g>
	<path d="M100.192,169.509c-12.876,0-23.753-10.878-23.753-23.753c0-12.975,10.878-23.934,23.753-23.934
		c12.879,0,23.756,10.959,23.756,23.934C123.949,158.631,113.071,169.509,100.192,169.509z M100.192,131.05
		c-7.874,0-14.525,6.735-14.525,14.705c0,7.874,6.651,14.525,14.525,14.525s14.528-6.651,14.528-14.525
		C114.72,137.786,108.066,131.05,100.192,131.05z M119.166,115.378H81.239l-5.47-84.887h48.462L119.166,115.378z M89.891,106.149
		h20.581l3.965-66.43H85.61L89.891,106.149z"/>
</g>
</svg>
