<?xml version="1.0" encoding="utf-8"?>
<!-- Generator: Adobe Illustrator 17.1.0, SVG Export Plug-In . SVG Version: 6.00 Build 0)  -->
<!DOCTYPE svg PUBLIC "-//W3C//DTD SVG 1.1//EN" "http://www.w3.org/Graphics/SVG/1.1/DTD/svg11.dtd">
<svg version="1.1" id="Layer_1" xmlns="http://www.w3.org/2000/svg" xmlns:xlink="http://www.w3.org/1999/xlink" x="0px" y="0px"
	 viewBox="0 0 200 200" enable-background="new 0 0 200 200" xml:space="preserve">
<g>
	<path fill="#231F20" d="M100,45.788c29.94,0,54.21,24.273,54.21,54.214s-24.27,54.211-54.21,54.211s-54.21-24.271-54.21-54.211
		S70.06,45.788,100,45.788 M100,35.121c-35.773,0-64.876,29.105-64.876,64.88c0,35.774,29.104,64.878,64.876,64.878
		s64.876-29.104,64.876-64.878C164.876,64.226,135.773,35.121,100,35.121L100,35.121z"/>
	<polygon fill="#231F20" points="90.689,125.755 70.118,98.734 78.605,92.273 92.54,110.578 129.505,80.856 136.19,89.169 	"/>
</g>
</svg>
