<?xml version="1.0" encoding="utf-8"?>
<!-- Generator: Adobe Illustrator 17.0.0, SVG Export Plug-In . SVG Version: 6.00 Build 0)  -->
<!DOCTYPE svg PUBLIC "-//W3C//DTD SVG 1.1//EN" "http://www.w3.org/Graphics/SVG/1.1/DTD/svg11.dtd">
<svg version="1.1" id="Layer_1" xmlns="http://www.w3.org/2000/svg" xmlns:xlink="http://www.w3.org/1999/xlink" x="0px" y="0px"
	 width="200px" height="200px" viewBox="0 0 200 200" enable-background="new 0 0 200 200" xml:space="preserve">
<path d="M67.425,167.166c-5.236,0-11.349-3.878-11.349-14.807V47.641c0-10.929,6.113-14.807,11.349-14.807
	c3.41,0,6.957,1.481,10.544,4.401l58.328,47.49c4.918,4.004,7.627,9.43,7.627,15.276c-0.003,5.844-2.71,11.268-7.627,15.271
	l-58.328,47.493C74.383,165.685,70.835,167.166,67.425,167.166z M67.425,42.062c-1.673,0-2.121,3.507-2.121,5.579v104.718
	c0,2.071,0.448,5.579,2.121,5.579c0.436,0,2.064-0.168,4.716-2.328l58.328-47.493c2.725-2.219,4.224-5.101,4.227-8.117
	c0-3.016-1.502-5.9-4.227-8.119L72.141,44.39C69.489,42.23,67.861,42.062,67.425,42.062z"/>
</svg>
