<?xml version="1.0" encoding="utf-8"?>
<!-- Generator: Adobe Illustrator 17.0.0, SVG Export Plug-In . SVG Version: 6.00 Build 0)  -->
<!DOCTYPE svg PUBLIC "-//W3C//DTD SVG 1.1//EN" "http://www.w3.org/Graphics/SVG/1.1/DTD/svg11.dtd">
<svg version="1.1" id="Layer_1" xmlns="http://www.w3.org/2000/svg" xmlns:xlink="http://www.w3.org/1999/xlink" x="0px" y="0px"
	 width="200px" height="200px" viewBox="0 0 200 200" enable-background="new 0 0 200 200" xml:space="preserve">
<g>
	<path d="M38.418,160.579l10.511-33.349c-4.922-8.802-7.515-18.688-7.515-28.725c0-32.579,26.505-59.085,59.085-59.085
		c32.578,0,59.083,26.505,59.083,59.085c0,32.576-26.505,59.082-59.083,59.082c-10.044,0-19.935-2.596-28.739-7.522L38.418,160.579z
		 M72.926,140.022l1.789,1.084c7.809,4.743,16.725,7.252,25.784,7.252c27.489,0,49.855-22.363,49.855-49.853
		s-22.366-49.856-49.855-49.856c-27.491,0-49.856,22.366-49.856,49.856c0,9.051,2.505,17.965,7.244,25.772l1.084,1.787
		l-6.423,20.383L72.926,140.022z"/>
</g>
</svg>
