<?xml version="1.0" encoding="utf-8"?>
<!-- Generator: Adobe Illustrator 17.0.0, SVG Export Plug-In . SVG Version: 6.00 Build 0)  -->
<!DOCTYPE svg PUBLIC "-//W3C//DTD SVG 1.1//EN" "http://www.w3.org/Graphics/SVG/1.1/DTD/svg11.dtd">
<svg version="1.1" id="Layer_1" xmlns="http://www.w3.org/2000/svg" xmlns:xlink="http://www.w3.org/1999/xlink" x="0px" y="0px"
	 width="200px" height="200px" viewBox="0 0 200 200" enable-background="new 0 0 200 200" xml:space="preserve">
<path d="M106.525,100l40.263-40.262c1.802-1.801,1.802-4.724,0-6.525c-1.802-1.802-4.722-1.802-6.525,0L100,93.475L59.737,53.213
	c-1.802-1.802-4.722-1.802-6.525,0c-1.802,1.801-1.802,4.724,0,6.525L93.475,100l-40.263,40.262c-1.802,1.801-1.802,4.724,0,6.525
	c0.901,0.901,2.082,1.352,3.262,1.352s2.361-0.451,3.262-1.352L100,106.525l40.263,40.262c0.901,0.901,2.082,1.352,3.262,1.352
	c1.181,0,2.361-0.451,3.262-1.352c1.802-1.801,1.802-4.724,0-6.525L106.525,100z"/>
</svg>
