<?xml version="1.0" encoding="utf-8"?>
<!-- Generator: Adobe Illustrator 17.0.0, SVG Export Plug-In . SVG Version: 6.00 Build 0)  -->
<!DOCTYPE svg PUBLIC "-//W3C//DTD SVG 1.1//EN" "http://www.w3.org/Graphics/SVG/1.1/DTD/svg11.dtd">
<svg version="1.1" id="Layer_1" xmlns="http://www.w3.org/2000/svg" xmlns:xlink="http://www.w3.org/1999/xlink" x="0px" y="0px"
	 width="200px" height="200px" viewBox="0 0 200 200" enable-background="new 0 0 200 200" xml:space="preserve">
<path d="M138.969,107.115c2.547,0,4.614-2.065,4.614-4.614c0-2.549-2.067-4.614-4.614-4.614h-34.328V70.186h34.328
	c2.547,0,4.614-2.065,4.614-4.614c0-2.549-2.067-4.614-4.614-4.614h-34.328V37.973c0-2.549-2.067-4.614-4.614-4.614
	s-4.614,2.065-4.614,4.614v42.82H61.031c-2.547,0-4.614,2.065-4.614,4.614c0,2.549,2.067,4.614,4.614,4.614h34.382v27.71H61.031
	c-2.547,0-4.614,2.065-4.614,4.614s2.067,4.614,4.614,4.614h34.382v35.067c0,2.549,2.067,4.614,4.614,4.614s4.614-2.065,4.614-4.614
	v-17.974h34.328c2.547,0,4.614-2.065,4.614-4.614s-2.067-4.614-4.614-4.614h-34.328v-27.71H138.969z"/>
</svg>
