<?xml version="1.0" encoding="utf-8"?>
<!-- Generator: Adobe Illustrator 17.0.0, SVG Export Plug-In . SVG Version: 6.00 Build 0)  -->
<!DOCTYPE svg PUBLIC "-//W3C//DTD SVG 1.1//EN" "http://www.w3.org/Graphics/SVG/1.1/DTD/svg11.dtd">
<svg version="1.1" id="Layer_1" xmlns="http://www.w3.org/2000/svg" xmlns:xlink="http://www.w3.org/1999/xlink" x="0px" y="0px"
	 width="200px" height="200px" viewBox="0 0 200 200" enable-background="new 0 0 200 200" xml:space="preserve">
<path d="M133.011,105.391c-5.701,0-11.006,1.695-15.473,4.58l-10.785-10.785l9.812-9.812c4.658,3.286,10.324,5.235,16.445,5.235
	c15.781,0,28.62-12.84,28.62-28.62s-12.84-28.62-28.62-28.62s-28.62,12.84-28.62,28.62c0,6.333,2.094,12.173,5.59,16.92
	l-9.752,9.752L90.215,82.647c3.38-4.698,5.394-10.441,5.394-16.658c0-15.781-12.84-28.62-28.62-28.62s-28.62,12.84-28.62,28.62
	s12.84,28.62,28.62,28.62c6.239,0,12-2.029,16.707-5.431l10.008,10.008l-10.958,10.958c-4.523-2.997-9.937-4.753-15.757-4.753
	c-15.781,0-28.62,12.84-28.62,28.62s12.84,28.62,28.62,28.62s28.62-12.84,28.62-28.62c0-6.633-2.289-12.73-6.091-17.589
	l10.711-10.711l10.449,10.449c-3.924,4.9-6.287,11.101-6.287,17.851c0,15.781,12.84,28.62,28.62,28.62s28.62-12.84,28.62-28.62
	S148.792,105.391,133.011,105.391z M133.011,46.598c10.693,0,19.391,8.7,19.391,19.391s-8.698,19.391-19.391,19.391
	c-10.693,0-19.391-8.7-19.391-19.391S122.318,46.598,133.011,46.598z M47.597,65.989c0-10.692,8.698-19.391,19.391-19.391
	s19.391,8.7,19.391,19.391s-8.698,19.391-19.391,19.391S47.597,76.681,47.597,65.989z M66.989,153.402
	c-10.693,0-19.391-8.7-19.391-19.391s8.698-19.391,19.391-19.391s19.391,8.7,19.391,19.391S77.682,153.402,66.989,153.402z
	 M133.011,153.402c-10.693,0-19.391-8.7-19.391-19.391s8.698-19.391,19.391-19.391c10.693,0,19.391,8.7,19.391,19.391
	S143.704,153.402,133.011,153.402z"/>
</svg>
