<?xml version="1.0" encoding="utf-8"?>
<!-- Generator: Adobe Illustrator 17.0.0, SVG Export Plug-In . SVG Version: 6.00 Build 0)  -->
<!DOCTYPE svg PUBLIC "-//W3C//DTD SVG 1.1//EN" "http://www.w3.org/Graphics/SVG/1.1/DTD/svg11.dtd">
<svg version="1.1" id="Layer_1" xmlns="http://www.w3.org/2000/svg" xmlns:xlink="http://www.w3.org/1999/xlink" x="0px" y="0px"
	 width="200px" height="200px" viewBox="0 0 200 200" enable-background="new 0 0 200 200" xml:space="preserve">
<path d="M153.65,45.229h-16.955v-6.438c0-5.936-4.831-10.767-10.767-10.767h-9.799c-5.936,0-10.767,4.831-10.767,10.767v6.438
	H94.638v-6.438c0-5.936-4.831-10.767-10.767-10.767h-9.799c-5.936,0-10.767,4.831-10.767,10.767v6.438H46.35
	c-5.936,0-10.767,4.831-10.767,10.767v105.213c0,5.936,4.831,10.767,10.767,10.767h107.3c5.936,0,10.767-4.831,10.767-10.767V55.996
	C164.417,50.06,159.586,45.229,153.65,45.229z M114.591,38.791c0-0.834,0.704-1.538,1.538-1.538h9.799
	c0.834,0,1.538,0.704,1.538,1.538v34.472c0,0.834-0.704,1.538-1.538,1.538h-9.799c-0.834,0-1.538-0.704-1.538-1.538V38.791z
	 M72.533,38.791c0-0.834,0.704-1.538,1.538-1.538h9.799c0.834,0,1.538,0.704,1.538,1.538v34.472c0,0.834-0.704,1.538-1.538,1.538
	h-9.799c-0.834,0-1.538-0.704-1.538-1.538V38.791z M155.188,161.209c0,0.834-0.704,1.538-1.538,1.538H46.35
	c-0.834,0-1.538-0.704-1.538-1.538V55.996c0-0.834,0.704-1.538,1.538-1.538h16.955v18.806c0,5.936,4.831,10.767,10.767,10.767h9.799
	c5.936,0,10.767-4.831,10.767-10.767V54.458h10.725v18.806c0,5.936,4.831,10.767,10.767,10.767h9.799
	c5.936,0,10.767-4.831,10.767-10.767V54.458h16.955c0.834,0,1.538,0.704,1.538,1.538V161.209z"/>
</svg>
