<?xml version="1.0" encoding="utf-8"?>
<!-- Generator: Adobe Illustrator 17.0.0, SVG Export Plug-In . SVG Version: 6.00 Build 0)  -->
<!DOCTYPE svg PUBLIC "-//W3C//DTD SVG 1.1//EN" "http://www.w3.org/Graphics/SVG/1.1/DTD/svg11.dtd">
<svg version="1.1" id="Layer_1" xmlns="http://www.w3.org/2000/svg" xmlns:xlink="http://www.w3.org/1999/xlink" x="0px" y="0px"
	 width="200px" height="200px" viewBox="0 0 200 200" enable-background="new 0 0 200 200" xml:space="preserve">
<path d="M68.355,37.553c4.1,0,14.796,0.853,17.373,9.543c2.533,8.541,3.081,7.832,1.267,16.452l0.171,19.003h50.525l-0.004,0.021
	c0.186-0.007,0.358-0.036,0.541-0.036c7.596,0,13.761,4.018,13.761,8.981c0,4.895-6.015,8.859-13.482,8.956
	c5.149,1.299,8.82,4.54,8.82,8.358c0,4.898-6.022,8.863-13.493,8.959c5.156,1.299,8.83,4.541,8.83,8.358
	c0,4.48-5.034,8.161-11.604,8.841l-0.086,0.694c4.175,1.539,7.027,4.43,7.027,7.786c0,3.879-3.792,7.156-9.077,8.409l-0.025,0.207
	c0,0-0.369,0-1.005,0c-1.167,0.211-2.38,0.361-3.653,0.361c-1.274,0-2.483-0.15-3.65-0.361c-14.437,0-43.723,0-55.202,0
	c-15.5,0-17.379-19.554-17.379-19.554V96.283l0.036-0.025c-0.025-1.564,0.608-6.63,8.891-12.462
	c8.545-6.011,12.827-23.193,12.827-23.193l-3.02-22.999C66.746,37.604,67.354,37.553,68.355,37.553 M68.355,28.324L68.355,28.324
	c-1.481,0-2.379,0.083-2.379,0.083c-2.498,0.231-4.835,1.473-6.401,3.433c-1.566,1.96-2.306,4.477-1.98,6.965l2.778,21.155
	c-1.674,5.66-5.223,13.81-8.745,16.288c-10.278,7.237-12.511,14.584-12.78,18.949c-0.043,0.359-0.065,0.721-0.065,1.086v36.249
	c0,0.295,0.014,0.589,0.042,0.883c0.927,9.65,7.672,27.9,26.565,27.9h54.433c1.556,0.243,3.009,0.361,4.418,0.361
	c1.411,0,2.865-0.119,4.422-0.361h0.237c1.538,0,2.995-0.378,4.279-1.051c8.491-2.755,14.051-9.295,14.051-16.794
	c0-1.836-0.328-3.615-0.951-5.296c3.526-3.199,5.613-7.404,5.613-12.025c0-1.82-0.314-3.574-0.909-5.228
	c3.499-3.176,5.571-7.379,5.571-12.09c0-1.819-0.313-3.573-0.908-5.226c3.499-3.175,5.57-7.378,5.57-12.088
	c0-10.211-10.098-18.209-22.989-18.209c-0.188,0-0.372,0.005-0.556,0.014h-41.36l-0.08-8.867c1.581-7.724,1.439-10.004-0.714-16.905
	c-0.273-0.874-0.587-1.882-0.942-3.079C91.577,34.361,81.775,28.325,68.355,28.324L68.355,28.324z"/>
</svg>
