<?xml version="1.0" encoding="utf-8"?>
<!-- Generator: Adobe Illustrator 17.1.0, SVG Export Plug-In . SVG Version: 6.00 Build 0)  -->
<!DOCTYPE svg PUBLIC "-//W3C//DTD SVG 1.1//EN" "http://www.w3.org/Graphics/SVG/1.1/DTD/svg11.dtd">
<svg version="1.1" id="Layer_1" xmlns="http://www.w3.org/2000/svg" xmlns:xlink="http://www.w3.org/1999/xlink" x="0px" y="0px"
	 viewBox="0 0 200 200" enable-background="new 0 0 200 200" xml:space="preserve">
<g>
	<path fill="#231F20" d="M71.843,67.338c0,2.478-2.027,4.505-4.505,4.505H42.56c-2.478,0-4.505-2.027-4.505-4.505V42.56
		c0-2.478,2.027-4.505,4.505-4.505h24.778c2.478,0,4.505,2.027,4.505,4.505V67.338z"/>
	<path fill="#231F20" d="M116.894,67.338c0,2.478-2.027,4.505-4.505,4.505H87.611c-2.478,0-4.505-2.027-4.505-4.505V42.56
		c0-2.478,2.027-4.505,4.505-4.505h24.778c2.478,0,4.505,2.027,4.505,4.505V67.338z"/>
	<path fill="#231F20" d="M161.945,67.338c0,2.478-2.027,4.505-4.505,4.505h-24.778c-2.478,0-4.505-2.027-4.505-4.505V42.56
		c0-2.478,2.027-4.505,4.505-4.505h24.778c2.478,0,4.505,2.027,4.505,4.505V67.338z"/>
	<path fill="#231F20" d="M71.843,112.389c0,2.478-2.027,4.505-4.505,4.505H42.56c-2.478,0-4.505-2.027-4.505-4.505V87.611
		c0-2.478,2.027-4.505,4.505-4.505h24.778c2.478,0,4.505,2.027,4.505,4.505V112.389z"/>
	<path fill="#231F20" d="M116.894,112.389c0,2.478-2.027,4.505-4.505,4.505H87.611c-2.478,0-4.505-2.027-4.505-4.505V87.611
		c0-2.478,2.027-4.505,4.505-4.505h24.778c2.478,0,4.505,2.027,4.505,4.505V112.389z"/>
	<path fill="#231F20" d="M161.945,112.389c0,2.478-2.027,4.505-4.505,4.505h-24.778c-2.478,0-4.505-2.027-4.505-4.505V87.611
		c0-2.478,2.027-4.505,4.505-4.505h24.778c2.478,0,4.505,2.027,4.505,4.505V112.389z"/>
	<path fill="#231F20" d="M71.843,157.44c0,2.478-2.027,4.505-4.505,4.505H42.56c-2.478,0-4.505-2.027-4.505-4.505v-24.778
		c0-2.478,2.027-4.505,4.505-4.505h24.778c2.478,0,4.505,2.027,4.505,4.505V157.44z"/>
	<path fill="#231F20" d="M116.894,157.44c0,2.478-2.027,4.505-4.505,4.505H87.611c-2.478,0-4.505-2.027-4.505-4.505v-24.778
		c0-2.478,2.027-4.505,4.505-4.505h24.778c2.478,0,4.505,2.027,4.505,4.505V157.44z"/>
	<path fill="#231F20" d="M161.945,157.44c0,2.478-2.027,4.505-4.505,4.505h-24.778c-2.478,0-4.505-2.027-4.505-4.505v-24.778
		c0-2.478,2.027-4.505,4.505-4.505h24.778c2.478,0,4.505,2.027,4.505,4.505V157.44z"/>
</g>
</svg>
