<?xml version="1.0" encoding="utf-8"?>
<!-- Generator: Adobe Illustrator 17.0.0, SVG Export Plug-In . SVG Version: 6.00 Build 0)  -->
<!DOCTYPE svg PUBLIC "-//W3C//DTD SVG 1.1//EN" "http://www.w3.org/Graphics/SVG/1.1/DTD/svg11.dtd">
<svg version="1.1" id="Layer_1" xmlns="http://www.w3.org/2000/svg" xmlns:xlink="http://www.w3.org/1999/xlink" x="0px" y="0px"
	 width="200px" height="200px" viewBox="0 0 200 200" enable-background="new 0 0 200 200" xml:space="preserve">
<path d="M163.513,161.027H36.487v-38.792c0-11.025,8.97-19.995,19.995-19.995h11.471c1.618,0,2.573-0.219,3.087-0.401
	c-0.24-0.487-0.771-1.313-1.927-2.444c-0.308-0.303-7.566-7.57-7.566-21.969c0-21.203,17.25-38.452,38.452-38.452
	s38.452,17.25,38.452,38.452c0,14.399-7.258,21.666-7.566,21.969c-1.157,1.131-1.687,1.957-1.927,2.444
	c0.514,0.182,1.469,0.401,3.087,0.401h11.471c11.025,0,19.995,8.97,19.995,19.995V161.027z M45.716,151.798h108.568v-29.563
	c0-5.936-4.831-10.767-10.767-10.767h-11.471c-8.219,0-10.987-3.779-11.907-6.031c-0.918-2.253-1.583-6.89,4.291-12.64
	c0.156-0.161,4.793-5.066,4.793-15.372c0-16.114-13.11-29.224-29.224-29.224s-29.224,13.11-29.224,29.224
	c0,10.306,4.637,15.211,4.835,15.414c5.832,5.708,5.167,10.345,4.249,12.598c-0.919,2.252-3.688,6.031-11.907,6.031H56.483
	c-5.936,0-10.767,4.831-10.767,10.767V151.798z"/>
</svg>
