<?xml version="1.0" encoding="utf-8"?>
<!-- Generator: Adobe Illustrator 17.0.0, SVG Export Plug-In . SVG Version: 6.00 Build 0)  -->
<!DOCTYPE svg PUBLIC "-//W3C//DTD SVG 1.1//EN" "http://www.w3.org/Graphics/SVG/1.1/DTD/svg11.dtd">
<svg version="1.1" id="Layer_1" xmlns="http://www.w3.org/2000/svg" xmlns:xlink="http://www.w3.org/1999/xlink" x="0px" y="0px"
	 width="200px" height="200px" viewBox="0 0 200 200" enable-background="new 0 0 200 200" xml:space="preserve">
<g>
	<g>
		<path d="M157.264,55.419H42.733c-4.891,0-8.868,3.629-8.868,8.093c0,4.452,3.978,8.087,8.868,8.087h114.531
			c4.891,0,8.871-3.635,8.871-8.087C166.135,59.048,162.155,55.419,157.264,55.419z"/>
		<path d="M157.264,91.907H42.733c-4.891,0-8.868,3.629-8.868,8.093c0,4.458,3.978,8.087,8.868,8.087h114.531
			c4.891,0,8.871-3.629,8.871-8.087C166.135,95.536,162.155,91.907,157.264,91.907z"/>
		<path d="M157.264,128.401H42.733c-4.891,0-8.868,3.623-8.868,8.087c0,4.458,3.978,8.093,8.868,8.093h114.531
			c4.891,0,8.871-3.635,8.871-8.093C166.135,132.024,162.155,128.401,157.264,128.401z"/>
	</g>
</g>
</svg>
