<?xml version="1.0" encoding="utf-8"?>
<!-- Generator: Adobe Illustrator 17.0.0, SVG Export Plug-In . SVG Version: 6.00 Build 0)  -->
<!DOCTYPE svg PUBLIC "-//W3C//DTD SVG 1.1//EN" "http://www.w3.org/Graphics/SVG/1.1/DTD/svg11.dtd">
<svg version="1.1" id="Layer_1" xmlns="http://www.w3.org/2000/svg" xmlns:xlink="http://www.w3.org/1999/xlink" x="0px" y="0px"
	 width="200px" height="200px" viewBox="0 0 200 200" enable-background="new 0 0 200 200" xml:space="preserve">
<g>
	<path d="M102.912,139.161l71.079-17.852l-24.584-74.416l-49.22,16.631L50.962,46.892l-24.584,74.416l71.084,17.852l2.725,0.684
		L102.912,139.161z M167.058,117.495l-64.146,16.112V68.289l43.081-14.559L167.058,117.495z M33.312,117.495L54.376,53.73
		l43.087,14.559v65.318L33.312,117.495z"/>
	<path d="M194.324,130.524L163.92,42.202l-8.857,2.364l27.947,79.94l-77.597,20.797c0,0-0.956,3.759-5.179,3.759
		s-5.208-3.69-5.208-3.69L16.99,124.505l27.947-79.94l-8.857-2.364L5.676,130.524L89.735,153c2.619,3.032,6.431,4.798,10.498,4.798
		c4.13,0,7.989-1.83,10.613-4.953L194.324,130.524z"/>
</g>
</svg>
