<?xml version="1.0" encoding="utf-8"?>
<!-- Generator: Adobe Illustrator 17.0.0, SVG Export Plug-In . SVG Version: 6.00 Build 0)  -->
<!DOCTYPE svg PUBLIC "-//W3C//DTD SVG 1.1//EN" "http://www.w3.org/Graphics/SVG/1.1/DTD/svg11.dtd">
<svg version="1.1" id="Layer_1" xmlns="http://www.w3.org/2000/svg" xmlns:xlink="http://www.w3.org/1999/xlink" x="0px" y="0px"
	 width="200px" height="200px" viewBox="0 0 200 200" enable-background="new 0 0 200 200" xml:space="preserve">
<g>
	<g>
		<g>
			<g>
				<path d="M115.202,86.028c0,8.292,6.716,14.986,14.993,14.986c8.288,0,14.999-6.694,14.999-14.986
					c0-8.283-6.711-14.996-14.999-14.996C121.918,71.031,115.202,77.745,115.202,86.028z"/>
			</g>
			<g>
				<path d="M84.799,86.028c0,8.292-6.714,14.986-14.993,14.986c-8.283,0-14.996-6.694-14.996-14.986
					c0-8.283,6.714-14.996,14.996-14.996C78.086,71.031,84.799,77.745,84.799,86.028z"/>
			</g>
		</g>
		<path d="M100.003,155.652c-19.014,0-35.782-11.458-42.717-29.191c-0.928-2.373,0.243-5.05,2.617-5.978
			c2.379-0.927,5.051,0.245,5.978,2.617c5.541,14.169,18.935,23.324,34.122,23.324c15.184,0,28.576-9.155,34.125-23.325
			c0.928-2.376,3.614-3.542,5.978-2.615c2.373,0.93,3.545,3.606,2.614,5.98C135.78,144.195,119.011,155.652,100.003,155.652z"/>
		<g>
			<path d="M41.72,70.701c-0.56,0-1.13-0.104-1.684-0.32c-2.372-0.931-3.54-3.608-2.611-5.981
				c4.778-12.182,16.293-20.052,29.335-20.052c3.797,0,7.521,0.677,11.067,2.016c2.472,0.921,4.841,2.173,7.025,3.716
				c2.082,1.469,2.578,4.348,1.107,6.43c-1.469,2.079-4.35,2.582-6.43,1.107c-1.535-1.083-3.198-1.963-4.942-2.614
				c-2.517-0.949-5.146-1.427-7.827-1.427c-9.22,0-17.362,5.571-20.743,14.194C45.304,69.59,43.563,70.701,41.72,70.701z"/>
			<path d="M158.278,70.701c-1.842,0-3.584-1.113-4.296-2.934c-3.377-8.62-11.518-14.191-20.743-14.191
				c-2.68,0-5.305,0.478-7.808,1.422c-1.757,0.656-3.422,1.537-4.957,2.62c-2.091,1.472-4.966,0.973-6.432-1.11
				c-1.469-2.082-0.973-4.961,1.109-6.43c2.184-1.54,4.551-2.791,7.036-3.721c3.536-1.332,7.258-2.01,11.052-2.01
				c13.053,0,24.568,7.872,29.335,20.055c0.931,2.373-0.24,5.05-2.614,5.98C159.407,70.599,158.84,70.701,158.278,70.701z"/>
		</g>
	</g>
</g>
</svg>
