<?xml version="1.0" encoding="utf-8"?>
<!-- Generator: Adobe Illustrator 17.0.0, SVG Export Plug-In . SVG Version: 6.00 Build 0)  -->
<!DOCTYPE svg PUBLIC "-//W3C//DTD SVG 1.1//EN" "http://www.w3.org/Graphics/SVG/1.1/DTD/svg11.dtd">
<svg version="1.1" id="Layer_1" xmlns="http://www.w3.org/2000/svg" xmlns:xlink="http://www.w3.org/1999/xlink" x="0px" y="0px"
	 width="200px" height="200px" viewBox="0 0 200 200" enable-background="new 0 0 200 200" xml:space="preserve">
<g>
	<path d="M105.727,151.781v-10.738c17.896-1.552,25.891-12.288,25.891-24.46c0-15.987-13.482-20.64-25.891-23.861V72.08
		c5.846,1.193,11.575,3.939,16.106,8.473l7.878-10.379c-6.205-5.967-14.32-9.785-23.984-10.859V48.219h-9.543v10.976
		c-15.393,1.312-25.178,10.978-25.178,23.148c0,15.51,12.889,19.924,25.178,23.026v23.145c-8.591-1.312-15.51-5.846-19.924-10.738
		l-7.878,10.857c6.326,6.564,15.514,11.454,27.802,12.409v10.738H105.727z M105.727,107.875c6.564,2.028,11.575,4.652,11.575,10.02
		c0,4.655-3.342,9.547-11.575,10.738V107.875z M85.327,81.268c0-5.249,4.172-8.948,10.857-9.783v18.731
		C89.858,88.307,85.327,85.921,85.327,81.268z"/>
</g>
</svg>
