<?xml version="1.0" encoding="utf-8"?>
<!-- Generator: Adobe Illustrator 17.0.0, SVG Export Plug-In . SVG Version: 6.00 Build 0)  -->
<!DOCTYPE svg PUBLIC "-//W3C//DTD SVG 1.1//EN" "http://www.w3.org/Graphics/SVG/1.1/DTD/svg11.dtd">
<svg version="1.1" id="Layer_1" xmlns="http://www.w3.org/2000/svg" xmlns:xlink="http://www.w3.org/1999/xlink" x="0px" y="0px"
	 width="200px" height="200px" viewBox="0 0 200 200" enable-background="new 0 0 200 200" xml:space="preserve">
<path d="M109.427,168.732c-0.874,0-1.733-0.036-2.584-0.108c-0.592,0.066-1.223,0.108-1.905,0.108
	c-20.112,0-35.869-30.188-35.869-68.726c0-38.544,15.757-68.737,35.869-68.737c0.661,0,1.295,0.038,1.92,0.113
	c0.844-0.077,1.7-0.113,2.569-0.113c21.503,0,21.503,22.454,21.503,29.832c0,7.38,0,29.834-21.503,29.834
	c-1.018,0-2.037-0.053-3.049-0.159c-0.321,3.199-0.481,6.25-0.481,9.23c0,2.977,0.159,6.023,0.481,9.22
	c1.012-0.105,2.031-0.158,3.049-0.158c21.503,0,21.503,22.453,21.503,29.831S130.93,168.732,109.427,168.732z M106.669,159.335
	l0.571,0.057c0.715,0.075,1.445,0.111,2.187,0.111c7.369,0,12.275-3.503,12.275-20.605c0-17.099-4.906-20.602-12.275-20.602
	c-1.938,0-3.863,0.276-5.729,0.823l-5.107,1.496l-0.757-5.266c-0.784-5.449-1.166-10.466-1.166-15.343
	c0-4.882,0.382-9.905,1.166-15.352l0.757-5.265l5.104,1.492c1.875,0.548,3.803,0.826,5.732,0.826
	c7.369,0,12.275-3.504,12.275-20.605c0-17.099-4.906-20.604-12.275-20.604c-0.727,0-1.439,0.036-2.139,0.116l-0.643,0.074
	l-0.637-0.107c-0.327-0.054-0.679-0.083-1.069-0.083c-12.867,0-26.64,23.911-26.64,59.508c0,35.591,13.774,59.498,26.64,59.498
	c0.424,0,0.808-0.036,1.163-0.087L106.669,159.335z"/>
</svg>
