<?xml version="1.0" encoding="utf-8"?>
<!-- Generator: Adobe Illustrator 17.0.0, SVG Export Plug-In . SVG Version: 6.00 Build 0)  -->
<!DOCTYPE svg PUBLIC "-//W3C//DTD SVG 1.1//EN" "http://www.w3.org/Graphics/SVG/1.1/DTD/svg11.dtd">
<svg version="1.1" id="Layer_1" xmlns="http://www.w3.org/2000/svg" xmlns:xlink="http://www.w3.org/1999/xlink" x="0px" y="0px"
	 width="200px" height="200px" viewBox="0 0 200 200" enable-background="new 0 0 200 200" xml:space="preserve">
<path d="M140.853,169.016c-0.979,0-1.962-0.234-2.861-0.706l-37.994-19.965L62.01,168.31c-2.071,1.084-4.584,0.907-6.48-0.469
	c-1.894-1.376-2.843-3.71-2.447-6.017l7.252-42.298L29.6,89.565c-1.676-1.634-2.28-4.08-1.558-6.306
	c0.724-2.228,2.648-3.851,4.966-4.188l42.484-6.182L94.48,34.413c1.036-2.1,3.175-3.429,5.517-3.429
	c2.342,0,4.481,1.329,5.517,3.429L124.51,72.89l42.481,6.182c2.318,0.336,4.242,1.96,4.966,4.188
	c0.722,2.228,0.119,4.671-1.558,6.306l-30.744,29.961l7.115,41.445c0.192,0.598,0.296,1.232,0.296,1.893
	c0,3.398-2.755,6.152-6.152,6.152C140.893,169.016,140.871,169.016,140.853,169.016z M47.113,89.453l24.127,23.521
	c1.449,1.413,2.112,3.45,1.769,5.445l-5.693,33.201l29.817-15.672c1.793-0.94,3.934-0.94,5.724,0l29.822,15.672l-5.699-33.2
	c-0.342-1.996,0.32-4.033,1.769-5.446l24.133-23.521l-33.346-4.853c-2.002-0.291-3.734-1.549-4.631-3.365L99.998,51.036
	L85.095,81.235c-0.895,1.814-2.627,3.073-4.631,3.365L47.113,89.453z"/>
</svg>
