<?xml version="1.0" encoding="utf-8"?>
<!-- Generator: Adobe Illustrator 17.0.0, SVG Export Plug-In . SVG Version: 6.00 Build 0)  -->
<!DOCTYPE svg PUBLIC "-//W3C//DTD SVG 1.1//EN" "http://www.w3.org/Graphics/SVG/1.1/DTD/svg11.dtd">
<svg version="1.1" id="Layer_1" xmlns="http://www.w3.org/2000/svg" xmlns:xlink="http://www.w3.org/1999/xlink" x="0px" y="0px"
	 width="200px" height="200px" viewBox="0 0 200 200" enable-background="new 0 0 200 200" xml:space="preserve">
<path d="M100.001,175.832l-11.159-24.172l-20.025,17.544l-0.362-26.622l-25.433,7.884l10.499-24.468l-26.438-3.142l19.542-18.082
	L23.751,91.149l25.207-8.571L33.603,60.827l26.514,2.424l-5.184-26.116l23.238,12.999l5.888-25.966l15.941,21.325l15.941-21.325
	l5.888,25.964l23.234-12.997l-5.179,26.116l26.514-2.424l-15.357,21.751l25.207,8.571l-22.876,13.624l19.542,18.082l-26.436,3.142
	l10.499,24.468l-25.433-7.884l-0.36,26.622l-20.028-17.544L100.001,175.832z"/>
</svg>
