<?xml version="1.0" encoding="utf-8"?>
<!-- Generator: Adobe Illustrator 17.0.0, SVG Export Plug-In . SVG Version: 6.00 Build 0)  -->
<!DOCTYPE svg PUBLIC "-//W3C//DTD SVG 1.1//EN" "http://www.w3.org/Graphics/SVG/1.1/DTD/svg11.dtd">
<svg version="1.1" id="Layer_1" xmlns="http://www.w3.org/2000/svg" xmlns:xlink="http://www.w3.org/1999/xlink" x="0px" y="0px"
	 width="200px" height="200px" viewBox="0 0 200 200" enable-background="new 0 0 200 200" xml:space="preserve">
<g>
	<path d="M167.54,103.464l-12.452-13.338c-0.835-0.895-1.992-1.421-3.214-1.463c-1.307-0.035-2.415,0.406-3.308,1.239
		l-13.335,12.452c-1.863,1.739-1.965,4.659-0.225,6.522c1.745,1.864,4.662,1.959,6.522,0.222l5.087-4.748
		c-2.221,24.324-22.706,43.446-47.595,43.446c-12.764,0-24.769-4.969-33.808-13.989c-1.805-1.802-4.725-1.798-6.525,0.006
		c-1.799,1.804-1.796,4.725,0.006,6.525c10.782,10.761,25.102,16.686,40.327,16.686c29.943,0,54.519-23.206,56.818-52.573
		l4.955,5.309c0.91,0.973,2.139,1.466,3.374,1.466c1.13,0,2.259-0.412,3.148-1.241C169.177,108.247,169.279,105.327,167.54,103.464z
		"/>
	<path d="M64.989,91.125c-1.739-1.867-4.656-1.959-6.522-0.222l-5.084,4.749c2.219-24.325,22.704-43.448,47.595-43.448
		c12.767,0,24.772,4.967,33.808,13.989c1.802,1.799,4.722,1.798,6.525-0.005c1.799-1.804,1.799-4.725-0.006-6.526
		c-10.776-10.761-25.099-16.686-40.327-16.686c-29.944,0-54.52,23.206-56.818,52.572l-4.952-5.307
		c-1.742-1.863-4.659-1.96-6.522-0.225c-1.863,1.739-1.965,4.659-0.225,6.522l12.452,13.341c0.835,0.895,1.992,1.421,3.214,1.463
		c0.054,0.002,0.108,0.003,0.159,0.003c1.169,0,2.295-0.443,3.151-1.242l13.332-12.455C66.629,95.908,66.731,92.988,64.989,91.125z"
		/>
	<path d="M103.67,135.556v-7.461c12.434-1.078,17.989-8.538,17.989-16.994c0-11.108-9.367-14.34-17.989-16.578V80.181
		c4.062,0.829,8.042,2.737,11.19,5.887l5.473-7.211c-4.311-4.146-9.95-6.798-16.664-7.545v-7.709h-6.63v7.626
		c-10.695,0.912-17.493,7.627-17.493,16.082c0,10.776,8.955,13.843,17.493,15.998v16.081c-5.969-0.912-10.776-4.062-13.843-7.461
		l-5.473,7.543c4.395,4.56,10.779,7.958,19.316,8.622v7.461H103.67z M103.67,105.051c4.56,1.409,8.042,3.232,8.042,6.962
		c0,3.234-2.322,6.633-8.042,7.461V105.051z M89.496,86.565c0-3.647,2.899-6.217,7.543-6.797v13.014
		C92.644,91.456,89.496,89.797,89.496,86.565z"/>
</g>
</svg>
