<?xml version="1.0" encoding="utf-8"?>
<!-- Generator: Adobe Illustrator 17.0.0, SVG Export Plug-In . SVG Version: 6.00 Build 0)  -->
<!DOCTYPE svg PUBLIC "-//W3C//DTD SVG 1.1//EN" "http://www.w3.org/Graphics/SVG/1.1/DTD/svg11.dtd">
<svg version="1.1" id="Layer_1" xmlns="http://www.w3.org/2000/svg" xmlns:xlink="http://www.w3.org/1999/xlink" x="0px" y="0px"
	 width="200px" height="200px" viewBox="0 0 200 200" enable-background="new 0 0 200 200" xml:space="preserve">
<g>
	<g>
		<polygon points="150.891,65.052 136.618,50.788 149.322,38.087 163.589,52.356 		"/>
		<g>
			<polygon points="93.822,100.698 93.822,107.854 100.978,107.854 100.984,114.962 147.755,68.188 133.488,53.925 86.714,100.692 
							"/>
			<polygon points="97.616,111.219 90.457,111.213 90.457,104.057 85.194,104.057 78.678,122.412 97.619,116.374 			"/>
		</g>
		<path d="M148.878,86.964l-11.473,11.476v37.323c0,3.683-2.998,6.675-6.675,6.675H64.562c-3.683,0-6.675-2.992-6.675-6.675V68.176
			c0-3.683,2.992-6.675,6.675-6.675h38.747l11.473-11.476h-50.22c-10.01,0-18.151,8.141-18.151,18.151v67.586
			c0,10.01,8.141,18.151,18.151,18.151h66.168c10.007,0,18.148-8.141,18.148-18.151V86.964z"/>
	</g>
</g>
</svg>
