<?xml version="1.0" encoding="utf-8"?>
<!-- Generator: Adobe Illustrator 17.0.0, SVG Export Plug-In . SVG Version: 6.00 Build 0)  -->
<!DOCTYPE svg PUBLIC "-//W3C//DTD SVG 1.1//EN" "http://www.w3.org/Graphics/SVG/1.1/DTD/svg11.dtd">
<svg version="1.1" id="Layer_1" xmlns="http://www.w3.org/2000/svg" xmlns:xlink="http://www.w3.org/1999/xlink" x="0px" y="0px"
	 width="200px" height="200px" viewBox="0 0 200 200" enable-background="new 0 0 200 200" xml:space="preserve">
<path d="M127.551,132.178H48.385c-10.047,0-18.22-8.173-18.22-18.22V86.042c0-10.047,8.173-18.22,18.22-18.22h103.23
	c10.047,0,18.22,8.173,18.22,18.22v13.215c0,10.047-8.173,18.22-18.22,18.22H80.077c-10.046,0-18.22-7.428-18.22-16.559
	s8.174-16.559,18.22-16.559h47.474c2.549,0,4.614,2.065,4.614,4.614s-2.065,4.614-4.614,4.614H80.077
	c-4.874,0-8.991,3.357-8.991,7.33s4.117,7.33,8.991,7.33h71.538c4.958,0,8.991-4.033,8.991-8.991V86.042
	c0-4.958-4.033-8.991-8.991-8.991H48.385c-4.958,0-8.991,4.033-8.991,8.991v27.916c0,4.958,4.033,8.991,8.991,8.991h79.166
	c2.549,0,4.614,2.065,4.614,4.614C132.165,130.112,130.1,132.178,127.551,132.178z"/>
</svg>
