<?xml version="1.0" encoding="utf-8"?>
<!-- Generator: Adobe Illustrator 17.0.0, SVG Export Plug-In . SVG Version: 6.00 Build 0)  -->
<!DOCTYPE svg PUBLIC "-//W3C//DTD SVG 1.1//EN" "http://www.w3.org/Graphics/SVG/1.1/DTD/svg11.dtd">
<svg version="1.1" id="Layer_1" xmlns="http://www.w3.org/2000/svg" xmlns:xlink="http://www.w3.org/1999/xlink" x="0px" y="0px"
	 width="200px" height="200px" viewBox="0 0 200 200" enable-background="new 0 0 200 200" xml:space="preserve">
<path d="M142.859,121.369c-6.35-6.351-15.125-13.452-22.876-16.901c9.338-16.215,7.131-37.313-6.716-51.159
	c-8.01-8.013-18.664-12.426-29.994-12.426c-11.331,0-21.984,4.413-29.994,12.426c-16.539,16.538-16.539,43.45,0,59.99
	c8.01,8.012,18.663,12.423,29.993,12.423c7.569,0,14.815-2.009,21.194-5.705c0.554,1.246,1.179,2.529,1.953,3.887
	c3.419,6.004,8.856,12.924,14.92,18.986c4.879,4.879,17.311,16.225,27.36,16.225c3.782,0,6.157-1.58,7.483-2.906
	C162.918,149.471,157.937,136.446,142.859,121.369z M61.98,104.6c-11.742-11.743-11.742-30.849,0-42.591
	c5.687-5.688,13.248-8.822,21.293-8.822c8.043,0,15.606,3.133,21.295,8.822c11.74,11.742,11.74,30.848,0,42.589
	c-5.688,5.688-13.251,8.82-21.296,8.82C75.228,113.419,67.665,110.287,61.98,104.6z"/>
</svg>
