<?xml version="1.0" encoding="utf-8"?>
<!-- Generator: Adobe Illustrator 17.0.0, SVG Export Plug-In . SVG Version: 6.00 Build 0)  -->
<!DOCTYPE svg PUBLIC "-//W3C//DTD SVG 1.1//EN" "http://www.w3.org/Graphics/SVG/1.1/DTD/svg11.dtd">
<svg version="1.1" id="Layer_1" xmlns="http://www.w3.org/2000/svg" xmlns:xlink="http://www.w3.org/1999/xlink" x="0px" y="0px"
	 width="200px" height="200px" viewBox="0 0 200 200" enable-background="new 0 0 200 200" xml:space="preserve">
<path d="M157.536,93.208h-5.403c-0.546-4.234-1.594-8.309-3.085-12.165l4.833-2.79c3.068-1.772,4.129-5.731,2.357-8.799
	l-1.008-1.746c-1.771-3.068-5.731-4.129-8.799-2.357l-4.678,2.7c-2.554-3.332-5.495-6.349-8.76-8.984l2.795-4.84
	c1.771-3.068,0.71-7.028-2.358-8.799l-1.746-1.008c-3.068-1.771-7.028-0.71-8.799,2.357l-2.692,4.663
	c-3.822-1.591-7.871-2.748-12.087-3.4v-5.575c0-3.543-2.899-6.442-6.441-6.442h-2.016c-3.543,0-6.441,2.899-6.441,6.442v5.403
	c-4.234,0.547-8.308,1.594-12.165,3.085l-2.791-4.833c-1.771-3.068-5.731-4.129-8.799-2.358l-1.746,1.008
	c-3.068,1.771-4.129,5.731-2.358,8.799l2.701,4.677c-3.332,2.554-6.349,5.495-8.984,8.76l-4.841-2.795
	c-3.068-1.772-7.028-0.71-8.799,2.357l-1.008,1.746c-1.771,3.068-0.71,7.028,2.358,8.799l4.664,2.692
	c-1.591,3.823-2.748,7.871-3.401,12.087h-5.575c-3.543,0-6.441,2.898-6.441,6.441v2.016c0,3.543,2.899,6.442,6.441,6.442h5.403
	c0.547,4.234,1.594,8.309,3.085,12.165l-4.834,2.79c-3.068,1.772-4.129,5.731-2.358,8.799l1.008,1.746
	c1.771,3.068,5.731,4.129,8.799,2.357l4.677-2.7c2.554,3.332,5.495,6.349,8.76,8.984l-2.795,4.84
	c-1.771,3.068-0.71,7.028,2.358,8.799l1.746,1.008c3.068,1.771,7.028,0.71,8.799-2.358l2.692-4.663
	c3.823,1.591,7.871,2.748,12.087,3.401v5.575c0,3.543,2.899,6.442,6.441,6.442h2.016c3.543,0,6.441-2.899,6.441-6.442v-5.403
	c4.234-0.547,8.308-1.594,12.165-3.085l2.79,4.833c1.771,3.068,5.731,4.129,8.799,2.358l1.746-1.008
	c3.068-1.771,4.129-5.731,2.358-8.799l-2.701-4.677c3.332-2.554,6.349-5.495,8.984-8.76l4.841,2.795
	c3.068,1.772,7.028,0.71,8.799-2.357l1.008-1.746c1.771-3.068,0.71-7.028-2.358-8.799l-4.664-2.692
	c1.591-3.823,2.748-7.871,3.401-12.087h5.575c3.543,0,6.441-2.899,6.441-6.441v-2.016C163.977,96.107,161.079,93.208,157.536,93.208
	z M129.305,88.359l-19.313,6.275c-1.58-2.935-4.366-5.122-7.732-5.8V68.564C114.583,69.439,124.936,77.37,129.305,88.359z
	 M97.74,68.564v20.271c-3.197,0.644-5.874,2.647-7.492,5.357l-19.383-6.298C75.338,77.142,85.588,69.427,97.74,68.564z M68.45,100
	c0-2.7,0.376-5.307,1.014-7.808l19.299,6.271c-0.069,0.508-0.155,1.011-0.155,1.537c0,2.727,0.998,5.197,2.596,7.158l-12.004,16.523
	C72.622,117.898,68.45,109.446,68.45,100z M100,131.551c-6.353,0-12.256-1.895-17.208-5.126l11.911-16.395
	c1.589,0.842,3.373,1.363,5.296,1.363c1.453,0,2.831-0.298,4.108-0.794l11.988,16.501C111.38,129.908,105.888,131.551,100,131.551z
	 M119.819,124.533l-11.893-16.369c2.132-2.071,3.467-4.957,3.467-8.164c0-0.354-0.073-0.688-0.104-1.034l19.371-6.294
	c0.561,2.355,0.89,4.801,0.89,7.328C131.551,109.914,126.97,118.749,119.819,124.533z"/>
</svg>
