<?xml version="1.0" encoding="utf-8"?>
<!-- Generator: Adobe Illustrator 17.0.0, SVG Export Plug-In . SVG Version: 6.00 Build 0)  -->
<!DOCTYPE svg PUBLIC "-//W3C//DTD SVG 1.1//EN" "http://www.w3.org/Graphics/SVG/1.1/DTD/svg11.dtd">
<svg version="1.1" id="Layer_1" xmlns="http://www.w3.org/2000/svg" xmlns:xlink="http://www.w3.org/1999/xlink" x="0px" y="0px"
	 width="200px" height="200px" viewBox="0 0 200 200" enable-background="new 0 0 200 200" xml:space="preserve">
<g>
	<g>
		<g>
			<path d="M114.129,87.485c0,7.708,6.241,13.94,13.94,13.94s13.938-6.232,13.938-13.94c0-7.699-6.239-13.931-13.938-13.931
				S114.129,79.786,114.129,87.485z"/>
		</g>
		<g>
			<path d="M85.871,87.485c0,7.708-6.243,13.94-13.94,13.94c-7.701,0-13.942-6.232-13.942-13.94c0-7.699,6.241-13.931,13.942-13.931
				C79.628,73.554,85.871,79.786,85.871,87.485z"/>
		</g>
	</g>
	<g>
		<path d="M86.416,67.881c-0.481,0-0.969-0.077-1.451-0.236L51.193,56.462c-2.418-0.801-3.731-3.411-2.929-5.831
			c0.802-2.417,3.41-3.727,5.831-2.929l33.772,11.183c2.418,0.801,3.731,3.411,2.929,5.831
			C90.155,66.654,88.352,67.881,86.416,67.881z"/>
		<path d="M113.578,67.881c-1.938,0-3.74-1.227-4.38-3.165c-0.802-2.42,0.511-5.03,2.929-5.831l33.778-11.183
			c2.418-0.801,5.035,0.512,5.831,2.929c0.802,2.42-0.511,5.03-2.929,5.831l-33.778,11.183
			C114.548,67.804,114.058,67.881,113.578,67.881z"/>
	</g>
	<path d="M64.284,152.532c-0.559,0-1.128-0.102-1.681-0.318c-2.373-0.93-3.543-3.606-2.615-5.98
		c6.502-16.608,22.208-27.339,40.012-27.339c17.805,0,33.511,10.731,40.015,27.339c0.931,2.373-0.24,5.05-2.614,5.978
		c-2.367,0.933-5.05-0.237-5.978-2.614c-5.11-13.045-17.445-21.475-31.423-21.475s-26.31,8.43-31.417,21.475
		C67.869,151.419,66.128,152.532,64.284,152.532z"/>
</g>
</svg>
