<?xml version="1.0" encoding="utf-8"?>
<!-- Generator: Adobe Illustrator 17.1.0, SVG Export Plug-In . SVG Version: 6.00 Build 0)  -->
<!DOCTYPE svg PUBLIC "-//W3C//DTD SVG 1.1//EN" "http://www.w3.org/Graphics/SVG/1.1/DTD/svg11.dtd">
<svg version="1.1" id="Layer_1" xmlns="http://www.w3.org/2000/svg" xmlns:xlink="http://www.w3.org/1999/xlink" x="0px" y="0px"
	 viewBox="0 0 200 200" enable-background="new 0 0 200 200" xml:space="preserve">
<g>
	<path fill="#231F20" d="M163.783,87.322c-0.044-0.219-0.122-0.424-0.191-0.633c-0.04-0.12-0.062-0.246-0.11-0.364l-0.012-0.029
		c-0.004-0.01-0.008-0.019-0.012-0.028l-15.227-36.966c-1.14-2.769-4.309-4.095-7.077-2.949c-2.769,1.141-4.088,4.309-2.947,7.078
		l12.167,29.538h-33.912c-2.814,0-5.159,2.152-5.401,4.955c-0.49,5.688-5.348,10.143-11.06,10.143s-10.572-4.455-11.062-10.143
		c-0.242-2.803-2.587-4.955-5.401-4.955H49.734l12.565-29.477c1.174-2.753-0.107-5.937-2.861-7.112
		c-2.753-1.178-5.937,0.106-7.112,2.861L36.544,86.265c0,0.001,0,0.001,0,0.001c-0.278,0.652-0.434,1.37-0.434,2.124v69.099
		c0,2.994,2.427,5.421,5.421,5.421H158.47c2.994,0,5.421-2.427,5.421-5.421V88.39C163.891,88.03,163.853,87.673,163.783,87.322z
		 M153.049,152.069H46.951V93.811H79.16c2.917,8.772,11.273,15.098,20.841,15.098s17.923-6.326,20.84-15.098h32.208V152.069z"/>
	<path fill="#231F20" d="M70.156,73.234h59.382c2.994,0,5.421-2.427,5.421-5.421s-2.427-5.421-5.421-5.421H70.156
		c-2.994,0-5.421,2.427-5.421,5.421S67.162,73.234,70.156,73.234z"/>
	<path fill="#231F20" d="M75.625,56.836h48.445c2.246,0,4.066-1.821,4.066-4.066s-1.82-4.066-4.066-4.066H75.625
		c-2.246,0-4.066,1.821-4.066,4.066S73.379,56.836,75.625,56.836z"/>
	<path fill="#231F20" d="M79.532,42.51h40.631c1.497,0,2.71-1.212,2.71-2.71s-1.214-2.71-2.71-2.71H79.532
		c-1.497,0-2.71,1.212-2.71,2.71S78.035,42.51,79.532,42.51z"/>
</g>
</svg>
