<?xml version="1.0" encoding="utf-8"?>
<!-- Generator: Adobe Illustrator 17.0.0, SVG Export Plug-In . SVG Version: 6.00 Build 0)  -->
<!DOCTYPE svg PUBLIC "-//W3C//DTD SVG 1.1//EN" "http://www.w3.org/Graphics/SVG/1.1/DTD/svg11.dtd">
<svg version="1.1" id="Layer_1" xmlns="http://www.w3.org/2000/svg" xmlns:xlink="http://www.w3.org/1999/xlink" x="0px" y="0px"
	 width="200px" height="200px" viewBox="0 0 200 200" enable-background="new 0 0 200 200" xml:space="preserve">
<g>
	<path d="M157.222,52.145l-55.583-18.246c-0.937-0.306-1.941-0.306-2.878,0L43.359,52.086c-2.389,0.174-4.281,2.146-4.281,4.581
		v72.152c0,1.648,0.88,3.171,2.307,3.995l56.94,32.898c0.712,0.413,1.511,0.619,2.307,0.619c0.811,0,1.622-0.215,2.346-0.641
		l55.675-32.898c1.406-0.831,2.268-2.342,2.268-3.973V56.667C160.922,54.431,159.331,52.569,157.222,52.145z M100.2,43.139
		l41.21,13.527l-41.21,13.53l-41.207-13.53L100.2,43.139z M48.307,62.872l47.282,15.524v75.078l-47.282-27.318V62.872z
		 M104.817,153.884v-75.49l46.876-15.39v63.182L104.817,153.884z"/>
	<path d="M145.315,73.79c-0.814-0.577-1.857-0.721-2.797-0.395l-25.802,9.026c-1.235,0.431-2.061,1.597-2.061,2.903v18.861
		c0,1.039,0.526,2.01,1.397,2.578c0.508,0.33,1.09,0.499,1.679,0.499c0.421,0,0.844-0.087,1.244-0.263l25.802-11.395
		c1.115-0.491,1.833-1.595,1.833-2.813V76.298C146.61,75.301,146.126,74.367,145.315,73.79z M140.458,90.787l-19.65,8.677V87.507
		l19.65-6.873V90.787z"/>
	<path d="M145.126,99.839c-0.925-0.556-2.07-0.593-3.022-0.09l-25.802,13.553c-1.012,0.532-1.646,1.58-1.646,2.723v18.863
		c0,1.096,0.583,2.109,1.532,2.66c0.478,0.278,1.009,0.416,1.544,0.416c0.526,0,1.051-0.135,1.523-0.404l25.802-14.71
		c0.961-0.547,1.553-1.567,1.553-2.672v-17.706C146.61,101.395,146.045,100.396,145.126,99.839z M140.458,118.39l-19.65,11.202
		v-11.708l19.65-10.322V118.39z"/>
</g>
</svg>
