<?xml version="1.0" encoding="utf-8"?>
<!-- Generator: Adobe Illustrator 17.0.0, SVG Export Plug-In . SVG Version: 6.00 Build 0)  -->
<!DOCTYPE svg PUBLIC "-//W3C//DTD SVG 1.1//EN" "http://www.w3.org/Graphics/SVG/1.1/DTD/svg11.dtd">
<svg version="1.1" id="Layer_1" xmlns="http://www.w3.org/2000/svg" xmlns:xlink="http://www.w3.org/1999/xlink" x="0px" y="0px"
	 width="200px" height="200px" viewBox="0 0 200 200" enable-background="new 0 0 200 200" xml:space="preserve">
<g>
	<path d="M99.998,175.893c-35.136,0-56.114-17.562-56.114-46.977c0-20.347,11.076-38.733,28.71-48.47
		c-4.786-6.095-7.444-13.646-7.444-21.502c0-19.21,15.633-34.837,34.848-34.837s34.848,15.627,34.848,34.837
		c0,7.86-2.656,15.41-7.441,21.502c17.634,9.733,28.71,28.12,28.71,48.47C156.115,150.347,146.379,175.893,99.998,175.893z
		 M99.998,33.336c-14.125,0-25.619,11.488-25.619,25.608c0,7.449,3.256,14.528,8.937,19.425c1.217,1.048,1.799,2.653,1.541,4.237
		c-0.258,1.583-1.319,2.92-2.806,3.528c-17.58,7.199-28.938,23.992-28.938,42.781c0,32.844,29.374,37.748,46.885,37.748
		c31.552,0,46.888-12.347,46.888-37.748c0-18.794-11.358-35.587-28.941-42.781c-1.484-0.608-2.547-1.945-2.806-3.53
		c-0.258-1.585,0.327-3.19,1.544-4.237c5.678-4.889,8.934-11.968,8.934-19.423C125.617,44.824,114.124,33.336,99.998,33.336z"/>
	<g>
		<path d="M97.828,148.653c-8.601-0.512-15.156-4.087-19.412-8.942l4.257-5.449c3.235,3.832,8.43,7.238,15.156,8.004v-20.691
			c-8.685-2.384-17.625-5.28-17.625-15.752c0-8.77,7.408-14.986,17.625-15.752v-7.749h5.194v7.833
			c7.069,0.596,12.686,3.491,16.859,7.835l-4.257,5.193c-3.407-3.746-7.835-5.875-12.602-6.556v18.562
			c8.772,2.469,18.136,5.705,18.136,16.859c0,7.663-4.939,15.668-18.136,16.605v7.578h-5.194V148.653z M97.828,113.826v-17.37
			c-6.044,0.427-10.301,4.001-10.301,8.94C87.527,110.08,92.04,112.125,97.828,113.826z M103.022,122.938v19.414
			c8.09-0.852,10.815-5.705,10.815-9.792C113.837,127.025,108.983,124.725,103.022,122.938z"/>
	</g>
</g>
</svg>
