<?xml version="1.0" encoding="utf-8"?>
<!-- Generator: Adobe Illustrator 17.0.0, SVG Export Plug-In . SVG Version: 6.00 Build 0)  -->
<!DOCTYPE svg PUBLIC "-//W3C//DTD SVG 1.1//EN" "http://www.w3.org/Graphics/SVG/1.1/DTD/svg11.dtd">
<svg version="1.1" id="Layer_1" xmlns="http://www.w3.org/2000/svg" xmlns:xlink="http://www.w3.org/1999/xlink" x="0px" y="0px"
	 width="200px" height="200px" viewBox="0 0 200 200" enable-background="new 0 0 200 200" xml:space="preserve">
<g>
	<path d="M145.816,79.265c0.152-2.635-0.726-5.11-2.488-6.971c-1.758-1.868-4.179-2.897-6.815-2.897H63.485
		c-2.639,0-5.062,1.03-6.821,2.897c-1.761,1.868-2.64,4.345-2.486,6.971l4.436,75.201c0.331,5.552,5.116,10.062,10.67,10.062h61.425
		c5.552,0,10.341-4.51,10.675-10.062L145.816,79.265z M82.17,151.443c-1.366,1.417-3.213,2.189-5.187,2.189h-1.73
		c-4.057,0-7.462-3.301-7.591-7.349l-1.955-56.89c-0.063-1.977,0.657-3.852,2.027-5.259c1.367-1.414,3.21-2.194,5.192-2.194h1.734
		c4.054,0,7.453,3.299,7.583,7.354l1.96,56.888C84.262,148.163,83.543,150.029,82.17,151.443z M108.265,146.22
		c0,4.088-3.32,7.413-7.402,7.413h-1.731c-4.081,0-7.403-3.325-7.403-7.413V89.349c0-4.083,3.323-7.408,7.403-7.408h1.731
		c4.082,0,7.402,3.325,7.402,7.408V146.22z M132.331,146.279c-0.126,4.052-3.529,7.354-7.584,7.354h-1.73
		c-1.979,0-3.824-0.779-5.194-2.189c-1.371-1.415-2.089-3.287-2.026-5.264l1.96-56.885c0.126-4.055,3.526-7.354,7.579-7.354h1.731
		c1.984,0,3.828,0.779,5.199,2.194c1.368,1.407,2.09,3.282,2.026,5.259L132.331,146.279z"/>
	<path d="M136.513,40.003h-24.054c-0.584-2.583-2.898-4.532-5.646-4.532H93.187c-2.752,0-5.07,1.948-5.648,4.532H63.485
		c-6.376,0-11.591,5.216-11.591,11.59v3.561h96.213v-3.561C148.107,45.22,142.888,40.003,136.513,40.003z"/>
</g>
</svg>
