<?xml version="1.0" encoding="utf-8"?>
<!-- Generator: Adobe Illustrator 17.0.0, SVG Export Plug-In . SVG Version: 6.00 Build 0)  -->
<!DOCTYPE svg PUBLIC "-//W3C//DTD SVG 1.1//EN" "http://www.w3.org/Graphics/SVG/1.1/DTD/svg11.dtd">
<svg version="1.1" id="Layer_1" xmlns="http://www.w3.org/2000/svg" xmlns:xlink="http://www.w3.org/1999/xlink" x="0px" y="0px"
	 width="200px" height="200px" viewBox="0 0 200 200" enable-background="new 0 0 200 200" xml:space="preserve">
<path d="M169.363,95.387h-9.886c-2.253-29.241-25.62-52.609-54.862-54.861v-9.889c0-2.549-2.067-4.614-4.614-4.614
	s-4.614,2.065-4.614,4.614v9.889c-29.242,2.253-52.612,25.62-54.865,54.861h-9.886c-2.547,0-4.614,2.065-4.614,4.614
	s2.067,4.614,4.614,4.614h9.886c2.253,29.241,25.622,52.609,54.865,54.861v9.886c0,2.549,2.067,4.614,4.614,4.614
	s4.614-2.065,4.614-4.614v-9.886c29.242-2.253,52.609-25.62,54.862-54.861h9.886c2.547,0,4.614-2.065,4.614-4.614
	S171.911,95.387,169.363,95.387z M150.249,95.387h-45.633V49.754C128.772,51.956,148.047,71.231,150.249,95.387z M95.387,49.754
	v45.633H49.751C51.954,71.231,71.23,51.956,95.387,49.754z M49.751,104.616h45.636v45.633
	C71.23,148.047,51.954,128.772,49.751,104.616z M104.616,150.249v-45.633h45.633C148.047,128.772,128.772,148.047,104.616,150.249z"
	/>
</svg>
