<?xml version="1.0" encoding="utf-8"?>
<!-- Generator: Adobe Illustrator 17.0.0, SVG Export Plug-In . SVG Version: 6.00 Build 0)  -->
<!DOCTYPE svg PUBLIC "-//W3C//DTD SVG 1.1//EN" "http://www.w3.org/Graphics/SVG/1.1/DTD/svg11.dtd">
<svg version="1.1" id="Layer_1" xmlns="http://www.w3.org/2000/svg" xmlns:xlink="http://www.w3.org/1999/xlink" x="0px" y="0px"
	 width="200px" height="200px" viewBox="0 0 200 200" enable-background="new 0 0 200 200" xml:space="preserve">
<g>
	<path d="M91.383,55.062v20.518c22.995,1.929,59.684,17.971,59.684,69.359c0,0-22.398-26.316-59.684-29.452v24.501L48.933,97.516
		L91.383,55.062 M91.385,45.833c-2.402,0-4.762,0.938-6.528,2.704L42.407,90.99c-3.603,3.603-3.604,9.445-0.001,13.049
		l42.449,42.472c1.765,1.767,4.127,2.705,6.529,2.705c1.188,0,2.387-0.229,3.529-0.702c3.449-1.428,5.698-4.794,5.698-8.527v-13.8
		c27.12,5.907,43.249,24.523,43.428,24.733c1.788,2.101,4.376,3.247,7.03,3.247c1.067,0,2.144-0.185,3.185-0.568
		c3.63-1.336,6.042-4.793,6.042-8.661c0-48.995-30.486-71.74-59.684-77.385V55.062c0-3.733-2.249-7.098-5.697-8.526
		C93.772,46.062,92.573,45.833,91.385,45.833L91.385,45.833z"/>
</g>
</svg>
