<?xml version="1.0" encoding="utf-8"?>
<!-- Generator: Adobe Illustrator 18.0.0, SVG Export Plug-In . SVG Version: 6.00 Build 0)  -->
<!DOCTYPE svg PUBLIC "-//W3C//DTD SVG 1.1//EN" "http://www.w3.org/Graphics/SVG/1.1/DTD/svg11.dtd">
<svg version="1.1" id="Layer_1" xmlns="http://www.w3.org/2000/svg" xmlns:xlink="http://www.w3.org/1999/xlink" x="0px" y="0px"
	 viewBox="0 0 200 200" enable-background="new 0 0 200 200" xml:space="preserve">
<path d="M179.112,101.977c-0.929-2.242-3.117-3.704-5.543-3.704h-10.926c-0.921-33.727-28.623-60.884-62.568-60.884
	c-34.524,0-62.612,28.087-62.612,62.611s28.087,62.611,62.612,62.611c16.573,0,32.195-6.412,43.987-18.055
	c2.358-2.328,2.382-6.127,0.054-8.485c-2.328-2.357-6.127-2.381-8.485-0.054c-9.532,9.411-22.16,14.594-35.557,14.594
	c-27.907,0-50.612-22.704-50.612-50.611s22.705-50.611,50.612-50.611c27.328,0,49.652,21.775,50.568,48.884h-11.271
	c-2.427,0-4.615,1.462-5.543,3.704s-0.415,4.822,1.301,6.538l17.099,17.099c1.171,1.172,2.707,1.758,4.243,1.758
	s3.071-0.586,4.243-1.758l17.099-17.099C179.527,106.799,180.04,104.219,179.112,101.977z"/>
</svg>
