<?xml version="1.0" encoding="utf-8"?>
<!-- Generator: Adobe Illustrator 17.0.0, SVG Export Plug-In . SVG Version: 6.00 Build 0)  -->
<!DOCTYPE svg PUBLIC "-//W3C//DTD SVG 1.1//EN" "http://www.w3.org/Graphics/SVG/1.1/DTD/svg11.dtd">
<svg version="1.1" id="Layer_1" xmlns="http://www.w3.org/2000/svg" xmlns:xlink="http://www.w3.org/1999/xlink" x="0px" y="0px"
	 width="200px" height="200px" viewBox="0 0 200 200" enable-background="new 0 0 200 200" xml:space="preserve">
<g>
	<path d="M118.8,51.153c-25.766,0-79.729,43.411-82.012,45.26L32.354,100l4.434,3.587c2.283,1.849,56.246,45.26,82.012,45.26
		c26.935,0,48.847-21.912,48.847-48.847S145.734,51.153,118.8,51.153z M118.8,139.618c-17.042,0-54.02-25.936-71.669-39.618
		C64.78,86.318,101.757,60.382,118.8,60.382c21.846,0,39.618,17.772,39.618,39.618S140.645,139.618,118.8,139.618z"/>
	<polygon points="122.17,85.588 116.018,85.588 116.018,97.215 104.392,97.215 104.392,103.368 116.018,103.368 116.018,114.995 
		122.17,114.995 122.17,103.368 133.796,103.368 133.796,97.215 122.17,97.215 	"/>
</g>
</svg>
