<?xml version="1.0" encoding="utf-8"?>
<!-- Generator: Adobe Illustrator 17.0.0, SVG Export Plug-In . SVG Version: 6.00 Build 0)  -->
<!DOCTYPE svg PUBLIC "-//W3C//DTD SVG 1.1//EN" "http://www.w3.org/Graphics/SVG/1.1/DTD/svg11.dtd">
<svg version="1.1" id="Layer_1" xmlns="http://www.w3.org/2000/svg" xmlns:xlink="http://www.w3.org/1999/xlink" x="0px" y="0px"
	 width="200px" height="200px" viewBox="0 0 200 200" enable-background="new 0 0 200 200" xml:space="preserve">
<g>
	<polygon id="Plus_1_" points="172.406,60.796 150.739,60.796 150.739,39.129 139.905,39.129 139.905,60.796 118.238,60.796 
		118.238,69.463 139.905,69.463 139.905,93.298 150.739,93.298 150.739,69.463 172.406,69.463 	"/>
	<path id="g_1_" d="M90.693,108.681c-3.444-2.435-10.026-8.362-10.026-11.845c0-4.08,1.166-6.093,7.308-10.893
		c6.3-4.922,10.759-12.138,10.759-20.185c0-9.579-4.27-17.962-12.278-22.296H98.53l8.523-4.333c0,0-28.562,0-38.082,0
		c-17.074,0-33.142,12.32-33.142,27.302c0,15.31,11.638,27.361,29.007,27.361c1.208,0,2.381-0.176,3.53-0.26
		c-1.126,2.158-1.932,4.511-1.932,7.035c0,4.255,2.287,7.666,5.184,10.483c-2.188,0-4.3,0.044-6.604,0.044
		c-21.145,0-37.42,13.457-37.42,27.423c0,13.756,17.844,22.355,38.988,22.355c24.11,0,37.424-13.682,37.424-27.438
		C104.006,122.405,100.752,115.797,90.693,108.681z M70.347,89.602c-9.812-0.293-19.135-10.976-20.827-23.858
		c-1.695-12.885,4.884-22.746,14.693-22.453c9.81,0.295,19.137,10.633,20.829,23.516C86.735,79.69,80.154,89.895,70.347,89.602z
		 M66.504,154.783c-14.615,0-25.171-9.251-25.171-20.366c0-10.893,13.094-19.96,27.71-19.801c3.411,0.036,6.589,0.584,9.475,1.519
		c7.935,5.516,13.626,8.635,15.232,14.921c0.302,1.276,0.467,2.588,0.467,3.927C94.217,146.099,87.054,154.783,66.504,154.783z"/>
</g>
</svg>
