<?xml version="1.0" encoding="utf-8"?>
<!-- Generator: Adobe Illustrator 17.0.0, SVG Export Plug-In . SVG Version: 6.00 Build 0)  -->
<!DOCTYPE svg PUBLIC "-//W3C//DTD SVG 1.1//EN" "http://www.w3.org/Graphics/SVG/1.1/DTD/svg11.dtd">
<svg version="1.1" id="Layer_1" xmlns="http://www.w3.org/2000/svg" xmlns:xlink="http://www.w3.org/1999/xlink" x="0px" y="0px"
	 width="200px" height="200px" viewBox="0 0 200 200" enable-background="new 0 0 200 200" xml:space="preserve">
<path fill-rule="evenodd" clip-rule="evenodd" d="M95.791,126.158c10,7.596,28.311,2.987,36.224-3.789
	c11.396-9.773,16.659-29.602,14.974-45.292c-1.877-17.569-18.184-33.073-37.464-35.236c-29.654-3.349-56.615,14.937-56.823,44.042
	c-0.093,13.683,4.293,22.314,16.239,27.054c8.153-8.162-1.525-13.463-2.499-22.646C63.87,65.879,92.692,42.349,118.269,57.56
	c17.825,10.598,14.799,56.032-6.866,60.411c-4.31,0.874-9.722-0.483-11.86-2.514c-10.291-9.734,8.528-26.795,2.497-40.908
	c-5.228-12.214-20.234-2.431-21.86,8.187c-0.879,5.761,1.86,11.311,1.875,16.354c0.041,12.009-7.452,28.348-9.373,40.269
	c-0.732,4.647-1.396,14.162-0.305,19.039c-0.063,0.053-0.122,0.117-0.183,0.156h7.83c5.485-9.358,9.239-23.456,12.024-35.548
	C93.773,121.715,94.408,125.094,95.791,126.158z"/>
</svg>
