<?xml version="1.0" encoding="utf-8"?>
<!-- Generator: Adobe Illustrator 17.0.0, SVG Export Plug-In . SVG Version: 6.00 Build 0)  -->
<!DOCTYPE svg PUBLIC "-//W3C//DTD SVG 1.1//EN" "http://www.w3.org/Graphics/SVG/1.1/DTD/svg11.dtd">
<svg version="1.1" id="Layer_1" xmlns="http://www.w3.org/2000/svg" xmlns:xlink="http://www.w3.org/1999/xlink" x="0px" y="0px"
	 width="200px" height="200px" viewBox="0 0 200 200" enable-background="new 0 0 200 200" xml:space="preserve">
<path d="M147.805,52.115h-41.966C103.595,41.96,94.522,34.344,83.7,34.344H52.195c-12.502,0-22.672,10.169-22.672,22.669v34.956
	v50.706v2.772c0,11.144,9.068,20.21,20.21,20.21h100.532c11.143,0,20.21-9.066,20.21-20.21v-2.772V91.969V74.787
	C170.476,62.285,160.306,52.115,147.805,52.115z M147.805,153.798H52.195c-6.132,0-11.123-4.989-11.123-11.123V91.969
	c0-4.776,3.885-8.662,8.662-8.662h100.532c4.776,0,8.662,3.885,8.662,8.662v50.706C158.928,148.808,153.937,153.798,147.805,153.798
	z M52.195,45.892H83.7c6.132,0,11.123,4.989,11.126,10.954l-0.197,6.818h53.176c5.755,0,10.448,4.409,11.011,10.019
	c-2.601-1.221-5.491-1.924-8.55-1.924H49.734c-3.102,0-6.032,0.723-8.662,1.978V57.012C41.072,50.881,46.063,45.892,52.195,45.892z"
	/>
</svg>
