<?xml version="1.0" encoding="utf-8"?>
<!-- Generator: Adobe Illustrator 17.0.0, SVG Export Plug-In . SVG Version: 6.00 Build 0)  -->
<!DOCTYPE svg PUBLIC "-//W3C//DTD SVG 1.1//EN" "http://www.w3.org/Graphics/SVG/1.1/DTD/svg11.dtd">
<svg version="1.1" id="Layer_1" xmlns="http://www.w3.org/2000/svg" xmlns:xlink="http://www.w3.org/1999/xlink" x="0px" y="0px"
	 width="200px" height="200px" viewBox="0 0 200 200" enable-background="new 0 0 200 200" xml:space="preserve">
<g>
	<path d="M144.826,141.918l0.913-2.469c9.036-24.399,25.853-69.812,4.317-90.153c-20.866-19.701-53.827-25.168-55.221-25.394
		c-1.367-0.216-2.773,0.192-3.809,1.121c-1.036,0.928-1.598,2.274-1.529,3.665l0.553,11.205
		c-10.343,7.351-48.348,35.445-50.497,52.845c-0.445,3.602,0.49,6.843,2.702,9.37c13.669,15.609,22.34,10.671,30.055,4.281
		c2.104-1.742,4.092-3.392,6.094-4.059c1.739-0.583,4.263-0.096,7.177,0.463c0.354,0.069,0.715,0.138,1.087,0.21
		c-19.488,21.392-42.102,64.297-43.202,66.397c-0.751,1.43-0.698,3.148,0.137,4.53c0.837,1.382,2.334,2.226,3.949,2.226h94.061
		c1.787,0,3.389-1.063,4.149-2.683c0.76-1.616,0.493-3.56-0.649-4.939C144.826,168.191,138.205,159.891,144.826,141.918z
		 M137.087,136.243l-0.919,2.484c-4.743,12.876-3.824,22.26-1.95,28.199h-27.184c1.115-6.471,4.492-21.495,13.78-39.222
		c1.181-2.259,0.309-5.047-1.947-6.231c-2.256-1.175-5.044-0.312-6.23,1.947c-10.698,20.426-14.027,37.282-14.959,43.505H55.301
		c8.405-15.216,29.488-51.752,44.467-63.801c6.549-1.658,13.882-6.708,21.311-19.59c1.274-2.208,0.517-5.032-1.688-6.303
		c-2.208-1.28-5.032-0.523-6.303,1.688c-5.35,9.271-9.956,13.317-14.266,14.849c-0.988-0.09-1.992,0.129-2.872,0.685
		c-2.914,0.376-5.744-0.168-8.628-0.724c-3.833-0.742-7.802-1.505-11.836-0.156c-3.642,1.214-6.523,3.599-9.065,5.708
		c-5.717,4.734-8.327,6.903-17.224-3.256c-0.326-0.373-0.638-0.919-0.485-2.16C50.099,82.62,79.318,58.536,97.412,46
		c1.31-0.91,2.058-2.43,1.98-4.022l-0.385-7.781c9.911,2.358,30.732,8.607,44.71,21.81
		C160.82,72.156,144.79,115.439,137.087,136.243z"/>
	<path d="M93.345,60.852c-4.329,2.433-5.754,7.21-5.754,7.21s6.582,3.151,10.911,0.718c4.329-2.433,4.766-9.532,4.766-9.532
		S97.673,58.419,93.345,60.852z"/>
</g>
</svg>
