<?xml version="1.0" encoding="utf-8"?>
<!-- Generator: Adobe Illustrator 17.0.0, SVG Export Plug-In . SVG Version: 6.00 Build 0)  -->
<!DOCTYPE svg PUBLIC "-//W3C//DTD SVG 1.1//EN" "http://www.w3.org/Graphics/SVG/1.1/DTD/svg11.dtd">
<svg version="1.1" id="Layer_1" xmlns="http://www.w3.org/2000/svg" xmlns:xlink="http://www.w3.org/1999/xlink" x="0px" y="0px"
	 width="200px" height="200px" viewBox="0 0 200 200" enable-background="new 0 0 200 200" xml:space="preserve">
<g>
	<path d="M82.054,94.295H50.136c-5.936,0-10.767-4.831-10.767-10.767V51.61c0-5.936,4.831-10.767,10.767-10.767h31.919
		c5.936,0,10.767,4.831,10.767,10.767v31.919C92.821,89.465,87.99,94.295,82.054,94.295z M50.136,50.072
		c-0.834,0-1.538,0.704-1.538,1.538v31.919c0,0.834,0.704,1.538,1.538,1.538h31.919c0.834,0,1.538-0.704,1.538-1.538V51.61
		c0-0.834-0.704-1.538-1.538-1.538H50.136z"/>
	<path d="M149.864,94.295h-31.919c-5.936,0-10.767-4.831-10.767-10.767V51.61c0-5.936,4.831-10.767,10.767-10.767h31.919
		c5.936,0,10.767,4.831,10.767,10.767v31.919C160.631,89.465,155.8,94.295,149.864,94.295z M117.946,50.072
		c-0.834,0-1.538,0.704-1.538,1.538v31.919c0,0.834,0.704,1.538,1.538,1.538h31.919c0.834,0,1.538-0.704,1.538-1.538V51.61
		c0-0.834-0.704-1.538-1.538-1.538H117.946z"/>
	<path d="M82.054,159.157H50.136c-5.936,0-10.767-4.831-10.767-10.767v-31.919c0-5.936,4.831-10.767,10.767-10.767h31.919
		c5.936,0,10.767,4.831,10.767,10.767v31.919C92.821,154.326,87.99,159.157,82.054,159.157z M50.136,114.933
		c-0.834,0-1.538,0.704-1.538,1.538v31.919c0,0.834,0.704,1.538,1.538,1.538h31.919c0.834,0,1.538-0.704,1.538-1.538v-31.919
		c0-0.834-0.704-1.538-1.538-1.538H50.136z"/>
	<path d="M149.864,159.157h-31.919c-5.936,0-10.767-4.831-10.767-10.767v-31.919c0-5.936,4.831-10.767,10.767-10.767h31.919
		c5.936,0,10.767,4.831,10.767,10.767v31.919C160.631,154.326,155.8,159.157,149.864,159.157z M117.946,114.933
		c-0.834,0-1.538,0.704-1.538,1.538v31.919c0,0.834,0.704,1.538,1.538,1.538h31.919c0.834,0,1.538-0.704,1.538-1.538v-31.919
		c0-0.834-0.704-1.538-1.538-1.538H117.946z"/>
</g>
</svg>
