<?xml version="1.0" encoding="utf-8"?>
<!-- Generator: Adobe Illustrator 17.0.0, SVG Export Plug-In . SVG Version: 6.00 Build 0)  -->
<!DOCTYPE svg PUBLIC "-//W3C//DTD SVG 1.1//EN" "http://www.w3.org/Graphics/SVG/1.1/DTD/svg11.dtd">
<svg version="1.1" id="Layer_1" xmlns="http://www.w3.org/2000/svg" xmlns:xlink="http://www.w3.org/1999/xlink" x="0px" y="0px"
	 width="200px" height="200px" viewBox="0 0 200 200" enable-background="new 0 0 200 200" xml:space="preserve">
<path d="M156.48,64.957c-4.155,1.855-8.621,3.098-13.313,3.654c4.785-2.866,8.458-7.401,10.192-12.817
	c-4.479,2.643-9.432,4.581-14.718,5.629c-4.229-4.517-10.253-7.327-16.916-7.327c-12.803,0-23.172,10.378-23.172,23.177
	c0,1.818,0.199,3.589,0.594,5.277C79.889,81.586,62.81,72.358,51.384,58.336c-1.998,3.422-3.139,7.41-3.139,11.658
	c0,8.04,4.086,15.136,10.308,19.29c-3.798-0.121-7.373-1.169-10.498-2.894c0,0.084,0,0.176,0,0.288
	c0,11.221,7.994,20.598,18.59,22.722c-1.947,0.538-3.992,0.816-6.107,0.816c-1.493,0-2.944-0.149-4.359-0.427
	c2.949,9.209,11.509,15.915,21.646,16.1c-7.925,6.214-17.927,9.923-28.787,9.923c-1.864,0-3.7-0.111-5.518-0.334
	c10.248,6.585,22.434,10.424,35.529,10.424c42.629,0,65.935-35.325,65.935-65.949c0-1.001-0.023-2.003-0.07-2.995
	C149.45,73.684,153.373,69.613,156.48,64.957z"/>
</svg>
