<?xml version="1.0" encoding="utf-8"?>
<!-- Generator: Adobe Illustrator 17.0.0, SVG Export Plug-In . SVG Version: 6.00 Build 0)  -->
<!DOCTYPE svg PUBLIC "-//W3C//DTD SVG 1.1//EN" "http://www.w3.org/Graphics/SVG/1.1/DTD/svg11.dtd">
<svg version="1.1" id="Layer_1" xmlns="http://www.w3.org/2000/svg" xmlns:xlink="http://www.w3.org/1999/xlink" x="0px" y="0px"
	 width="200px" height="200px" viewBox="0 0 200 200" enable-background="new 0 0 200 200" xml:space="preserve">
<g>
	<g opacity="0.8">
		<path d="M90.632,129.385l19.86-43.785H83.987v-5.464h33.595v4.209l-20.158,45.04H90.632z"/>
	</g>
	<path d="M165.497,120.597l-16.519-6.407c1.237-4.381,1.945-8.982,1.945-13.753c0-5.772-1.015-11.3-2.798-16.474l16.476-7.266
		c2.331-1.029,3.387-3.752,2.36-6.085c-1.029-2.33-3.745-3.393-6.085-2.36l-16.527,7.289c-5.017-8.868-12.625-16.053-21.789-20.583
		l6.641-17.116c0.922-2.376-0.257-5.048-2.633-5.971c-2.376-0.925-5.05,0.257-5.971,2.633l-6.646,17.13
		c-4.389-1.242-9-1.952-13.782-1.952c-5.599,0-10.973,0.947-16.014,2.63L76.696,35.4c-1.029-2.331-3.749-3.389-6.085-2.36
		c-2.331,1.029-3.387,3.752-2.36,6.085L75.693,56c-8.871,4.906-16.095,12.401-20.716,21.446l-17.137-6.646
		c-2.376-0.927-5.05,0.258-5.971,2.633c-0.922,2.376,0.257,5.05,2.633,5.971l17.029,6.604c-1.361,4.578-2.118,9.414-2.118,14.427
		c0,5.442,0.883,10.677,2.476,15.596l-16.49,7.273c-2.331,1.029-3.387,3.752-2.36,6.085c0.762,1.726,2.451,2.753,4.225,2.753
		c0.622,0,1.253-0.126,1.86-0.394l16.383-7.225c4.906,9.06,12.51,16.429,21.702,21.117L70.8,162.16
		c-0.922,2.375,0.257,5.048,2.633,5.971c0.548,0.213,1.113,0.314,1.667,0.314c1.849,0,3.594-1.119,4.303-2.947l6.37-16.417
		c4.568,1.354,9.392,2.11,14.394,2.11c5.616,0,11.005-0.954,16.059-2.646l7.077,16.055c0.762,1.727,2.451,2.755,4.225,2.755
		c0.62,0,1.253-0.126,1.858-0.394c2.333-1.027,3.389-3.752,2.361-6.083l-7.066-16.03c9.054-5.018,16.381-12.738,20.977-22.047
		l16.499,6.4c0.548,0.213,1.113,0.314,1.667,0.314c1.849,0,3.594-1.119,4.303-2.947
		C169.052,124.191,167.873,121.517,165.497,120.597z M100.168,141.962c-22.897,0-41.526-18.628-41.526-41.526
		s18.628-41.526,41.526-41.526s41.526,18.628,41.526,41.526S123.065,141.962,100.168,141.962z"/>
</g>
</svg>
