<?xml version="1.0" encoding="utf-8"?>
<!-- Generator: Adobe Illustrator 17.0.0, SVG Export Plug-In . SVG Version: 6.00 Build 0)  -->
<!DOCTYPE svg PUBLIC "-//W3C//DTD SVG 1.1//EN" "http://www.w3.org/Graphics/SVG/1.1/DTD/svg11.dtd">
<svg version="1.1" id="Layer_1" xmlns="http://www.w3.org/2000/svg" xmlns:xlink="http://www.w3.org/1999/xlink" x="0px" y="0px"
	 width="200px" height="200px" viewBox="0 0 200 200" enable-background="new 0 0 200 200" xml:space="preserve">
<g>
	<path d="M100.168,151.19c-27.985,0-50.753-22.768-50.753-50.754s22.768-50.754,50.753-50.754c27.986,0,50.754,22.768,50.754,50.754
		S128.154,151.19,100.168,151.19z M100.168,58.91c-22.896,0-41.524,18.628-41.524,41.526s18.628,41.526,41.524,41.526
		c22.897,0,41.526-18.628,41.526-41.526S123.065,58.91,100.168,58.91z"/>
	<path d="M100.168,44.818c-2.549,0-4.614-2.065-4.614-4.614V14.251c0-2.549,2.065-4.614,4.614-4.614
		c2.549,0,4.614,2.065,4.614,4.614v25.952C104.783,42.752,102.717,44.818,100.168,44.818z"/>
	<path d="M57.836,62.214c-1.181,0-2.361-0.451-3.262-1.352L36.223,42.511c-1.802-1.802-1.802-4.724,0-6.525
		c1.802-1.802,4.722-1.802,6.525,0l18.351,18.352c1.802,1.802,1.802,4.724,0,6.525C60.197,61.764,59.017,62.214,57.836,62.214z"/>
	<path d="M40.203,104.449L40.203,104.449l-25.952-0.003c-2.549,0-4.614-2.067-4.614-4.614c0-2.549,2.067-4.614,4.614-4.614l0,0
		l25.952,0.003c2.549,0,4.614,2.067,4.614,4.614C44.818,102.384,42.751,104.449,40.203,104.449z"/>
	<path d="M39.245,165.129c-1.181,0-2.363-0.451-3.264-1.352c-1.801-1.802-1.801-4.724,0.002-6.526l18.355-18.349
		c1.802-1.799,4.724-1.801,6.526,0.002c1.801,1.802,1.801,4.724-0.002,6.526l-18.355,18.349
		C41.606,164.678,40.426,165.129,39.245,165.129z"/>
	<path d="M99.832,190.363L99.832,190.363c-2.549,0-4.614-2.067-4.614-4.614l0.003-25.952c0-2.549,2.067-4.614,4.614-4.614l0,0
		c2.549,0,4.614,2.067,4.614,4.614l-0.003,25.952C104.446,188.298,102.379,190.363,99.832,190.363z"/>
	<path d="M160.516,165.366c-1.181,0-2.361-0.451-3.262-1.352l-18.351-18.352c-1.802-1.802-1.802-4.724,0-6.525
		c1.802-1.802,4.722-1.802,6.525,0l18.351,18.352c1.802,1.802,1.802,4.724,0,6.525C162.877,164.916,161.697,165.366,160.516,165.366
		z"/>
	<path d="M185.749,104.783L185.749,104.783l-25.951-0.003c-2.549,0-4.614-2.067-4.614-4.614c0-2.549,2.067-4.614,4.614-4.614l0,0
		l25.951,0.003c2.549,0,4.614,2.067,4.614,4.614C190.363,102.717,188.296,104.783,185.749,104.783z"/>
	<path d="M142.4,62.449c-1.181,0-2.363-0.451-3.262-1.352c-1.802-1.802-1.802-4.724,0-6.525l18.352-18.349
		c1.802-1.802,4.725-1.802,6.525,0c1.802,1.802,1.802,4.724,0,6.525l-18.352,18.349C144.761,61.998,143.58,62.449,142.4,62.449z"/>
</g>
</svg>
