<?xml version="1.0" encoding="utf-8"?>
<!-- Generator: Adobe Illustrator 17.0.0, SVG Export Plug-In . SVG Version: 6.00 Build 0)  -->
<!DOCTYPE svg PUBLIC "-//W3C//DTD SVG 1.1//EN" "http://www.w3.org/Graphics/SVG/1.1/DTD/svg11.dtd">
<svg version="1.1" id="Layer_1" xmlns="http://www.w3.org/2000/svg" xmlns:xlink="http://www.w3.org/1999/xlink" x="0px" y="0px"
	 width="200px" height="200px" viewBox="0 0 200 200" enable-background="new 0 0 200 200" xml:space="preserve">
<path d="M42.241,77.028l4.692,6.153c0,0,9.676-7.626,12.901-3.814c3.225,3.814,15.538,49.857,19.649,58.351
	c3.587,7.448,13.483,17.296,24.334,10.264c10.846-7.033,46.911-37.824,53.368-74.186c6.451-36.351-43.401-28.736-48.681,2.934
	c13.198-7.923,20.243,3.219,13.489,15.835c-6.741,12.604-12.901,20.825-16.126,20.825c-3.219,0-5.696-8.434-9.384-23.177
	c-3.814-15.241-3.79-42.694-19.642-39.582C61.889,53.566,42.241,77.028,42.241,77.028z"/>
</svg>
