<?xml version="1.0" encoding="utf-8"?>
<!-- Generator: Adobe Illustrator 17.0.0, SVG Export Plug-In . SVG Version: 6.00 Build 0)  -->
<!DOCTYPE svg PUBLIC "-//W3C//DTD SVG 1.1//EN" "http://www.w3.org/Graphics/SVG/1.1/DTD/svg11.dtd">
<svg version="1.1" id="Layer_1" xmlns="http://www.w3.org/2000/svg" xmlns:xlink="http://www.w3.org/1999/xlink" x="0px" y="0px"
	 width="200px" height="200px" viewBox="0 0 200 200" enable-background="new 0 0 200 200" xml:space="preserve">
<g>
	<path d="M64.581,78.152h70.834c-2.832-5.043-9.938-9.324-19.498-11.649l-1.341-0.326l0.51-1.287
		c0.761-1.921,1.146-3.928,1.146-5.971c0-8.953-7.281-16.234-16.234-16.234s-16.234,7.281-16.234,16.234
		c0,2.043,0.385,4.051,1.149,5.971l0.512,1.287l-1.348,0.326C74.521,68.832,67.417,73.111,64.581,78.152z M99.998,49.379
		c5.26,0,9.544,4.279,9.544,9.539c0,5.262-4.284,9.546-9.544,9.546s-9.542-4.284-9.542-9.546
		C90.456,53.658,94.738,49.379,99.998,49.379z"/>
	<path d="M128.424,88.867H71.576c-2.32,0-4.2,1.885-4.2,4.202c0,2.317,1.88,4.202,4.2,4.202h56.848c2.317,0,4.202-1.885,4.202-4.202
		C132.626,90.752,130.741,88.867,128.424,88.867z"/>
	<path d="M128.424,106.652H71.576c-2.32,0-4.2,1.882-4.2,4.198c0,2.317,1.88,4.2,4.2,4.2h56.848c2.317,0,4.202-1.882,4.202-4.2
		C132.626,108.535,130.741,106.652,128.424,106.652z"/>
	<path d="M128.424,124.431H71.576c-2.32,0-4.2,1.882-4.2,4.2c0,2.318,1.88,4.202,4.2,4.202h56.848c2.317,0,4.202-1.885,4.202-4.202
		C132.626,126.313,130.741,124.431,128.424,124.431z"/>
	<path d="M156.56,74.069c0-11.997-9.764-21.761-21.763-21.761h-3.083l7.079,11.92c4.005,1.627,6.667,5.527,6.667,9.841v61.485
		c0,5.874-4.78,10.659-10.663,10.659H65.202c-5.876,0-10.656-4.784-10.656-10.659V74.069c0-4.313,2.658-8.214,6.665-9.841
		l7.075-11.92h-3.083c-12,0-21.761,9.764-21.761,21.761v61.485c0,12,9.761,21.761,21.761,21.761h69.595
		c12,0,21.763-9.762,21.763-21.761V74.069z"/>
</g>
</svg>
